<svg xmlns="http://www.w3.org/2000/svg" fill-rule="evenodd" stroke-miterlimit="1.41" viewBox="0 0 2560 650" clip-rule="evenodd" stroke-linejoin="round"><g fill-rule="nonzero"><path fill="#f4f6f9" d="M19.32 419.7H2540v77.04H19.32z"/><path fill="#262626" d="M22.58 482.68v-31.32h-2.4v-4.04h8.23v7.07c1.5-3.1 2.7-5.1 3.6-6.1 1.2-1.2 2.5-1.8 4.2-1.8 2.2 0 3.8 1 4.8 3 .6 1.1.9 2.7 1.2 4.8.9-2.5 1.9-4.3 2.9-5.4 1.5-1.7 3.1-2.5 5.1-2.5 4.1 0 6.1 2.9 6.1 8.9v23.2h2.3v4h-8.1v-24.4c0-4.6-.7-6.9-2.1-6.9-1 0-2.2.9-3.5 2.8-.7 1-1.2 2-1.5 2.9-.6 1.4-.8 2.4-.8 2.9v18.5h2.3v4h-8.1v-25.9c0-3.6-.7-5.4-2.1-5.4-1.9 0-3.8 2.9-5.9 8.8v18.5H31v4h-8.1zm56.75-36.14c5.1 0 9.1 1.64 12 4.92 2.94 3.28 4.4 7.78 4.4 13.5 0 5.83-1.46 10.36-4.4 13.62-2.92 3.28-7 4.9-12.27 4.9-4.44 0-8.07-1.34-10.87-4.06-3.5-3.36-5.3-8.17-5.3-14.42 0-5.75 1.4-10.26 4.4-13.54 2.9-3.28 6.9-4.92 12-4.92zm0 4c-6.3 0-9.45 4.8-9.45 14.4 0 9.7 3.15 14.55 9.45 14.55 6.3 0 9.47-4.9 9.47-14.6 0-9.6-3.16-14.4-9.47-14.4zm47.56-15.26h-8.1v-4h14.4v47.4h4v4h-10.4v-7.23c-1.7 2.4-3.2 4.22-4.8 5.44-2.2 1.7-4.6 2.6-7.2 2.6-3.6 0-6.5-1.6-8.7-4.7-2.2-3.1-3.3-7.2-3.3-12.4 0-6.2 1.4-11.1 4.4-14.6 2.9-3.6 6.9-5.4 12.1-5.4 1.9 0 4.3.2 7.4.8v-12zm0 16.24c-3-.47-5.3-.7-7-.7-3.6 0-6.2 1.15-7.8 3.47-1.6 2.3-2.4 6.2-2.4 11.9 0 8.2 2.3 12.4 6.9 12.4 3.5 0 6.9-2.6 10.1-7.6v-19.5zm48.4 14.7h-25.1c.3 2.92.7 5.03 1.3 6.33 2 4.45 5.8 6.68 11.4 6.68 3.5 0 7.3-1.14 11.3-3.42v4.9c-3.8 1.9-7.9 2.9-12.2 2.9-5.6 0-10.2-1.7-13.7-5.1-3.5-3.4-5.2-8-5.2-13.6 0-5.4 1.6-9.8 4.8-13.2 3.2-3.3 7.4-5 12.6-5 9.6 0 14.5 5.9 14.5 17.7v2zm-25.1-4.02h18.2v-1.5c0-6.77-2.7-10.15-8.1-10.15-3.4 0-6 1.33-7.8 4-1.3 1.87-2.1 4.42-2.4 7.65zm65.3 18.5c-3.6 1.86-7.3 2.8-11 2.8-2 0-3.7-.24-5-.7-1.4-.47-2.4-1.2-3.2-2.22-.8-1-1.4-2.3-1.7-3.9-.4-1.57-.5-3.47-.5-5.7v-35.7h-12v-4h18.4v37.56c0 2.02 0 3.67.2 4.95.1 1.2.4 2.2.9 3a3.35 3.35 0 0 0 1.9 1.4c.8.2 1.9.4 3.3.4 2.7 0 5.5-.9 8.6-2.5v4.5zm37.7-29.37v26.3c0 1.52-.1 3.04-.1 4.55a24.47 24.47 0 0 1-.6 4.34 15.22 15.22 0 0 1-1.4 3.88c-.7 1.2-1.5 2.23-2.7 3.1-1.2.88-2.6 1.58-4.3 2.1-1.8.5-3.9.75-6.4.75-1.9 0-3.9-.14-6.1-.44-2.2-.2-4.4-.8-6.7-1.7v-8h4l.8 4.5c.4.2 1 .5 1.6.7.6.3 1.3.4 1.9.6.7.2 1.4.3 2.1.4.7.1 1.4.2 2.2.2 1.4 0 2.7-.1 3.7-.5 1-.3 1.8-.8 2.5-1.4a6.22 6.22 0 0 0 1.5-2.1c.3-.8.6-1.7.8-2.7.2-1 .3-2 .3-3.1V473c-1.7 2.44-3.2 4.25-4.7 5.4-2.3 1.76-4.7 2.6-7.2 2.6-3.6 0-6.5-1.54-8.7-4.7-2.2-3.1-3.3-6.72-3.3-11 0-2.7.3-5.06 1-7.16.7-2.1 1.8-4.03 3.3-5.8 2.9-3.57 6.9-5.35 12.1-5.35 1.5 0 2.8.1 3.9.2 1.2.1 2.4.3 3.5.5H257v4h-3.84zm-6.5.78a88.8 88.8 0 0 0-4-.5c-1.2-.1-2.2-.2-3-.2-3.6 0-6.2 1.2-7.8 3.5-.8 1.2-1.4 2.6-1.8 4.1-.4 1.6-.6 3.4-.6 5.6 0 7.3 2.3 10.9 6.9 10.9 3.6 0 6.9-2.5 10.1-7.6v-15.6zm48.4 14.1H270c.3 3 .76 5.1 1.35 6.4 1.95 4.5 5.8 6.7 11.44 6.7 3.5 0 7.3-1.1 11.3-3.4v4.9c-3.8 1.9-7.9 2.9-12.2 2.9-5.7 0-10.2-1.7-13.7-5.1-3.5-3.4-5.2-8-5.2-13.6 0-5.4 1.6-9.8 4.8-13.1 3.2-3.3 7.4-5 12.6-5 9.7 0 14.5 5.9 14.5 17.7v2zm-25.1-4h18.2v-1.5c0-6.7-2.7-10.1-8.1-10.1-3.4 0-6 1.4-7.8 4-1.3 1.9-2.1 4.4-2.4 7.7zm31.8 20.5v-4h3.6v-27.3h-3.9v-4H312v6.9c1.5-2.2 2.98-4 4.46-5.1 2.02-1.6 4.4-2.5 7-2.5 6.5 0 9.8 4.2 9.8 12.7v19.5h3.9v4h-10.3v-23c0-5.6-1.8-8.4-5.3-8.4-3.3 0-6.5 2.8-9.6 8.4v18.9h3.25v4H302z"/><path fill="#ff00e3" d="M382.68 482.68v-31.32h-2.4v-4.04h8.22v7.07c1.46-3.1 2.65-5.1 3.6-6.1 1.1-1.2 2.5-1.8 4.15-1.8 2.17 0 3.76 1 4.76 3 .6 1.1.9 2.7 1.2 4.8.9-2.5 1.9-4.3 2.9-5.4 1.5-1.7 3.2-2.5 5.1-2.5 4.1 0 6.1 2.9 6.1 8.9v23.2h2.3v4h-8.1v-24.4c0-4.6-.7-6.9-2.1-6.9-1 0-2.2.9-3.5 2.8-.7 1-1.2 2-1.5 2.9-.5 1.4-.8 2.4-.8 2.9v18.5h2.3v4h-8.1v-25.9c0-3.6-.7-5.4-2.1-5.4-1.9 0-3.8 2.9-5.9 8.8v18.5h2.3v4H383zm41.57 0v-4h12.7v-27.32h-12.7v-4.04h19.1v31.35h12.05v4h-31.15zm11.72-43.36v-8.04h7.88v8.04h-7.88zm57.46 12v26.3c0 1.53-.03 3.05-.08 4.56a24.38 24.38 0 0 1-.54 4.34 15.22 15.22 0 0 1-1.4 3.88c-.6 1.2-1.5 2.23-2.6 3.1-1.1.88-2.6 1.58-4.3 2.1-1.7.5-3.9.75-6.4.75-1.8 0-3.9-.14-6.1-.44-2.2-.2-4.4-.8-6.6-1.7v-8h4l.9 4.5c.5.2 1 .5 1.6.7a19.2 19.2 0 0 0 2 .6c.7.2 1.4.3 2.2.4.8.1 1.5.2 2.2.2 1.5 0 2.7-.1 3.7-.5 1-.3 1.9-.8 2.5-1.4a6.22 6.22 0 0 0 1.5-2.1c.4-.8.7-1.7.8-2.7.2-1 .3-2 .3-3.1.1-1.1.1-2.2.1-3.4V473c-1.6 2.44-3.2 4.25-4.7 5.4-2.2 1.76-4.6 2.6-7.2 2.6-3.5 0-6.4-1.54-8.6-4.7-2.2-3.1-3.3-6.72-3.3-11 0-2.7.4-5.06 1.1-7.16.7-2.1 1.8-4.03 3.3-5.8 2.9-3.57 7-5.35 12.2-5.35 1.5 0 2.8.1 3.9.2 1.2.1 2.3.3 3.5.5h10.3v4h-3.9zm-6.45.8a89 89 0 0 0-3.97-.56c-1.1-.13-2.1-.2-2.9-.2-3.6 0-6.1 1.16-7.8 3.48-.8 1.18-1.4 2.53-1.8 4.07-.4 1.6-.6 3.4-.6 5.6 0 7.3 2.4 10.9 7 10.9 3.6 0 7-2.5 10.1-7.6v-15.6zm29.73 7.7v18.86h11.8v4h-26.3v-4h8.2v-27.32H502v-4.04h14.8v6.87c1.6-2.3 3.17-4.1 4.6-5.2 2.1-1.7 4.36-2.5 6.77-2.5 2.55 0 5 .7 7.4 2.2v9.6h-4.04l-.65-5.1c-1.2-.8-2.5-1.2-3.83-1.2-4 0-7.4 2.5-10.2 7.7zm49.9 19c-3.7 3.1-7.5 4.67-11.4 4.67-3.3 0-5.9-1-7.9-2.8-1.9-1.9-2.9-4.4-2.9-7.6 0-4.1 1.6-7.1 4.6-9 3.1-1.9 8.1-2.8 15-2.8h2.8v-5.5c0-3.6-2.2-5.4-6.6-5.4-2.2 0-5 .6-8.4 1.9l-.8 4.1h-4v-7c5-2 10.1-3.1 15.2-3.1 4.1 0 7 .7 8.6 2.1 1.6 1.4 2.5 3.9 2.5 7.4v22.6h4.5v4h-10.2l-.6-3.9zm0-4.9v-8.53h-1.7c-5 0-8.5.5-10.6 1.7-2.1 1.1-3.1 3.2-3.1 6.3 0 3.8 2 5.7 6.1 5.7 3.2 0 6.4-1.8 9.5-5.3zm46.5 6.77c-3.6 1.8-7.2 2.8-10.9 2.8-3.5 0-6-.9-7.5-2.5s-2.2-4.3-2.2-8.1v-20.4h-9V448h9.1v-9h6.4v9.14h13.9v4.43H599v17.48c0 3.47.35 5.77 1.04 6.9.7 1.15 2.05 1.73 4.1 1.73 2.3 0 5.3-.84 9.07-2.5v4.5zm42.4-14.5h-25.1c.3 2.9.8 5 1.3 6.3 2 4.4 5.8 6.6 11.5 6.6 3.5 0 7.3-1.2 11.4-3.4v4.8c-3.7 1.9-7.8 2.8-12.2 2.8-5.6 0-10.1-1.8-13.6-5.2-3.4-3.5-5.1-8-5.1-13.6 0-5.5 1.6-9.8 4.8-13.2 3.2-3.4 7.4-5 12.7-5 9.7 0 14.5 5.9 14.5 17.7v2zm-25-4h18.2v-1.5c0-6.8-2.7-10.2-8.1-10.2-3.3 0-5.9 1.3-7.7 4-1.3 1.8-2 4.4-2.3 7.6z"/><path fill="#ff1d00" d="M702.73 460.18h33.56V465h-33.6zm72.92 21c-3.5 1.54-7.8 2.3-12.82 2.3-6.15 0-10.98-1.7-14.5-5.13-3.48-3.43-5.23-8-5.23-13.74 0-5.6 1.7-10 5.14-13.2 3.4-3.2 8.23-4.8 14.46-4.8 4.62 0 8.8.6 12.53 1.8v10.1h-4.04l-1.2-6.4c-2.6-.9-5.2-1.4-7.7-1.4-3.9 0-6.9 1.3-9.2 3.9-2.1 2.6-3.1 6-3.1 10.3 0 4.8 1.1 8.4 3.5 10.9 2.5 2.5 6 3.7 10.5 3.7 3.6 0 7.5-.8 11.5-2.6v4.6z"/><path fill="#262626" d="M843.43 447.32h10.06v31.35h4v4H847v-6.8c-1.5 2.28-3 4-4.46 5.15-2.1 1.65-4.43 2.47-7 2.47-6.57 0-9.84-4.3-9.84-12.7v-19.5h-4v-4.1h10.44v23c0 5.5 1.77 8.3 5.3 8.3 3.24 0 6.42-2.8 9.55-8.4v-18.9h-3.6v-4zm21.75 33.37V471h4l.82 5.95c4.25 1.65 7.87 2.48 10.84 2.48 5.16 0 7.75-1.83 7.75-5.47 0-1.44-.5-2.55-1.4-3.33-.9-.8-2.4-1.5-4.7-2.1l-6.7-1.74c-3.7-1-6.4-2.3-8.1-3.9-1.7-1.6-2.5-3.6-2.5-6.2 0-6.9 4.7-10.3 14-10.3 4.8 0 9.2.8 13.1 2.3v9.3h-4l-.8-5.9c-2.4-1.2-5.2-1.7-8.3-1.7-2.4 0-4.3.3-5.6 1.1-1.6.9-2.3 2.2-2.3 4.1 0 2.4 2.2 4.2 6.7 5.4l6.6 1.7c3.6.9 6.2 2.1 7.8 3.6 1.6 1.4 2.3 3.4 2.3 5.9 0 3.4-1.4 6.1-4 8-2.7 1.9-6.4 2.9-11.2 2.9-4.9 0-9.8-1-14.6-2.8zm70.35-14.5h-25.1c.3 2.9.75 5 1.34 6.3 1.97 4.4 5.8 6.6 11.46 6.6 3.5 0 7.28-1.2 11.36-3.4v4.8c-3.8 1.9-7.9 2.8-12.3 2.8-5.6 0-10.2-1.8-13.7-5.2s-5.2-8-5.2-13.6c0-5.5 1.6-9.8 4.8-13.2 3.2-3.4 7.4-5 12.7-5 9.6 0 14.5 5.9 14.5 17.7v2zm-25.03-4h18.2v-1.5c0-6.8-2.7-10.2-8.1-10.2-3.35 0-5.93 1.3-7.76 4-1.28 1.8-2.06 4.4-2.34 7.6zm46.32-2.4v18.8h11.72v4h-26.27v-4h8.14v-27.3H942v-4.1h14.84v6.8c1.6-2.3 3.14-4.1 4.6-5.2 2.08-1.7 4.32-2.5 6.73-2.5 2.56 0 5.04.7 7.43 2.2v9.6h-4.04l-.65-5.1c-1.2-.8-2.5-1.2-3.8-1.2-4 0-7.4 2.6-10.2 7.7zm39.04-2.4v-10.9h10.94v10.9h-10.94zm0 25.2v-10.9h10.94v10.9h-10.94zm36.2 8.8h8.04v4h-18.5v-4h4v-40.1h-4v-4.1h10.46v7.2c1.63-2.4 3.2-4.2 4.75-5.4 2.3-1.8 4.6-2.6 7.2-2.6 3.6 0 6.5 1.5 8.7 4.6 2.2 3.1 3.3 7.2 3.3 12.3 0 6.2-1.4 11.1-4.4 14.6-2.9 3.6-6.9 5.4-12 5.4-1.9 0-4.4-.3-7.5-.8v8.8zm0-13.6c2.95.5 5.25.7 6.9.7 3.63 0 6.23-1.2 7.82-3.5 1.58-2.3 2.37-6.2 2.37-11.7 0-8.1-2.32-12.2-6.97-12.2-3.55 0-6.93 2.6-10.12 8v18.5zm54.7.8c-3.76 3.1-7.57 4.7-11.44 4.7-3.32 0-5.97-1-7.94-2.8-1.98-1.9-2.96-4.4-2.96-7.6 0-4.1 1.54-7.1 4.62-9 3.08-1.9 8.06-2.8 14.94-2.8h2.77v-5.5c0-3.6-2.2-5.4-6.64-5.4-2.2 0-5 .6-8.3 1.9l-.8 4.1h-4v-7c5-2 10.1-3.1 15.2-3.1 4.1 0 7 .7 8.6 2.1 1.7 1.4 2.5 3.9 2.5 7.4v22.6h4.5v4h-10.2l-.6-3.9zm0-4.9v-8.5H1085c-5 0-8.54.5-10.64 1.7-2.1 1.1-3.13 3.2-3.13 6.3 0 3.8 2.02 5.7 6.06 5.7 3.2 0 6.3-1.8 9.4-5.3zm18.48 6.8V471h4l.82 5.95c4.25 1.65 7.87 2.48 10.84 2.48 5.16 0 7.75-1.83 7.75-5.47 0-1.44-.44-2.55-1.3-3.33-.87-.8-2.42-1.5-4.66-2.1l-6.7-1.74c-3.7-1-6.4-2.3-8.1-3.9-1.7-1.6-2.5-3.6-2.5-6.2 0-6.9 4.7-10.3 14-10.3 4.8 0 9.1.8 13.1 2.3v9.3h-4.1l-.8-5.9c-2.4-1.2-5.2-1.7-8.3-1.7-2.4 0-4.3.3-5.6 1.1-1.6.9-2.4 2.2-2.4 4.1 0 2.4 2.2 4.2 6.7 5.4l6.6 1.7c3.6.9 6.2 2.1 7.8 3.6 1.5 1.4 2.3 3.4 2.3 5.9 0 3.4-1.4 6.1-4 8-2.7 1.9-6.4 2.9-11.2 2.9-4.9 0-9.8-1-14.6-2.8zm40.02 0V471h4l.82 5.95c4.25 1.65 7.87 2.48 10.84 2.48 5.16 0 7.75-1.83 7.75-5.47 0-1.44-.44-2.55-1.3-3.33-.87-.8-2.42-1.5-4.66-2.1l-6.6-1.74c-3.7-1-6.4-2.3-8.1-3.9-1.7-1.6-2.5-3.6-2.5-6.2 0-6.9 4.7-10.3 14.1-10.3 4.8 0 9.2.8 13.1 2.3v9.3h-4l-.8-5.9c-2.3-1.2-5.1-1.7-8.3-1.7-2.4 0-4.2.3-5.5 1.1-1.5.9-2.3 2.2-2.3 4.1 0 2.4 2.3 4.2 6.7 5.4l6.6 1.7c3.7.9 6.3 2.1 7.9 3.6 1.6 1.4 2.4 3.4 2.4 5.9 0 3.4-1.3 6.1-4 8-2.6 1.9-6.4 2.9-11.1 2.9-4.9 0-9.8-1-14.6-2.8z"/><path d="M1210.4 482.3c-3.28 1.05-6.03 1.58-8.27 1.58-6 0-10.76-2.2-14.32-6.6-3.5-4.4-5.3-10.4-5.3-18 0-7.7 1.8-13.97 5.3-18.8 3.5-4.8 8.2-7.2 13.9-7.2 8.6 0 12.8 5.17 12.8 15.48v20.44h3.9v4h-7.8v-11.94h-.8c-.8 3.45-1.9 6.18-3.4 8.2-1.8 2.65-4 3.97-6.3 3.97-2.2 0-4.1-1.12-5.5-3.38-1.5-2.26-2.2-5.15-2.2-8.66 0-4.8 1.2-8.8 3.7-12.1 2.5-3.3 5.5-5 9.1-5 1.4 0 3.1.3 5.2.8-.6-3-1.7-5-3.3-6.2-1.4-1.1-3.2-1.7-5.5-1.7-4.4 0-8 1.9-10.7 5.9-2.7 4-4.1 9.2-4.1 15.6s1.5 11.5 4.3 15.3c2.9 3.8 6.7 5.7 11.5 5.7 2.6 0 5.3-.7 8.2-2.1v4.5zm0-29.8v-3.6c-1.8-1.05-3.44-1.57-4.92-1.57-2.62 0-4.7 1.2-6.2 3.64-1.55 2.43-2.32 5.7-2.32 9.77 0 2.36.33 4.3 1 5.83.66 1.5 1.48 2.24 2.48 2.24 1.52 0 3.08-1.3 4.7-4 1.55-2.6 3.3-6.7 5.26-12.2zm45.54 28.2c-3.6 1.86-7.25 2.8-10.94 2.8-2 0-3.66-.24-5-.7-1.33-.47-2.4-1.2-3.2-2.22-.78-1-1.34-2.3-1.68-3.9-.34-1.57-.5-3.47-.5-5.7v-35.7h-12.05v-4h18.46v37.56c0 2.02.08 3.67.23 4.95.15 1.2.45 2.2.9 3a3.36 3.36 0 0 0 1.9 1.4c.82.2 1.92.4 3.3.4 2.68 0 5.54-.9 8.58-2.5v4.5zm23.7-34.16c5.1 0 9.1 1.64 12 4.92 2.94 3.28 4.4 7.78 4.4 13.5 0 5.83-1.46 10.36-4.4 13.62-2.92 3.28-7 4.9-12.26 4.9-4.45 0-8.07-1.34-10.87-4.06-3.5-3.36-5.2-8.17-5.2-14.42 0-5.75 1.5-10.26 4.4-13.54 3-3.28 6.9-4.92 12-4.92zm0 4c-6.3 0-9.44 4.8-9.44 14.4 0 9.7 3.15 14.55 9.44 14.55 6.32 0 9.47-4.9 9.47-14.6 0-9.6-3.1-14.4-9.4-14.4zm56.16 30.64c-3.52 1.54-7.8 2.3-12.83 2.3-6.14 0-10.97-1.7-14.48-5.13-3.5-3.43-5.3-8-5.3-13.74 0-5.6 1.7-10 5.1-13.2 3.4-3.2 8.2-4.8 14.4-4.8 4.6 0 8.8.6 12.5 1.8v10.1h-4.1l-1.1-6.4c-2.7-.9-5.2-1.4-7.7-1.4-3.9 0-6.9 1.3-9.1 3.9-2.1 2.6-3.2 6-3.2 10.3 0 4.8 1.2 8.4 3.5 10.9 2.5 2.5 6 3.7 10.5 3.7 3.6 0 7.5-.8 11.5-2.6v4.6zm31.03-2.37c-3.75 3.2-7.56 4.7-11.43 4.7-3.32 0-5.97-.9-7.94-2.8-1.98-1.8-2.96-4.3-2.96-7.5 0-4.1 1.54-7.1 4.62-9 3.08-1.8 8.06-2.7 14.94-2.7h2.77V456c0-3.6-2.2-5.38-6.64-5.38-2.3 0-5.1.63-8.4 1.9l-.8 4.1h-4v-7c4.9-2.03 10-3.04 15.2-3.04 4.1 0 6.9.73 8.6 2.14 1.6 1.4 2.4 3.9 2.4 7.4v22.63h4.4v4h-10.2l-.7-3.87zm0-4.8v-8.5h-1.73c-5 0-8.54.6-10.64 1.7-2.08 1.1-3.13 3.3-3.13 6.4 0 3.9 2.02 5.8 6.06 5.8 3.1 0 6.3-1.7 9.4-5.3zm49.16 6.8c-3.6 1.9-7.3 2.8-11 2.8-2 0-3.7-.2-5-.7-1.4-.4-2.4-1.2-3.2-2.2-.8-1-1.4-2.3-1.7-3.9-.4-1.6-.5-3.5-.5-5.7v-35.7h-12.1v-4h18.5V469c0 2 0 3.67.2 4.95.1 1.26.4 2.26.9 3 .4.7 1 1.2 1.9 1.44.8.2 1.9.4 3.3.4 2.7 0 5.5-.9 8.6-2.5v4.5zm6.3 2v-4h3.6v-43.4h-4v-4h10.4v22.9c1.5-2.3 2.9-4 4.4-5.1 2.1-1.6 4.4-2.5 7-2.5 6.5 0 9.8 4.2 9.8 12.7v19.5h4v4H1447v-23c0-5.5-1.8-8.3-5.3-8.3-3.3 0-6.47 2.8-9.57 8.4v18.9h3.6v4h-13.63zm57.3-36.1c5.1 0 9.1 1.7 12 4.9 2.9 3.3 4.4 7.8 4.4 13.5 0 5.9-1.5 10.4-4.4 13.6-3 3.3-7 4.9-12.3 4.9-4.5 0-8.1-1.3-10.9-4-3.5-3.3-5.3-8.1-5.3-14.4 0-5.7 1.4-10.2 4.4-13.5 2.9-3.3 6.9-4.9 12-4.9zm0 4c-6.3 0-9.5 4.8-9.5 14.4 0 9.7 3.1 14.6 9.4 14.6 6.3 0 9.4-4.8 9.4-14.5 0-9.6-3.2-14.4-9.5-14.4zm25.6 30.2V471h4l.8 5.95c4.2 1.65 7.8 2.48 10.8 2.48 5.1 0 7.7-1.83 7.7-5.47 0-1.44-.5-2.55-1.3-3.33-.9-.8-2.5-1.5-4.7-2.1l-6.7-1.74c-3.7-1-6.4-2.3-8.1-3.9-1.7-1.6-2.5-3.6-2.5-6.2 0-6.9 4.6-10.3 14-10.3 4.8 0 9.1.8 13.1 2.3v9.3h-4l-.8-5.9c-2.4-1.2-5.2-1.7-8.3-1.7-2.4 0-4.3.3-5.6 1.1-1.6.9-2.4 2.2-2.4 4.1 0 2.4 2.2 4.2 6.7 5.4l6.6 1.7c3.6.9 6.2 2.1 7.8 3.6 1.5 1.4 2.3 3.4 2.3 5.9 0 3.4-1.4 6.1-4 8-2.7 1.9-6.4 2.9-11.2 2.9-4.9 0-9.8-1-14.7-2.8zm68 0c-3.6 1.9-7.3 2.8-11 2.8-3.5 0-6-.8-7.5-2.4-1.5-1.6-2.3-4.3-2.3-8.1v-20.4h-9.1v-4.4h9V439h6.4v9.14h13.9v4.43H1559v17.48c0 3.47.35 5.77 1.04 6.9.7 1.15 2.08 1.73 4.15 1.73 2.3 0 5.3-.84 9.1-2.5v4.5zm22.7-23.2v-11h10.9v11H1596zm0 25.2v-11h10.9v11H1596zm29.7-.3v-12.2h4l.8 8c1.8 1.2 4.1 1.7 6.6 1.7 3.3 0 6-.9 7.9-2.8 2-1.9 2.9-4.4 2.9-7.7 0-6.9-4.5-10.3-13.6-10.3h-4.4v-4h3.7c8.5 0 12.8-3.2 12.8-9.7 0-2.4-.8-4.4-2.4-5.8-1.6-1.4-3.7-2.2-6.5-2.2-2.6 0-4.8.4-6.6 1.3l-.4 6.8h-4V435c4.2-1.14 8-1.72 11.6-1.72 9.8 0 14.7 3.82 14.7 11.48 0 3.54-1.1 6.4-3.4 8.57-1.4 1.28-3.4 2.4-5.9 3.35 2.3.67 4 1.38 5.2 2.12 3.9 2.4 5.8 6.03 5.8 10.87 0 4.2-1.5 7.62-4.5 10.24-3 2.7-7 4-11.9 4-3.4 0-6.7-.3-10-.9l-2.8-.5zm40 0v-12.2h4l.8 8c1.8 1.2 4.1 1.7 6.6 1.7 3.3 0 5.9-.9 7.9-2.8 1.9-1.9 2.9-4.4 2.9-7.7 0-6.9-4.5-10.3-13.6-10.3h-4.4v-4h3.7c8.5 0 12.8-3.2 12.8-9.7 0-2.4-.8-4.4-2.4-5.8-1.6-1.4-3.7-2.2-6.5-2.2-2.6 0-4.8.4-6.6 1.3l-.4 6.8h-4V435c4.1-1.14 8-1.72 11.6-1.72 9.8 0 14.8 3.82 14.8 11.48 0 3.54-1.2 6.4-3.4 8.57-1.4 1.28-3.4 2.4-6 3.35 2.3.67 4 1.38 5.2 2.12 3.9 2.4 5.8 6.03 5.8 10.87 0 4.2-1.5 7.62-4.5 10.24-3 2.7-7 4-11.9 4-3.4 0-6.7-.3-10-.9l-2.8-.5zm54-49c5.2 0 9.3 2.3 12.3 6.8s4.5 10.7 4.5 18.5c0 8-1.5 14.2-4.5 18.7-3.1 4.5-7.3 6.8-12.6 6.8-4.6 0-8.3-1.8-11.2-5.5-3.6-4.6-5.5-11.3-5.5-19.8 0-7.8 1.5-14 4.5-18.5s7.1-6.7 12.3-6.7zm-7.4 41c1.7 3.7 4.1 5.6 7.3 5.6 6.6 0 10-7.1 10-21.3 0-2.9-.2-5.5-.5-7.8l-18.2 19.7c.4 1.5.8 2.7 1.3 3.9zm7.3-37c-3.2 0-5.6 1.9-7.4 5.6-1.7 3.7-2.6 9-2.6 15.7 0 3 .1 5.6.4 7.9l18.2-19.7c-.4-1.4-.9-2.7-1.4-3.9-1.7-3.6-4.2-5.5-7.4-5.5zm30.9 20.2c1.3-1.9 2.8-3.3 4.3-4.2 2.2-1.4 4.8-2.1 7.7-2.1 4.1 0 7.4 1.5 10 4.4 2.5 2.9 3.8 6.7 3.8 11.4 0 5-1.5 9.1-4.5 12.3-3 3.2-6.8 4.8-11.5 4.8-5.3 0-9.4-2.1-12.4-6.4s-4.5-10.2-4.5-17.8c0-8.3 1.7-14.8 5.3-19.4 3.5-4.6 8.4-6.8 14.7-6.8 2.8 0 6.3.8 10.6 2.3v10h-4l-.8-6.8c-1.9-1.2-3.8-1.8-5.8-1.8-4.7 0-8.2 2.4-10.6 7.1-1.7 3.3-2.5 7.68-2.6 13.2zm10.8-2.1c-2.9 0-5.4 1.1-7.4 3.4-2 2.2-3 5-3 8.4 0 3.5 1 6.5 3 9.1 2 2.5 4.4 3.8 7.3 3.8 2.4 0 4.3-.9 5.8-2.6 1.8-2.1 2.8-5.4 2.8-9.7 0-8.1-2.9-12.2-8.6-12.2z"/><path fill="#ff0400" d="M1823.03 460.18h33.56V465H1823zm64.33-24.9h-8v-4h14.45v47.4h4v4h-10.4v-7.23c-1.6 2.4-3.2 4.22-4.7 5.44-2.2 1.7-4.6 2.6-7.2 2.6-3.6 0-6.4-1.6-8.7-4.7-2.2-3.1-3.3-7.2-3.3-12.4 0-6.2 1.5-11.1 4.4-14.6 2.9-3.6 7-5.4 12.1-5.4 1.9 0 4.4.2 7.4.8v-12zm0 16.24c-2.95-.47-5.26-.7-6.93-.7-3.6 0-6.18 1.15-7.8 3.47-1.57 2.3-2.36 6.2-2.36 11.9 0 8.2 2.32 12.4 6.97 12.4 3.56 0 6.93-2.6 10.12-7.6v-19.5z"/><path fill="#262626" d="M1943.1 482.68v-31.32h-2.42v-4.04h8.24v7.07c1.45-3.1 2.64-5.1 3.58-6.1 1.13-1.2 2.52-1.8 4.16-1.8 2.18 0 3.76 1 4.76 3 .52 1.1.9 2.7 1.14 4.8.9-2.5 1.87-4.3 2.9-5.4 1.43-1.7 3.12-2.5 5.07-2.5 4.06 0 6.1 2.9 6.1 8.9v23.2h2.27v4h-8.1v-24.4c0-4.6-.7-6.9-2.12-6.9-1.04 0-2.2.9-3.5 2.8-.66 1-1.18 2-1.55 2.9-.56 1.4-.84 2.4-.84 2.9v18.5h2.2v4h-8.1v-25.9c0-3.6-.7-5.4-2.2-5.4-1.9 0-3.9 2.9-5.9 8.8v18.5h2.3v4h-8.1zm53.48 0l-12.53-31.32h-2.4v-4.04h14.54v4.04h-5.3l10.1 25.34 10.1-25.4h-5.2v-4.07h12v4.04h-2.4L2003 482.6l-3.52 8.8h4.82v4h-15.6v-4.05h6.45l3.5-8.84h-2.17zm26.5-22.5h33.56V465h-33.56zm64.33-24.9h-8v-4h14.5v47.4h4v4h-10.4v-7.23c-1.6 2.4-3.2 4.22-4.7 5.44-2.2 1.7-4.6 2.6-7.2 2.6-3.6 0-6.5-1.6-8.7-4.7-2.2-3.1-3.3-7.2-3.3-12.4 0-6.2 1.5-11.1 4.4-14.6 2.9-3.6 7-5.4 12.1-5.4 1.9 0 4.4.2 7.5.8v-12zm0 16.24c-2.9-.47-5.2-.7-6.9-.7-3.6 0-6.2 1.15-7.8 3.47-1.5 2.3-2.3 6.2-2.3 11.9 0 8.2 2.3 12.4 7 12.4 3.6 0 7-2.6 10.2-7.6v-19.5zm25 31.16h-6.4v-47.4h-4v-4h10.5v23.27c1.7-2.4 3.2-4.2 4.8-5.4 2.3-1.74 4.6-2.6 7.2-2.6 3.6 0 6.5 1.54 8.7 4.65 2.2 3.12 3.3 7.24 3.3 12.34 0 6.2-1.4 11.08-4.4 14.6-2.9 3.57-6.9 5.35-12 5.35-1.9 0-4.4-.3-7.5-.9zm0-4.2c3 .5 5.3.75 6.9.75 3.7 0 6.3-1.16 7.8-3.48 1.6-2.33 2.4-6.3 2.4-11.9 0-8.06-2.3-12.1-6.9-12.1-3.5 0-6.9 2.54-10.1 7.62v19.1z"/><path fill="#ff0002" d="M2183.12 460.18h33.56V465h-33.56zm56.78-13.64c5.1 0 9.1 1.64 12 4.92 2.94 3.28 4.4 7.78 4.4 13.5 0 5.83-1.46 10.36-4.4 13.62-2.92 3.28-7 4.9-12.26 4.9-4.45 0-8.07-1.34-10.87-4.06-3.5-3.36-5.25-8.17-5.25-14.42 0-5.75 1.47-10.26 4.4-13.54 2.93-3.28 6.92-4.92 11.98-4.92zm0 4c-6.3 0-9.44 4.8-9.44 14.4 0 9.7 3.15 14.55 9.44 14.55 6.32 0 9.47-4.9 9.47-14.6 0-9.6-3.15-14.4-9.47-14.4z"/><path fill="#262626" d="M2303.2 482.68v-31.32h-2.42v-4.04h8.24v7.07c1.45-3.1 2.65-5.1 3.58-6.1 1.13-1.2 2.52-1.8 4.17-1.8 2.17 0 3.75 1 4.75 3 .52 1.1.9 2.7 1.14 4.8.9-2.5 1.88-4.3 2.9-5.4 1.43-1.7 3.12-2.5 5.08-2.5 4.05 0 6.08 2.9 6.08 8.9v23.2h2.28v4h-8.1v-24.4c0-4.6-.7-6.9-2.12-6.9-1.04 0-2.2.9-3.48 2.8-.68 1-1.2 2-1.57 2.9-.56 1.4-.84 2.4-.84 2.9v18.5h2.2v4h-8.1v-25.9c0-3.6-.7-5.4-2.2-5.4-1.9 0-3.9 2.9-5.9 8.8v18.5h2.3v4h-8.1zm56.73-36.14c5.1 0 9.1 1.64 12 4.92 2.94 3.28 4.4 7.78 4.4 13.5 0 5.83-1.46 10.36-4.4 13.62-2.92 3.28-7 4.9-12.26 4.9-4.45 0-8.08-1.34-10.87-4.06-3.5-3.36-5.25-8.17-5.25-14.42 0-5.75 1.47-10.26 4.4-13.54 2.93-3.28 6.92-4.92 11.98-4.92zm0 4c-6.3 0-9.44 4.8-9.44 14.4 0 9.7 3.1 14.55 9.4 14.55 6.3 0 9.4-4.9 9.4-14.6 0-9.6-3.2-14.4-9.5-14.4zm47.56-15.26h-8.1v-4h14.4v47.4h4v4h-10.5v-7.23c-1.7 2.4-3.2 4.22-4.8 5.44-2.2 1.7-4.6 2.6-7.2 2.6-3.6 0-6.5-1.6-8.7-4.7-2.2-3.1-3.3-7.2-3.3-12.4 0-6.2 1.4-11.1 4.4-14.6 2.9-3.6 6.9-5.4 12.1-5.4 1.9 0 4.3.2 7.4.8v-12zm0 16.24c-3-.47-5.3-.7-7-.7-3.6 0-6.2 1.15-7.8 3.47-1.6 2.3-2.4 6.2-2.4 11.9 0 8.2 2.3 12.4 6.9 12.4 3.5 0 6.9-2.6 10.1-7.6v-19.5zm48.4 14.7h-25.1c.3 2.92.7 5.03 1.3 6.33 2 4.45 5.8 6.68 11.4 6.68 3.5 0 7.3-1.14 11.3-3.42v4.9c-3.8 1.9-7.9 2.9-12.2 2.9-5.7 0-10.2-1.7-13.7-5.1-3.5-3.4-5.2-8-5.2-13.6 0-5.4 1.6-9.8 4.8-13.2 3.2-3.3 7.4-5 12.6-5 9.6 0 14.5 5.9 14.5 17.7v2zm-25.1-4.02h18.2v-1.5c0-6.77-2.7-10.15-8.1-10.15-3.4 0-6 1.33-7.8 4-1.3 1.87-2.1 4.42-2.4 7.65zm65.3 18.5c-3.6 1.86-7.3 2.8-11 2.8-2 0-3.7-.24-5-.7-1.4-.47-2.4-1.2-3.2-2.22-.8-1-1.4-2.3-1.7-3.9-.4-1.57-.5-3.47-.5-5.7v-35.7h-12.1v-4h18.4v37.56c0 2.02.1 3.67.2 4.95.1 1.2.4 2.2.9 3 .4.7 1.1 1.2 1.9 1.4.8.2 1.9.4 3.3.4 2.7 0 5.5-.9 8.6-2.5v4.5zm9.3 0v-9.67h4l.8 5.95c4.2 1.65 7.8 2.48 10.8 2.48 5.1 0 7.7-1.83 7.7-5.47 0-1.5-.5-2.6-1.3-3.4-.9-.8-2.5-1.5-4.7-2.1l-6.7-1.8c-3.7-1-6.4-2.3-8.1-3.9-1.7-1.6-2.5-3.6-2.5-6.2 0-6.9 4.7-10.3 14.1-10.3 4.8 0 9.2.8 13.1 2.3v9.3h-4l-.8-5.9c-2.4-1.2-5.2-1.7-8.3-1.7-2.4 0-4.3.3-5.6 1.1-1.6.8-2.4 2.2-2.4 4.1 0 2.4 2.2 4.2 6.7 5.4l6.6 1.7c3.6.9 6.3 2.1 7.8 3.6 1.6 1.4 2.3 3.4 2.3 5.9 0 3.4-1.3 6.1-4 8-2.7 2-6.4 2.9-11.2 2.9-4.9 0-9.8-1-14.6-2.8z"/></g><g fill-rule="nonzero"><path fill="#f4f6f9" d="M1.53 120.7H2562.2v77.03H1.54z"/><path fill="#262626" d="M4.8 183.68v-31.32H2.37v-4.03h8.23v7.06c1.47-3.1 2.66-5.1 3.6-6.1 1.12-1.2 2.5-1.8 4.16-1.8 2.17 0 3.76 1 4.76 3 .52 1.1.9 2.7 1.13 4.8.92-2.5 1.88-4.3 2.9-5.4 1.44-1.7 3.13-2.5 5.08-2.5 4.06 0 6.1 2.9 6.1 8.9v23.2h2.27v4h-8.1v-24.4c0-4.6-.7-6.9-2.12-6.9-1.05 0-2.2.9-3.5 2.8-.66 1-1.18 2-1.55 2.9-.56 1.4-.85 2.4-.85 2.9v18.5h2.28v4h-8.1v-25.9c0-3.6-.72-5.4-2.15-5.4-1.8 0-3.8 2.9-5.9 8.8v18.5h2.3v4H4.8zm56.73-36.14c5.1 0 9.1 1.64 12 4.92 2.94 3.28 4.4 7.78 4.4 13.5 0 5.83-1.46 10.36-4.4 13.62-2.92 3.27-7 4.9-12.26 4.9-4.45 0-8.07-1.34-10.87-4.06-3.5-3.36-5.24-8.17-5.24-14.42 0-5.75 1.46-10.26 4.4-13.54 2.92-3.28 6.9-4.92 11.97-4.92zm0 4c-6.3 0-9.44 4.8-9.44 14.4 0 9.7 3.1 14.55 9.4 14.55 6.3 0 9.4-4.9 9.4-14.6 0-9.6-3.2-14.4-9.5-14.4zm47.56-15.26h-8v-4h14.4v47.4h4v4h-10.4v-7.23c-1.7 2.4-3.2 4.22-4.8 5.44-2.2 1.7-4.6 2.6-7.2 2.6-3.6 0-6.5-1.6-8.7-4.7-2.3-3.1-3.4-7.2-3.4-12.4 0-6.2 1.4-11.1 4.4-14.6 2.9-3.6 6.9-5.4 12.1-5.4 1.9 0 4.3.2 7.4.8v-12zm0 16.24c-3-.47-5.3-.7-7-.7-3.6 0-6.2 1.15-7.8 3.47-1.6 2.3-2.4 6.2-2.4 11.9 0 8.2 2.3 12.4 6.9 12.4 3.5 0 6.9-2.6 10.1-7.6v-19.5zm48.4 14.7h-25.1c.3 2.92.7 5.03 1.3 6.33 2 4.45 5.8 6.68 11.4 6.68 3.5 0 7.3-1.14 11.3-3.42v4.9c-3.8 1.9-7.9 2.9-12.2 2.9-5.7 0-10.2-1.7-13.7-5.1-3.5-3.4-5.2-8-5.2-13.6 0-5.4 1.6-9.8 4.8-13.2 3.1-3.3 7.4-5 12.6-5 9.6 0 14.5 5.9 14.5 17.7v2zm-25.1-4.02h18.2v-1.5c0-6.77-2.7-10.15-8.1-10.15-3.4 0-6 1.33-7.8 4-1.3 1.87-2.1 4.42-2.4 7.65zm65.3 18.5c-3.6 1.86-7.3 2.8-11 2.8-2 0-3.7-.24-5-.7-1.4-.47-2.4-1.2-3.2-2.22-.8-1-1.4-2.3-1.7-3.9-.3-1.57-.5-3.47-.5-5.7v-35.7h-12v-4h18.4v37.56c0 2.02 0 3.67.2 4.95.1 1.2.4 2.2.9 3a3.36 3.36 0 0 0 1.9 1.4c.8.2 1.9.4 3.2.4 2.7 0 5.6-.9 8.6-2.5v4.5zm37.7-29.37v26.3c0 1.52 0 3.04-.1 4.55a24.38 24.38 0 0 1-.6 4.34 15.22 15.22 0 0 1-1.4 3.88c-.7 1.2-1.5 2.23-2.7 3.1-1.2.88-2.6 1.58-4.3 2.1-1.8.5-3.9.75-6.4.75-1.9 0-3.9-.14-6.1-.44-2.2-.2-4.4-.8-6.7-1.7v-8h4l.8 4.5c.4.2 1 .5 1.6.7a19.2 19.2 0 0 0 2 .6c.7.2 1.4.3 2.1.4.7.1 1.4.2 2.2.2 1.4 0 2.7-.1 3.7-.5 1-.3 1.8-.8 2.5-1.4a6.22 6.22 0 0 0 1.5-2.1c.3-.8.6-1.7.8-2.7.2-1 .3-2 .3-3.1V174c-1.7 2.43-3.3 4.25-4.7 5.4-2.3 1.75-4.7 2.6-7.2 2.6-3.6 0-6.5-1.54-8.7-4.7-2.2-3.1-3.3-6.73-3.3-11 0-2.7.3-5.06 1.1-7.16.7-2.1 1.8-4.03 3.3-5.8 2.9-3.57 6.9-5.35 12.1-5.35 1.4 0 2.7.1 3.9.2s2.3.3 3.5.5H239v4h-3.85zm-6.5.78a89 89 0 0 0-4-.5c-1.2-.1-2.2-.2-3-.2-3.6 0-6.2 1.2-7.8 3.5-.8 1.2-1.4 2.5-1.8 4.1-.4 1.6-.6 3.4-.6 5.6 0 7.3 2.3 10.9 6.9 10.9 3.5 0 6.9-2.5 10.1-7.6v-15.6zm48.4 14.1h-25.1c.3 3 .7 5.1 1.3 6.4 1.9 4.5 5.8 6.7 11.4 6.7 3.5 0 7.3-1.1 11.3-3.4v4.9c-3.8 1.9-7.9 2.9-12.2 2.9-5.7 0-10.2-1.7-13.7-5.1-3.5-3.4-5.2-8-5.2-13.6 0-5.4 1.6-9.8 4.8-13.1 3.2-3.3 7.4-5 12.7-5 9.6 0 14.5 5.9 14.5 17.7v2zm-25.1-4h18.2v-1.5c0-6.7-2.7-10.1-8.1-10.1-3.4 0-6 1.4-7.8 4-1.3 1.9-2 4.4-2.3 7.7zm31.8 20.5v-4h3.6v-27.3h-3.9v-4H294v6.9c1.5-2.2 3-4 4.45-5.1 2.1-1.6 4.42-2.5 7-2.5 6.54 0 9.8 4.2 9.8 12.7v19.5h3.9v4H309v-23c0-5.6-1.77-8.3-5.3-8.3-3.26 0-6.44 2.8-9.55 8.4v18.9h3.25v4h-13.3z"/><path fill="#ff00f6" d="M395.6 152.33v26.3c0 1.52 0 3.04-.07 4.55a24.38 24.38 0 0 1-.53 4.34 15.26 15.26 0 0 1-1.4 3.88c-.63 1.2-1.52 2.23-2.66 3.1-1.14.88-2.57 1.58-4.3 2.1-1.75.5-3.87.75-6.4.75-1.86 0-3.9-.14-6.1-.44-2.2-.2-4.4-.8-6.62-1.7v-8h4l.85 4.5c.46.2 1 .5 1.6.7a19.2 19.2 0 0 0 1.98.6c.7.2 1.4.3 2.15.4.74.1 1.48.2 2.2.2 1.47 0 2.7-.1 3.7-.5 1.02-.3 1.85-.8 2.5-1.4a6.22 6.22 0 0 0 1.5-2.1c.37-.8.64-1.7.8-2.7.2-1 .3-2 .32-3.1.03-1.1.05-2.2.05-3.4V174c-1.65 2.43-3.22 4.25-4.72 5.4-2.24 1.75-4.63 2.6-7.2 2.6-3.58 0-6.47-1.54-8.7-4.7-2.2-3.1-3.3-6.73-3.3-11 0-2.7.36-5.06 1.08-7.16.73-2.1 1.83-4.03 3.3-5.8 2.9-3.57 6.96-5.35 12.15-5.35 1.45 0 2.76.1 3.9.2 1.16.1 2.32.3 3.5.5h10.3v4h-3.87zm-6.43.78a88.77 88.77 0 0 0-3.97-.5c-1.15-.1-2.14-.2-2.97-.2-3.58 0-6.17 1.2-7.78 3.5-.8 1.2-1.4 2.5-1.8 4.1-.38 1.6-.57 3.4-.57 5.6 0 7.3 2.32 10.9 6.96 10.9 3.56 0 6.94-2.5 10.13-7.6v-15.6zm48.44 14.1h-25.1c.4 3 .8 5.1 1.4 6.4 2 4.5 5.8 6.7 11.5 6.7 3.5 0 7.3-1.1 11.4-3.4v4.9c-3.8 1.9-7.8 2.9-12.2 2.9-5.6 0-10.2-1.7-13.6-5.1-3.4-3.4-5.2-8-5.2-13.6 0-5.4 1.6-9.8 4.8-13.1 3.2-3.3 7.4-5 12.7-5 9.7 0 14.5 5.9 14.5 17.7v2zm-25-4h18.2v-1.5c0-6.7-2.7-10.1-8.1-10.1-3.3 0-5.9 1.4-7.7 4-1.3 1.9-2 4.4-2.3 7.7zm31.8 20.5v-4h3.6v-27.3h-4v-4h10.4v6.9c1.5-2.2 3-4 4.5-5.1 2.1-1.6 4.5-2.5 7-2.5 6.6 0 9.8 4.2 9.8 12.7v19.5h3.9v4h-10.3v-23c0-5.6-1.7-8.3-5.3-8.3-3.2 0-6.4 2.8-9.5 8.4v18.9h3.3v4h-13.3zm73.3-16.4h-25.1c.3 3 .8 5.1 1.4 6.4 2 4.5 5.8 6.7 11.5 6.7 3.5 0 7.3-1.1 11.4-3.4v4.9c-3.8 1.9-7.8 2.9-12.2 2.9-5.6 0-10.1-1.7-13.6-5.2-3.4-3.4-5.1-8-5.1-13.6 0-5.4 1.6-9.8 4.8-13.1 3.2-3.3 7.4-5 12.7-5 9.7 0 14.5 5.9 14.5 17.7v2zm-25-4h18.2v-1.5c0-6.7-2.7-10.1-8.1-10.1-3.3 0-5.9 1.4-7.7 4-1.3 1.9-2 4.4-2.3 7.7zm46.3-2.4v18.9h11.7v4h-26.3v-4h8.2v-27.3h-8.4v-4H539v6.9c1.6-2.3 3.13-4 4.6-5.1 2.07-1.7 4.32-2.5 6.72-2.5 2.54 0 5 .8 7.4 2.2v9.7h-4.04l-.65-5.1c-1.2-.7-2.5-1.1-3.82-1.1-4 0-7.4 2.6-10.2 7.7zm49.9 19c-3.7 3.2-7.5 4.7-11.4 4.7-3.3 0-5.9-.9-7.9-2.8-1.9-1.8-2.9-4.3-2.9-7.5 0-4.1 1.6-7.1 4.6-9 3.1-1.8 8.1-2.7 15-2.7h2.7V157c0-3.6-2.2-5.38-6.6-5.38-2.2 0-5 .63-8.4 1.9l-.8 4.1h-4v-7.03c5-2.1 10.1-3.1 15.2-3.1 4.1 0 7 .7 8.6 2.1 1.6 1.4 2.5 3.9 2.5 7.4v22.6h4.4v4h-10.2l-.6-3.9zm0-4.9v-8.5h-1.7c-5 0-8.5.6-10.6 1.7-2.1 1.1-3.1 3.3-3.1 6.4 0 3.9 2 5.8 6.1 5.8 3.2 0 6.4-1.7 9.5-5.3zm46.5 6.8c-3.6 1.9-7.2 2.8-10.9 2.8-3.5 0-6-.8-7.5-2.4-1.5-1.6-2.2-4.3-2.2-8.1v-20.4h-9v-4.4h9.1V140h6.4v9.14H635v4.43h-13.9v17.48c0 3.47.34 5.77 1.03 6.9.7 1.15 2.07 1.73 4.13 1.73 2.3 0 5.33-.84 9.1-2.5v4.5zm42.4-14.5h-25.1c.3 3 .8 5.1 1.4 6.4 2 4.5 5.8 6.7 11.5 6.7 3.5 0 7.3-1.1 11.4-3.4v4.9c-3.8 1.9-7.8 2.9-12.2 2.9-5.6 0-10.1-1.7-13.6-5.2-3.5-3.4-5.2-7.9-5.2-13.5 0-5.5 1.6-9.9 4.8-13.2 3.2-3.4 7.4-5 12.7-5 9.7 0 14.5 5.9 14.5 17.7v2zm-25-4H671v-1.5c0-6.7-2.7-10.1-8.1-10.1-3.34 0-5.9 1.3-7.75 4-1.27 1.9-2.05 4.4-2.33 7.7z"/><path fill="#ff1d00" d="M724.95 161.18h33.56V166H725zm72.92 21c-3.52 1.54-7.8 2.3-12.83 2.3-6.14 0-10.97-1.7-14.48-5.13-3.5-3.43-5.24-8-5.24-13.74 0-5.6 1.7-10 5.14-13.2 3.4-3.2 8.22-4.8 14.45-4.8 4.7 0 8.8.6 12.6 1.8v10.1h-4l-1.1-6.4c-2.6-.9-5.2-1.4-7.7-1.4-3.8 0-6.8 1.3-9.1 3.9-2.1 2.6-3.1 6-3.1 10.3 0 4.8 1.2 8.4 3.6 10.9 2.5 2.5 6 3.7 10.5 3.7 3.7 0 7.5-.8 11.6-2.6v4.6z"/><path fill="#262626" d="M865.65 148.32h10.06v31.35h4v4h-10.4v-6.8c-1.5 2.28-2.9 4-4.4 5.15-2 1.65-4.4 2.47-7 2.47-6.5 0-9.8-4.3-9.8-12.7v-19.5h-4v-4.1h10.5v23c0 5.5 1.8 8.3 5.3 8.3 3.3 0 6.4-2.8 9.6-8.4v-18.9h-3.6v-4.1zm21.75 33.37V172h4l.82 5.96c4.25 1.65 7.86 2.48 10.84 2.48 5.16 0 7.75-1.83 7.75-5.47 0-1.45-.4-2.55-1.3-3.33-.8-.8-2.4-1.5-4.6-2.1l-6.6-1.75c-3.7-1-6.4-2.3-8.1-3.9-1.6-1.6-2.5-3.6-2.5-6.2 0-6.9 4.7-10.4 14.1-10.4 4.8 0 9.2.8 13.1 2.3v9.3h-4l-.8-5.9c-2.3-1.2-5.1-1.7-8.3-1.7-2.4 0-4.2.3-5.5 1.1-1.6.9-2.3 2.2-2.3 4.1 0 2.4 2.3 4.2 6.7 5.4l6.6 1.7c3.7.9 6.3 2.1 7.9 3.6 1.6 1.4 2.4 3.4 2.4 5.9 0 3.4-1.3 6.1-4 8-2.6 1.9-6.4 2.9-11.1 2.9-4.9 0-9.8-1-14.6-2.8zm70.35-14.5h-25.1c.3 2.9.75 5 1.33 6.3 1.98 4.4 5.8 6.6 11.46 6.6 3.5 0 7.3-1.2 11.37-3.4v4.8c-3.8 1.9-7.8 2.8-12.2 2.8-5.6 0-10.1-1.8-13.6-5.2-3.4-3.5-5.2-8-5.2-13.6 0-5.5 1.6-9.8 4.8-13.2 3.2-3.4 7.4-5 12.7-5 9.7 0 14.5 5.9 14.5 17.7v2zm-25.04-4h18.2v-1.5c0-6.8-2.7-10.2-8.1-10.2-3.3 0-5.9 1.3-7.7 4-1.3 1.8-2 4.4-2.3 7.6zm46.4-2.4v18.8h11.7v4h-26.3v-4h8.2v-27.3h-8.4v-4.1h14.9v6.8c1.6-2.3 3.2-4.1 4.6-5.2 2.1-1.7 4.3-2.5 6.8-2.5 2.6 0 5.1.7 7.5 2.2v9.6H994l-.64-5.1c-1.2-.8-2.5-1.2-3.9-1.2-4 0-7.4 2.6-10.2 7.7zm39.1-2.4v-10.9h11v10.9h-10.9zm0 25.2v-10.9h11v10.9h-10.9zm36.2 8.8h8.1v4H1044v-4h4v-40.1h-4v-4.1h10.45v7.2c1.6-2.4 3.2-4.2 4.73-5.4 2.2-1.8 4.6-2.6 7.16-2.6 3.57 0 6.46 1.5 8.7 4.6 2.2 3.1 3.3 7.2 3.3 12.3 0 6.2-1.47 11.1-4.4 14.6-2.9 3.6-6.9 5.3-12 5.3-1.9 0-4.43-.2-7.53-.8v8.9zm0-13.6c3 .5 5.3.7 6.9.7 3.7 0 6.3-1.2 7.8-3.5 1.6-2.4 2.4-6.3 2.4-11.7 0-8.1-2.3-12.2-7-12.2-3.5 0-6.9 2.6-10.1 8v18.5zm54.7.9c-3.7 3.1-7.5 4.7-11.4 4.7-3.3 0-5.9-1-7.9-2.8-1.9-1.9-2.9-4.4-2.9-7.6 0-4.2 1.6-7.2 4.7-9 3.1-1.9 8.1-2.8 14.9-2.8h2.8v-5.5c0-3.6-2.2-5.4-6.6-5.4-2.2 0-5 .6-8.3 1.9l-.8 4.1h-4v-7.1c5-2 10.1-3 15.2-3 4.1 0 7 .7 8.6 2.1 1.7 1.4 2.5 3.9 2.5 7.4v22.6h4.4v4H1110l-.65-3.9zm0-4.9v-8.6h-1.7c-5 0-8.5.5-10.6 1.7-2 1.1-3.1 3.2-3.1 6.3 0 3.8 2 5.7 6.1 5.7 3.2 0 6.3-1.8 9.4-5.3zm18.5 6.7V172h4l.9 5.96c4.3 1.65 7.9 2.48 10.8 2.48 5.2 0 7.8-1.83 7.8-5.47 0-1.45-.4-2.55-1.3-3.33-.9-.8-2.4-1.5-4.6-2.1l-6.6-1.75c-3.7-1-6.4-2.3-8.1-3.9-1.7-1.6-2.5-3.6-2.5-6.2 0-6.9 4.7-10.4 14.1-10.4 4.8 0 9.2.8 13.1 2.3v9.3h-4.1l-.8-5.9c-2.3-1.2-5.1-1.7-8.3-1.7-2.4 0-4.2.3-5.5 1.1-1.6.9-2.4 2.2-2.4 4.1 0 2.4 2.2 4.2 6.7 5.4l6.6 1.7c3.7.9 6.3 2.1 7.9 3.6s2.4 3.4 2.4 5.9c0 3.4-1.3 6.1-4 8-2.7 1.9-6.4 2.9-11.2 2.9-4.9 0-9.8-1-14.6-2.8zm40 0V172h4l.9 5.96c4.3 1.65 7.9 2.48 10.9 2.48 5.2 0 7.8-1.83 7.8-5.47 0-1.45-.4-2.55-1.3-3.33-.9-.8-2.4-1.5-4.7-2.1l-6.6-1.75c-3.7-1-6.4-2.3-8.1-3.9-1.7-1.6-2.5-3.6-2.5-6.2 0-6.9 4.7-10.4 14.1-10.4 4.8 0 9.2.8 13.1 2.3v9.3h-4l-.8-5.9c-2.3-1.2-5.1-1.7-8.3-1.7-2.4 0-4.2.3-5.5 1.1-1.5.9-2.3 2.2-2.3 4.1 0 2.4 2.2 4.2 6.7 5.4l6.6 1.7c3.7.9 6.3 2.1 7.9 3.6 1.6 1.4 2.4 3.4 2.4 5.9 0 3.4-1.3 6.1-4 8-2.7 1.9-6.4 2.9-11.1 2.9-4.9 0-9.8-1-14.7-2.8z"/><path d="M1232.62 183.3c-3.28 1.05-6.03 1.58-8.27 1.58-6 0-10.77-2.2-14.32-6.6-3.56-4.4-5.34-10.4-5.34-18 0-7.7 1.7-13.97 5.2-18.8 3.5-4.8 8.1-7.2 13.8-7.2 8.5 0 12.8 5.17 12.8 15.48v20.44h3.8v4h-7.9v-11.94h-.8c-.9 3.45-2 6.18-3.4 8.2-1.9 2.65-4 3.97-6.4 3.97-2.3 0-4.1-1.13-5.6-3.38-1.5-2.26-2.2-5.15-2.2-8.66 0-4.8 1.2-8.8 3.7-12.1 2.5-3.3 5.5-5 9-5 1.4 0 3.1.3 5.2.8-.6-3-1.7-5-3.3-6.2-1.5-1.1-3.3-1.7-5.6-1.7-4.4 0-8 1.9-10.7 5.9-2.7 4-4.1 9.2-4.1 15.6s1.4 11.6 4.3 15.3c2.9 3.8 6.7 5.7 11.4 5.7 2.5 0 5.3-.7 8.2-2.1v4.5zm0-29.8v-3.6c-1.8-1.06-3.44-1.58-4.92-1.58-2.62 0-4.7 1.22-6.2 3.65-1.56 2.43-2.33 5.7-2.33 9.77 0 2.36.34 4.3 1 5.82.66 1.5 1.5 2.25 2.5 2.25 1.5 0 3.07-1.3 4.68-4 1.56-2.6 3.32-6.7 5.27-12.2zm45.54 28.2c-3.6 1.86-7.25 2.8-10.94 2.8-2 0-3.66-.24-5-.7-1.33-.47-2.4-1.2-3.2-2.22-.78-1-1.34-2.3-1.68-3.9-.34-1.57-.5-3.47-.5-5.7v-35.7h-12.05v-4h18.4v37.56c0 2.02.1 3.67.2 4.95.1 1.2.4 2.2.9 3a3.36 3.36 0 0 0 1.9 1.4c.8.2 1.9.4 3.3.4 2.7 0 5.5-.9 8.6-2.5v4.5zm23.7-34.16c5.1 0 9.1 1.64 12 4.92 2.94 3.28 4.4 7.78 4.4 13.5 0 5.83-1.46 10.36-4.4 13.62-2.92 3.27-7 4.9-12.26 4.9-4.45 0-8.07-1.34-10.87-4.06-3.5-3.36-5.25-8.17-5.25-14.42 0-5.75 1.47-10.26 4.4-13.54 2.93-3.28 6.92-4.92 11.98-4.92zm0 4c-6.3 0-9.44 4.8-9.44 14.4 0 9.7 3.15 14.55 9.44 14.55 6.32 0 9.47-4.9 9.47-14.6 0-9.6-3.15-14.4-9.47-14.4zm56.16 30.64c-3.52 1.54-7.8 2.3-12.83 2.3-6.2 0-11-1.7-14.5-5.13-3.5-3.43-5.3-8-5.3-13.74 0-5.6 1.7-10 5.1-13.2 3.4-3.2 8.2-4.8 14.4-4.8 4.6 0 8.8.6 12.5 1.8v10.1h-4.1l-1.2-6.4c-2.6-.9-5.2-1.4-7.7-1.4-3.8 0-6.9 1.3-9.1 3.9-2.1 2.6-3.2 6-3.2 10.3 0 4.8 1.2 8.4 3.5 10.9 2.5 2.5 6 3.7 10.5 3.7 3.6 0 7.5-.8 11.5-2.6v4.6zm31.02-2.37c-3.75 3.2-7.56 4.7-11.43 4.7-3.3 0-5.9-.9-7.9-2.8-2-1.8-2.9-4.3-2.9-7.5 0-4.1 1.6-7.1 4.7-9 3.1-1.8 8.1-2.7 15-2.7h2.8V157c0-3.6-2.2-5.38-6.6-5.38-2.2 0-5 .63-8.3 1.9l-.8 4.1h-4v-7c5-2.03 10-3.04 15.2-3.04 4.1 0 7 .73 8.6 2.14 1.6 1.4 2.4 3.9 2.4 7.4v22.63h4.5v4H1390l-.65-3.87zm0-4.8v-8.5h-1.73c-4.9 0-8.5.6-10.6 1.7-2.1 1.1-3.1 3.3-3.1 6.4 0 3.9 2 5.8 6.1 5.8 3.2 0 6.4-1.7 9.5-5.3zm49.16 6.8c-3.6 1.9-7.25 2.8-10.94 2.8-2 0-3.66-.2-5-.7-1.33-.4-2.4-1.2-3.2-2.2-.78-1-1.34-2.3-1.68-3.9-.34-1.6-.5-3.5-.5-5.7v-35.7h-12.05v-4h18.46V170c0 2 0 3.67.2 4.95.1 1.26.4 2.26.9 3a3.36 3.36 0 0 0 1.9 1.44c.8.2 1.9.4 3.3.4 2.7 0 5.5-.9 8.6-2.5v4.5zm6.38 2v-4h3.58v-43.4h-4v-4h10.45v22.9c1.5-2.3 3-4 4.5-5.1 2.1-1.6 4.4-2.5 7-2.5 6.6 0 9.8 4.2 9.8 12.7v19.5h4.1v4h-10.4v-23c0-5.5-1.7-8.3-5.3-8.3-3.2 0-6.4 2.8-9.5 8.4v18.9h3.6v4h-13.6zm57.33-36.1c5.1 0 9.1 1.7 12.1 4.9 3 3.3 4.4 7.8 4.4 13.5 0 5.9-1.4 10.4-4.4 13.6-2.9 3.3-7 4.9-12.2 4.9-4.4 0-8-1.3-10.8-4-3.5-3.3-5.2-8.1-5.2-14.4 0-5.7 1.5-10.2 4.4-13.5 2.9-3.3 6.9-4.9 12-4.9zm0 4c-6.2 0-9.4 4.8-9.4 14.4 0 9.7 3.2 14.6 9.5 14.6 6.4 0 9.5-4.8 9.5-14.5 0-9.6-3.1-14.4-9.4-14.4zm25.7 30.2V172h4l.8 5.96c4.3 1.65 7.9 2.48 10.9 2.48 5.2 0 7.8-1.83 7.8-5.47 0-1.45-.4-2.55-1.3-3.33-.8-.8-2.4-1.5-4.6-2.1l-6.6-1.75c-3.7-1-6.4-2.3-8.1-3.9-1.7-1.6-2.5-3.6-2.5-6.2 0-6.9 4.7-10.4 14.1-10.4 4.8 0 9.2.8 13.1 2.3v9.3h-4.1l-.8-5.9c-2.3-1.2-5.1-1.7-8.3-1.7-2.4 0-4.2.3-5.5 1.1-1.5.9-2.3 2.2-2.3 4.1 0 2.4 2.3 4.2 6.7 5.4l6.6 1.7c3.7.9 6.3 2.1 7.9 3.6 1.6 1.4 2.4 3.4 2.4 5.9 0 3.4-1.3 6.1-4 8-2.6 1.9-6.4 2.9-11.1 2.9-4.9 0-9.8-1-14.6-2.8zm68 0c-3.6 1.9-7.2 2.8-10.9 2.8-3.5 0-6-.8-7.5-2.4-1.4-1.6-2.2-4.3-2.2-8.1v-20.4h-9v-4.4h9.1V140h6.4v9.14h13.9v4.43h-13.9v17.48c0 3.47.4 5.77 1.1 6.9.7 1.15 2.1 1.73 4.2 1.73 2.3 0 5.3-.84 9.1-2.5v4.5zm22.7-23.2v-11h11v11h-10.9zm0 25.2v-11h11v11h-10.9zm29.8-.3v-12.2h4l.8 8c1.9 1.2 4.1 1.7 6.7 1.7 3.3 0 6-.9 7.9-2.8 2-1.9 3-4.4 3-7.7 0-6.9-4.5-10.4-13.5-10.4h-4.4v-4h3.7c8.6 0 12.9-3.2 12.9-9.6 0-2.5-.8-4.4-2.3-5.8-1.5-1.5-3.7-2.2-6.5-2.2-2.5 0-4.7.4-6.5 1.2l-.4 6.8h-4V136c4.2-1.14 8.1-1.72 11.7-1.72 9.9 0 14.8 3.82 14.8 11.5 0 3.52-1.1 6.38-3.4 8.55-1.4 1.28-3.4 2.4-6 3.35 2.3.67 4 1.38 5.2 2.12 3.9 2.4 5.9 6.03 5.9 10.87 0 4.2-1.5 7.62-4.5 10.25-3 2.62-6.9 3.93-11.9 3.93-3.3 0-6.7-.32-9.9-.97l-2.7-.55zm40 0v-12.2h4l.9 8c1.9 1.2 4.1 1.7 6.7 1.7 3.3 0 6-.9 7.9-2.8 2-1.9 2.9-4.4 2.9-7.7 0-6.9-4.5-10.4-13.5-10.4h-4.4v-4h3.7c8.6 0 12.9-3.2 12.9-9.6 0-2.5-.8-4.4-2.3-5.8-1.5-1.5-3.7-2.2-6.5-2.2-2.5 0-4.7.4-6.5 1.2l-.4 6.8h-4V136c4.2-1.14 8.1-1.72 11.7-1.72 9.9 0 14.8 3.82 14.8 11.5 0 3.52-1.1 6.38-3.4 8.55-1.4 1.28-3.4 2.4-6 3.35 2.3.67 4.1 1.38 5.2 2.12 3.9 2.4 5.9 6.03 5.9 10.87 0 4.2-1.5 7.62-4.5 10.25-3 2.62-6.9 3.93-11.9 3.93-3.3 0-6.7-.32-9.9-.97l-2.8-.55zm54-49c5.2 0 9.3 2.3 12.4 6.8 3 4.5 4.5 10.7 4.5 18.5 0 8-1.5 14.2-4.5 18.6-3 4.5-7.2 6.8-12.6 6.8-4.6 0-8.3-1.8-11.2-5.5-3.6-4.6-5.4-11.2-5.4-19.8 0-7.8 1.5-14 4.5-18.5s7.1-6.7 12.3-6.7zm-7.3 41c1.7 3.7 4.2 5.6 7.4 5.6 6.7 0 10-7.1 10-21.3 0-2.9-.1-5.5-.5-7.8l-18.1 19.7c.4 1.5.8 2.7 1.3 3.9zm7.4-37c-3.2 0-5.6 1.9-7.3 5.6-1.7 3.7-2.6 9-2.6 15.7 0 3 .2 5.6.5 7.9l18.2-19.7c-.3-1.4-.8-2.7-1.3-3.9-1.7-3.6-4.2-5.5-7.4-5.5zm31 20.2c1.4-1.9 2.9-3.3 4.4-4.2 2.3-1.4 4.8-2.1 7.8-2.1 4.1 0 7.5 1.5 10 4.4 2.6 2.9 3.9 6.7 3.9 11.4 0 5-1.5 9.1-4.4 12.3-2.9 3.2-6.8 4.8-11.5 4.8-5.3 0-9.4-2.1-12.4-6.4s-4.5-10.2-4.5-17.8c0-8.4 1.8-14.8 5.3-19.4 3.6-4.6 8.5-6.9 14.8-6.9 2.8 0 6.3.8 10.6 2.3v10h-4.1l-.7-6.8c-1.9-1.2-3.8-1.8-5.8-1.8-4.6 0-8.2 2.4-10.5 7.1-1.7 3.3-2.5 7.7-2.6 13.2zm10.9-2.1c-2.9 0-5.4 1.1-7.4 3.4-2 2.2-3 5-3 8.4 0 3.5 1 6.5 3.1 9.1 2 2.5 4.5 3.8 7.3 3.8 2.4 0 4.4-.9 5.8-2.6 1.9-2.1 2.8-5.4 2.8-9.7 0-8.1-2.8-12.2-8.5-12.2z"/><path fill="#ff0400" d="M1845.24 161.18h33.56V166h-33.56zm64.33-24.9h-8v-4H1916v47.4h4v4h-10.45v-7.23c-1.63 2.4-3.2 4.22-4.72 5.44-2.2 1.7-4.6 2.6-7.2 2.6-3.58 0-6.47-1.6-8.7-4.7-2.2-3.1-3.3-7.2-3.3-12.4 0-6.2 1.46-11.1 4.4-14.6 2.9-3.6 6.93-5.4 12.1-5.4 1.9 0 4.36.2 7.42.8v-12zm0 16.24c-2.95-.47-5.26-.7-6.93-.7-3.6 0-6.18 1.15-7.8 3.47-1.57 2.3-2.36 6.2-2.36 11.9 0 8.2 2.32 12.4 6.97 12.4 3.56 0 6.93-2.6 10.12-7.6v-19.5z"/><path fill="#262626" d="M1965.3 183.68v-31.32h-2.4v-4.03h8.24v7.06c1.45-3.1 2.64-5.1 3.58-6.1 1.13-1.2 2.52-1.8 4.17-1.8 2.1 0 3.7 1 4.7 3 .5 1.1.9 2.7 1.1 4.8.9-2.5 1.9-4.3 2.9-5.4 1.4-1.7 3.1-2.5 5-2.5 4 0 6.1 2.9 6.1 8.9v23.2h2.2v4h-8.1v-24.4c0-4.6-.7-6.9-2.1-6.9-1.1 0-2.2.9-3.5 2.8-.7 1-1.2 2-1.6 2.9-.6 1.4-.8 2.4-.8 2.9v18.5h2.2v4h-8.1v-25.9c0-3.6-.7-5.4-2.2-5.4-1.9 0-3.9 2.9-5.9 8.8v18.5h2.3v4h-8.1zm53.5 0l-12.53-31.32h-2.4v-4.03h14.54v4.03h-5.2l10.2 25.33h.1l10.1-25.4h-5.2v-4.1h12v4h-2.4l-12.5 31.3-3.5 8.8h4.8v4h-15.5v-4h6.5l3.5-8.9h-2.2zm26.5-22.5h33.56V166h-33.56zm64.33-24.9h-8v-4h14.45v47.4h4v4h-10.45v-7.23c-1.63 2.4-3.2 4.22-4.72 5.44-2.2 1.7-4.6 2.6-7.1 2.6-3.6 0-6.5-1.6-8.7-4.7-2.2-3.1-3.3-7.2-3.3-12.4 0-6.2 1.5-11.1 4.4-14.6 2.9-3.6 7-5.4 12.1-5.4 1.9 0 4.4.2 7.5.8v-12zm0 16.24c-2.95-.47-5.26-.7-6.93-.7-3.58 0-6.18 1.15-7.78 3.47-1.6 2.3-2.38 6.2-2.38 11.9 0 8.2 2.32 12.4 6.97 12.4 3.6 0 7-2.6 10.2-7.6v-19.5zm24.93 31.16h-6.45v-47.4h-4v-4h10.5v23.27c1.7-2.4 3.2-4.2 4.8-5.4 2.3-1.74 4.6-2.6 7.2-2.6 3.6 0 6.5 1.55 8.7 4.65 2.2 3.12 3.3 7.24 3.3 12.34 0 6.2-1.4 11.08-4.4 14.6-2.9 3.57-6.9 5.35-12 5.35-1.9 0-4.4-.3-7.5-.9zm0-4.2c2.95.5 5.25.75 6.9.75 3.63 0 6.23-1.16 7.8-3.48 1.6-2.33 2.4-6.3 2.4-11.9 0-8.06-2.33-12.1-6.97-12.1-3.6 0-7 2.54-10.2 7.62v19.1z"/><path fill="#ff0002" d="M2205.34 161.18h33.56V166h-33.56zm56.78-13.64c5.1 0 9.1 1.64 12 4.92 2.94 3.28 4.4 7.78 4.4 13.5 0 5.83-1.46 10.36-4.4 13.62-2.92 3.27-7 4.9-12.26 4.9-4.45 0-8.07-1.34-10.87-4.06-3.5-3.36-5.3-8.17-5.3-14.42 0-5.75 1.4-10.26 4.4-13.54 2.9-3.28 6.9-4.92 12-4.92zm0 4c-6.3 0-9.44 4.8-9.44 14.4 0 9.7 3.15 14.55 9.44 14.55 6.32 0 9.47-4.9 9.47-14.6 0-9.6-3.2-14.4-9.5-14.4z"/><path fill="#262626" d="M2325.4 183.68v-31.32h-2.4v-4.03h8.23v7.06c1.45-3.1 2.64-5.1 3.58-6.1 1.2-1.2 2.6-1.8 4.2-1.8 2.2 0 3.8 1 4.8 3 .5 1.1.9 2.7 1.2 4.8.9-2.5 1.9-4.3 2.9-5.4 1.5-1.7 3.1-2.5 5.1-2.5 4.1 0 6.1 2.9 6.1 8.9v23.2h2.3v4h-8.1v-24.4c0-4.6-.7-6.9-2.1-6.9-1 0-2.2.9-3.5 2.8-.6 1-1.2 2-1.5 2.9-.5 1.4-.8 2.4-.8 2.9v18.5h2.3v4h-8.1v-25.9c0-3.6-.7-5.4-2.1-5.4-1.9 0-3.8 2.9-5.9 8.8v18.5h2.3v4h-8.1zm56.75-36.14c5.1 0 9.1 1.64 12 4.92 2.94 3.28 4.4 7.78 4.4 13.5 0 5.83-1.46 10.36-4.4 13.62-2.92 3.27-7 4.9-12.26 4.9-4.5 0-8.1-1.34-10.9-4.06-3.5-3.36-5.3-8.17-5.3-14.42 0-5.75 1.4-10.26 4.4-13.54 2.9-3.28 6.9-4.92 11.9-4.92zm0 4c-6.3 0-9.44 4.8-9.44 14.4 0 9.7 3.2 14.55 9.5 14.55s9.5-4.9 9.5-14.6c0-9.6-3.1-14.4-9.4-14.4zm47.56-15.26h-8v-4h14.5v47.4h4v4h-10.4v-7.23c-1.6 2.4-3.2 4.22-4.7 5.44-2.2 1.7-4.6 2.6-7.2 2.6-3.6 0-6.5-1.6-8.7-4.7-2.2-3.1-3.3-7.2-3.3-12.4 0-6.2 1.5-11.1 4.4-14.6 2.9-3.6 7-5.4 12.1-5.4 1.9 0 4.4.2 7.5.8v-12zm0 16.24c-2.9-.47-5.2-.7-6.9-.7-3.6 0-6.2 1.15-7.8 3.47-1.5 2.3-2.3 6.2-2.3 11.9 0 8.2 2.3 12.4 7 12.4 3.6 0 7-2.6 10.1-7.6v-19.5zm48.5 14.7h-25.1c.3 2.92.8 5.03 1.4 6.33 2 4.45 5.8 6.68 11.5 6.68 3.5 0 7.3-1.14 11.4-3.42v4.9c-3.8 1.9-7.8 2.9-12.2 2.9-5.6 0-10.1-1.7-13.6-5.1-3.4-3.4-5.2-8-5.2-13.6 0-5.4 1.6-9.8 4.9-13.2 3.2-3.3 7.4-5 12.7-5 9.7 0 14.5 5.9 14.5 17.7v2zm-25-4.02h18.2v-1.5c0-6.77-2.7-10.15-8.1-10.15-3.3 0-5.9 1.33-7.7 4-1.3 1.87-2 4.42-2.3 7.65zm65.4 18.5c-3.6 1.86-7.2 2.8-10.9 2.8-2 0-3.6-.24-5-.7-1.3-.47-2.4-1.2-3.2-2.22-.8-1-1.3-2.3-1.7-3.9-.3-1.57-.5-3.47-.5-5.7v-35.7h-12v-4h18.5v37.56c0 2.02.1 3.67.3 4.95.2 1.2.5 2.2.9 3a3.36 3.36 0 0 0 1.9 1.4c.9.2 2 .4 3.3.4 2.7 0 5.6-.9 8.6-2.5v4.5zm9.4 0V172h4l.8 5.96c4.3 1.65 7.9 2.48 10.9 2.48 5.2 0 7.8-1.83 7.8-5.47 0-1.45-.4-2.55-1.3-3.33-.9-.8-2.4-1.5-4.7-2.1l-6.6-1.75c-3.7-1-6.4-2.3-8.1-3.9-1.7-1.6-2.5-3.6-2.5-6.2 0-6.9 4.7-10.4 14.1-10.4 4.8 0 9.2.8 13.1 2.3v9.3h-4l-.8-5.9c-2.4-1.2-5.1-1.7-8.3-1.7-2.4 0-4.2.3-5.6 1.1-1.5.9-2.3 2.2-2.3 4.1 0 2.4 2.3 4.2 6.7 5.4l6.6 1.7c3.7.9 6.3 2.1 7.9 3.6 1.6 1.4 2.3 3.4 2.3 5.9 0 3.4-1.3 6.1-4 8-2.6 1.9-6.4 2.9-11.1 2.9-4.9 0-9.8-1-14.6-2.8z"/></g><path fill-rule="nonzero" d="M76.7 71.27l-5.6 28.06c-8.08 1.97-15.28 2.95-21.63 2.95-6.8 0-12.1-.64-15.87-1.93-3.77-1.28-6.82-3.48-9.15-6.6-4.32-5.8-5.5-13.6-3.53-23.42 1.9-9.4 5.95-16.97 12.2-22.68 3.6-3.3 7.57-5.66 11.9-7.04 4.34-1.3 9.8-2 16.43-2 7.93 0 15.02.8 21.3 2.4l-1.98 9.9c-7.8-2.6-14.74-3.9-20.84-3.9-6.84 0-12.43 2-16.77 6-4.35 4-7.3 9.9-8.86 17.6-1.5 7.5-.75 13.3 2.27 17.3s8.1 6.1 15.2 6.1c1.94 0 4.58-.2 7.9-.6l2.76-13.6H52.18l1.64-8.3h22.9zm44.47 19.45l-1.7 8.53c-5.32 1.7-10.5 2.54-15.53 2.54-7.52 0-13-2.2-16.47-6.5C84 91 83.04 85.1 84.54 77.6c1.4-6.93 4.4-12.5 8.98-16.66 4.6-4.17 10-6.26 16.24-6.26 6.46 0 10.76 2.06 12.9 6.2 2.15 4.15 2.32 10.73.52 19.76H96.72c-.85 8.58 2.8 12.88 10.95 12.88 3.86 0 8.36-.95 13.5-2.83zM98 73.82h14.63c1.54-7.7.13-11.54-4.22-11.54-4.5 0-8 3.83-10.4 11.52zm31.7 26.93l8.98-45.03h12.14l-1.48 7.46c5.75-5.67 11.4-8.5 16.98-8.5 8.18 0 11.32 4.75 9.44 14.24l-6.36 31.82h-12.14l5.74-28.8c.58-2.94.62-4.95.15-6.04-.48-1.1-1.65-1.64-3.5-1.64-3.3 0-7.27 2.38-11.95 7.14l-5.86 29.36H129.7zm89.5-10.05l-1.7 8.55c-5.32 1.7-10.5 2.54-15.53 2.54-7.52 0-13-2.2-16.47-6.5-3.46-4.3-4.44-10.2-2.93-17.7 1.4-7 4.4-12.5 8.98-16.7 4.6-4.2 10-6.3 16.24-6.3 6.4 0 10.7 2 12.9 6.2 2.1 4.1 2.3 10.7.5 19.7h-26.5c-.9 8.6 2.8 12.9 10.9 12.9 3.8 0 8.3-1 13.5-2.9zM196 73.84h14.64c1.53-7.7.13-11.53-4.22-11.53-4.6 0-8.07 3.9-10.42 11.6zm32.73 26.94l8.98-45.03h12.2l-1.4 7.46c3.4-5.6 7.3-8.5 11.8-8.5.7 0 1.3.1 2 .3L260 65.8c-1.4-.63-2.6-.95-3.65-.95-3.25 0-6.44 2.1-9.55 6.32l-5.9 29.6h-12.15zm60.17-7.46c-5.4 5.66-10.65 8.5-15.8 8.5-4.7 0-8.08-2.05-10.16-6.14-2.08-4.1-2.45-9.48-1.1-16.18 1.55-7.77 4.63-13.84 9.24-18.2 4.6-4.4 10.23-6.58 16.88-6.58 2.2 0 5.03.35 8.45 1.03h12.2l-9 45.03h-12.2l1.5-7.46zm6.1-30.37c-2.94-.52-5.15-.78-6.65-.78-6.73 0-11.15 5.2-13.25 15.62-1.92 9.6-.43 14.4 4.47 14.4 3.28 0 6.94-2.4 11-7.2L295 62.9zm39.45 30.2l-1.52 7.57c-3.25.7-5.92 1.07-8 1.07-8.56 0-11.86-5-9.92-14.8l4.8-23.7h-4.9l1.5-7.6h4.9l1.8-8.8 12.4-1.4-2 10.2h8.6l-1.5 7.6H332l-4.45 22.1c-.7 3.4-.9 5.6-.5 6.6.36 1 1.45 1.5 3.25 1.5 1.1 0 2.5-.2 4.2-.6zm43.43-2.44l-1.68 8.6c-5.33 1.7-10.5 2.6-15.54 2.6-7.52 0-13-2.1-16.47-6.4-3.5-4.3-4.5-10.2-3-17.7 1.4-6.9 4.4-12.5 9-16.6 4.6-4.1 10-6.2 16.2-6.2 6.4 0 10.7 2.1 12.9 6.3 2.1 4.1 2.3 10.7.5 19.8h-26.4c-.9 8.6 2.8 12.9 10.9 12.9 3.8 0 8.3-.9 13.5-2.8zM354.7 73.9h14.65c1.53-7.7.12-11.53-4.22-11.53-4.6 0-8.07 3.84-10.42 11.53zm55.05 26.94l8.98-45.03h12.15l-1.48 7.5c4.78-5.6 9.95-8.5 15.5-8.5 6 0 9.3 2.9 9.93 8.7 4.48-5.7 9.67-8.6 15.54-8.6 7.74 0 10.67 4.8 8.78 14.3L472.8 101h-12.2l5.7-28.8c.6-3 .7-5.05.3-6.1-.4-1.05-1.4-1.58-3-1.58-3.5 0-7 2.4-10.6 7.15l-5.9 29.4H435l5.74-28.8c.6-3 .7-5.04.34-6.1s-1.34-1.57-2.95-1.57c-3.48 0-7 2.4-10.6 7.14l-5.9 29.38h-12.2zm93.8 1.03c-6.72 0-11.7-2.15-14.95-6.46-3.24-4.3-4.14-10-2.72-17.1 1.45-7.1 4.65-12.9 9.6-17.1 4.94-4.2 10.85-6.4 17.7-6.4 6.88 0 11.94 2.2 15.2 6.4 3.28 4.3 4.2 10 2.78 17.1-1.45 7.3-4.66 13-9.62 17.3-4.96 4.3-10.96 6.4-17.98 6.4zm1.65-7.6c3.06 0 5.75-1.42 8.08-4.27 2.32-2.86 4-6.78 5-11.76.96-4.86.84-8.7-.35-11.58-1.2-2.86-3.27-4.3-6.25-4.3s-5.64 1.44-7.96 4.3c-2.32 2.88-3.98 6.76-4.96 11.66-.96 4.83-.86 8.7.3 11.6 1.17 2.9 3.2 4.34 6.14 4.34zm59.06-.9c-5.4 5.67-10.65 8.5-15.8 8.5-4.7 0-8.1-2.04-10.16-6.13-2.08-4.1-2.45-9.5-1.1-16.2 1.55-7.78 4.63-13.85 9.24-18.2 4.6-4.4 10.23-6.6 16.87-6.6 2.3 0 5.1.36 8.5 1.04L575.7 36h12.14l-12.92 64.76h-12.14l1.48-7.46zM570.33 63c-2.93-.53-5.14-.8-6.65-.8-6.72 0-11.14 5.2-13.24 15.63-1.92 9.65-.43 14.47 4.47 14.47 3.3 0 7-2.4 11-7.2l4.5-22.14zm54.92 27.76l-1.68 8.53c-5.34 1.7-10.52 2.5-15.55 2.5-7.52 0-13-2.2-16.47-6.5-3.45-4.3-4.43-10.2-2.93-17.7 1.4-7 4.4-12.5 8.98-16.7 4.6-4.2 10-6.3 16.25-6.3 6.45 0 10.75 2 12.9 6.2 2.14 4.1 2.3 10.7.5 19.7H600.8c-.84 8.5 2.8 12.8 10.95 12.8 3.86 0 8.36-1 13.5-2.8zm-23.17-16.9h14.64c1.53-7.7.12-11.53-4.23-11.53-4.6 0-8.1 3.83-10.5 11.52zm51.35 19.48l-1.48 7.47a18.4 18.4 0 0 1-6.07 1.1c-8.56 0-11.87-4.9-9.93-14.8L646.17 36h12.14l-9.8 49.42c-.7 3.4-.8 5.62-.4 6.67s1.5 1.5 3.3 1.5c.8 0 1.5-.1 2.3-.4zm4.67 6l1.77-8.86c5.76 2.5 10.8 3.77 15.1 3.77 6.03 0 9.38-1.63 10.04-4.9.5-2-1.5-3.98-5.9-5.9l-3.7-1.66c-5.1-2.3-8.4-4.3-9.7-5.9-1.3-1.7-1.7-4.2-1-7.5 1.8-9.1 9.1-13.7 21.7-13.7 4.3 0 9.1.5 14.4 1.6l-1.7 8.3c-5.7-1.6-9.9-2.4-12.7-2.4-5.6 0-8.8 1.5-9.4 4.6-.4 1.8 1.5 3.6 5.6 5.3l3.3 1.3c5.6 2.2 9.2 4.3 10.8 6.3 1.7 1.9 2.2 4.6 1.5 7.9-.9 4.2-3.4 7.6-7.7 10.2-4.2 2.5-9.5 3.8-15.9 3.8-5.6 0-10.9-.9-16.1-2.5zm-581.4 267l-5.6 28.05c-8.08 1.9-15.28 2.9-21.63 2.9-6.8 0-12.1-.7-15.87-1.9-3.77-1.3-6.82-3.5-9.15-6.6-4.32-5.8-5.5-13.6-3.53-23.5 1.9-9.4 5.95-17 12.2-22.7 3.6-3.3 7.57-5.6 11.9-7 4.34-1.4 9.8-2.1 16.43-2.1 7.93 0 15.02.8 21.3 2.3l-1.98 9.9c-7.8-2.6-14.74-3.9-20.84-3.9-6.84 0-12.43 2-16.77 6-4.35 4-7.3 9.8-8.86 17.5-1.5 7.5-.75 13.2 2.27 17.2s8.1 6 15.2 6c1.94 0 4.58-.2 7.9-.6l2.76-13.6H52.18l1.64-8.3h22.9zm44.47 19.44l-1.7 8.53c-5.32 1.7-10.5 2.6-15.53 2.6-7.52 0-13-2.1-16.47-6.4-3.46-4.3-4.43-10.2-2.93-17.7 1.4-6.9 4.4-12.5 8.98-16.6 4.6-4.2 10-6.2 16.24-6.2 6.46 0 10.76 2.1 12.9 6.2 2.15 4.2 2.32 10.8.52 19.8H96.72c-.85 8.6 2.8 12.9 10.95 12.9 3.86 0 8.36-.9 13.5-2.8zM98 368.84h14.63c1.54-7.68.13-11.52-4.22-11.52-4.5 0-8 3.84-10.4 11.52zm31.7 26.95l8.98-45.1h12.14l-1.48 7.4c5.75-5.7 11.4-8.5 16.98-8.5 8.18 0 11.32 4.7 9.44 14.2l-6.36 31.8h-12.14l5.74-28.8c.58-3 .62-5 .15-6.1-.48-1.1-1.65-1.7-3.5-1.7-3.3 0-7.27 2.4-11.95 7.1l-5.86 29.4H129.7zm89.5-10.1l-1.7 8.5c-5.32 1.7-10.5 2.5-15.53 2.5-7.52 0-13-2.2-16.47-6.5-3.46-4.3-4.44-10.2-2.93-17.7 1.4-7 4.4-12.5 8.98-16.7 4.6-4.2 10-6.3 16.24-6.3 6.4 0 10.7 2 12.9 6.2 2.1 4.1 2.3 10.7.5 19.7h-26.5c-.9 8.5 2.8 12.8 10.9 12.8 3.8 0 8.3-1 13.5-2.8zM196 368.8h14.64c1.53-7.66.13-11.5-4.22-11.5-4.6 0-8.07 3.84-10.42 11.5zm32.73 26.97l8.98-45.06h12.2l-1.4 7.5c3.4-5.6 7.3-8.5 11.8-8.5.7 0 1.3.1 2 .3l-2.3 10.8c-1.4-.6-2.6-.9-3.6-.9-3.2 0-6.4 2.1-9.5 6.3l-5.9 29.6h-12.2zm60.17-7.5c-5.4 5.67-10.65 8.5-15.8 8.5-4.7 0-8.08-2.04-10.16-6.13-2.08-4.1-2.45-9.48-1.1-16.18 1.55-7.77 4.63-13.84 9.24-18.2 4.6-4.4 10.23-6.58 16.88-6.58 2.2 0 5.03.33 8.45 1h12.2l-9 45.05h-12.2l1.5-7.48zm6.07-30.34c-2.94-.52-5.15-.78-6.65-.78-6.73 0-11.15 5.2-13.25 15.62-1.92 9.65-.43 14.48 4.47 14.48 3.28 0 6.94-2.4 11-7.18l4.42-22.15zm39.45 30.2l-1.52 7.58c-3.25.7-5.92 1.1-8 1.1-8.56 0-11.86-4.9-9.92-14.7l4.76-23.7h-4.92l1.52-7.6h4.92l1.77-8.8 12.42-1.4-2.05 10.2h8.62l-1.52 7.6h-8.6l-4.44 22.1c-.7 3.4-.85 5.6-.48 6.7.37 1.1 1.46 1.6 3.26 1.6 1.1 0 2.5-.2 4.2-.5zm43.43-2.43l-1.68 8.54c-5.33 1.7-10.5 2.54-15.54 2.54-7.52 0-13-2.14-16.47-6.45-3.47-4.3-4.45-10.2-2.94-17.7 1.4-6.94 4.38-12.5 8.98-16.67 4.6-4.17 10-6.25 16.24-6.25 6.45 0 10.75 2.1 12.9 6.2 2.15 4.2 2.32 10.8.5 19.8H353.4c-.85 8.6 2.8 12.9 10.95 12.9 3.85 0 8.34-.9 13.48-2.8zm-23.17-16.9h14.65c1.53-7.67.12-11.5-4.22-11.5-4.6 0-8 3.84-10.4 11.52zm53.25 26.43l2.05-10.34c7.24 2.7 14.13 4 20.67 4 9.3 0 14.48-2.7 15.54-8.1.7-3.5-.6-6-3.8-7.5l-5.2-2.2-6.2-2.6c-6.6-2.7-10.9-5.3-12.8-7.8-1.9-2.5-2.4-6-1.5-10.5 2.2-11.3 11.6-16.9 28.1-16.9 6.9 0 13.4.7 19.3 2.1l-1.9 9.6c-6.1-2.3-12.2-3.4-18.3-3.4-5 0-8.5.5-10.6 1.5-2.1 1-3.5 2.9-4 5.5-.4 1.7-.1 3 .6 4 .7.9 2.3 1.9 4.8 2.9l4.3 1.8 6.4 2.6c6.2 2.5 10.4 5.1 12.5 7.8 2 2.6 2.6 6.3 1.7 10.8-1.3 6.3-4.6 11-9.9 13.9-5.3 2.9-13 4.4-23.2 4.4-3.8 0-8-.4-12.7-1.1l-6.3-1zm99.26-.87c7.3 2.73 15 4.53 23.1 5.4l-9.9 8.13c-10.3-2.9-18.5-6.5-24.4-10.9-2.3.1-4 .2-5.1.2-8.7 0-15-2.9-19-8.7-4-5.8-5.1-13.5-3.1-23.2 2-10 6.2-17.8 12.5-23.5 6.3-5.7 14.1-8.5 23.3-8.5 9.2 0 15.8 2.8 19.8 8.4 4 5.6 5.1 13.4 3.1 23.3-2.7 13.2-9.6 22.9-20.7 29zm-24.7-29.33c-1.6 7.63-1.3 13.5.6 17.66 1.9 4.1 5.5 6.2 10.6 6.2 5 0 9.4-2.1 13-6.2 3.6-4.1 6.1-9.9 7.6-17.4 1.5-7.5 1.2-13.2-.7-17.4-2-4.2-5.5-6.2-10.6-6.2s-9.4 2-13 6.1c-3.7 4.1-6.2 9.8-7.7 17zm49.6 30.72l12.1-60.7h12.6l-10.4 52.08h30.8l-1.7 8.6h-43.4zm73.6 0l9-45.05h12.1l-1.5 7.47c4.8-5.67 9.9-8.5 15.5-8.5 5.9 0 9.3 2.87 9.9 8.6 4.5-5.73 9.7-8.6 15.5-8.6 7.7 0 10.6 4.74 8.7 14.23l-6.4 31.83h-12.1l5.7-28.85c.6-3 .7-5.02.3-6.1-.4-1.03-1.4-1.56-3-1.56-3.5 0-7 2.38-10.6 7.14l-5.8 29.37h-12l5.7-28.85c.6-3 .7-5.03.3-6.1-.4-1.04-1.4-1.57-3-1.57-3.5 0-7 2.4-10.6 7.2l-5.9 29.4h-12.1zm74.7 0l8.9-45.05h12.1l-9 45.04h-12.1zm10.2-53.25l2.3-11.53h12.9l-2.3 11.52h-12.9zm48.6 15.42c-2.9-.52-5.2-.78-6.7-.78-6.8 0-11.1 5.05-13.2 15.17-1.9 9.3-.4 14 4.5 14 3.2 0 6.9-2.4 11-7.2L739 358zm-5.9 29.33c-5.4 5.66-10.7 8.5-15.8 8.5-4.7 0-8-2.03-10.1-6.08-2.1-4.06-2.6-9.3-1.3-15.76 1.5-7.5 4.5-13.4 9.2-17.7 4.6-4.3 10.2-6.5 16.8-6.5 2.2 0 5 .4 8.4 1h12.1l-6.8 34.4c-1.4 6.9-2.8 11.8-4.2 14.9-1.4 3.1-3.6 5.6-6.5 7.8-4.8 3.5-10.8 5.3-18.1 5.3-5.3 0-10.7-1.1-16.4-3.3l1.8-8.9c5.5 2.4 10.4 3.6 14.7 3.6 4.5 0 7.9-.9 10.2-2.8 2.4-1.9 4-5 4.8-9.3l1-4.9zm23.6 8.5l9-45.05H778l-1.5 7.47c3.4-5.67 7.3-8.5 11.8-8.5a8.96 8.96 0 0 1 2 .24l-2.2 10.9c-1.4-.6-2.6-.9-3.64-.9-3.2 0-6.4 2.1-9.5 6.4l-5.9 29.6H757zm60.1-7.48c-5.4 5.65-10.7 8.5-15.8 8.5-4.7 0-8.1-2.06-10.2-6.15-2.1-4.1-2.5-9.48-1.1-16.18 1.5-7.76 4.6-13.83 9.2-18.2 4.6-4.38 10.2-6.57 16.9-6.57 2.2 0 5 .34 8.4 1.02h12.1l-9 45h-12.1l1.5-7.5zm6-30.37c-2.9-.5-5.1-.7-6.6-.7-6.8 0-11.2 5.2-13.3 15.6-1.9 9.7-.4 14.5 4.5 14.5 3.2 0 6.9-2.4 11-7.2L823 358zm39.5 30.2l-1.5 7.6c-3.3.7-6 1.1-8 1.1-8.6 0-11.9-4.9-10-14.7l4.7-23.7H843l1.5-7.6h4.94l1.76-8.8 12.45-1.4-2.05 10.2h8.6l-1.5 7.6h-8.6l-4.44 22.1c-.7 3.4-.83 5.6-.46 6.7.4 1.1 1.47 1.6 3.3 1.6 1.04 0 2.43-.2 4.13-.5zm5.2 7.7l9-45H889l-9 45.1h-12zm10.2-53.2l2.3-11.5h13l-2.3 11.6h-13zm33.2 54.3c-6.7 0-11.7-2.1-15-6.4-3.3-4.3-4.2-10-2.7-17 1.4-7.16 4.6-12.9 9.6-17.14 4.9-4.3 10.8-6.4 17.7-6.4 6.9 0 11.9 2.1 15.2 6.4 3.3 4.23 4.2 9.9 2.8 17.03-1.5 7.2-4.7 13-9.6 17.2-5 4.2-11 6.3-18 6.3zm1.6-7.5c3 0 5.7-1.4 8.1-4.3 2.3-2.83 4-6.8 5-11.72.9-4.85.8-8.7-.4-11.6-1.2-2.86-3.3-4.3-6.3-4.3s-5.7 1.44-8 4.3c-2.3 2.88-4 6.77-5 11.66-1 4.85-.9 8.7.3 11.6 1.2 2.9 3.2 4.4 6.1 4.4zm30.5 6.58l9-45.05h12.1l-1.4 7.47c5.7-5.65 11.4-8.5 16.9-8.5 8.1 0 11.3 4.76 9.4 14.25L983 396h-12l5.77-28.9c.58-2.94.6-4.95.15-6.04-.5-1.1-1.7-1.67-3.5-1.67-3.3 0-7.3 2.4-11.97 7.1l-5.88 29.3h-12.1zm75.4 0l7.4-37.46h-4.7l1.5-7.6h4.7l.6-3.1c1.2-5.65 3.4-10 6.7-13.06 3.3-3.03 7.4-4.55 12.4-4.55 3 0 6.1.5 9.1 1.3l-1.6 7.8c-3-.9-5.2-1.3-6.8-1.3-3.8 0-6.4 3.5-7.7 10.3l-.6 2.8h26.8l-9 45.1h-12.1l7.4-37.4h-14.6L1031 396h-12zm39.3-52.63l2-10.1h10.1l-2 10.1h-10zm31.3 45.18l-1.5 7.5a18.37 18.37 0 0 1-6.1 1c-8.6 0-11.9-4.9-10-14.74l10.2-51.1h12.2l-9.9 49.4c-.7 3.4-.9 5.6-.5 6.6.4 1.1 1.4 1.6 3.3 1.6.7 0 1.4-.1 2.2-.4zM1133 386l-1.7 8.5c-5.34 1.7-10.5 2.6-15.56 2.6-7.5 0-13-2.2-16.44-6.5-3.5-4.3-4.45-10.2-2.95-17.7 1.4-6.94 4.4-12.5 9-16.67 4.55-4.2 10-6.28 16.2-6.28 6.45 0 10.75 2.1 12.9 6.2 2.14 4.2 2.3 10.8.5 19.8h-26.45c-.8 8.6 2.8 12.9 11 12.9 3.86 0 8.36-.92 13.5-2.8zm-23.2-16.9h14.65c1.5-7.7.1-11.5-4.26-11.5-4.6 0-8.1 3.8-10.4 11.5zm30.97 25.42l1.78-8.86c5.8 2.53 10.8 3.8 15.1 3.8 6.06 0 9.4-1.65 10.07-4.94.4-2-1.6-3.95-6-5.9l-3.8-1.63c-5.13-2.3-8.37-4.2-9.73-5.9-1.4-1.7-1.7-4.2-1-7.5 1.8-9.1 9-13.6 21.7-13.6 4.3 0 9.1.5 14.3 1.6l-1.6 8.3c-5.7-1.6-10-2.4-12.8-2.4-5.7 0-8.8 1.5-9.4 4.6-.4 1.8 1.4 3.6 5.5 5.2l3.2 1.3c5.6 2.2 9.2 4.3 10.8 6.3 1.7 1.9 2.1 4.6 1.5 7.9-.9 4.2-3.4 7.6-7.7 10.2-4.2 2.5-9.5 3.7-15.9 3.7-5.6 0-10.9-.8-16.1-2.5z"/></svg>