<?xml version="1.0" encoding="UTF-8" standalone="no"?><!DOCTYPE svg PUBLIC "-//W3C//DTD SVG 1.1//EN" "http://www.w3.org/Graphics/SVG/1.1/DTD/svg11.dtd"><svg width="100%" height="100%" viewBox="0 0 2560 650" version="1.1" xmlns="http://www.w3.org/2000/svg" xmlns:xlink="http://www.w3.org/1999/xlink" xml:space="preserve" xmlns:serif="http://www.serif.com/" style="fill-rule:evenodd;clip-rule:evenodd;stroke-linejoin:round;stroke-miterlimit:1.41421;"><g><rect x="1.532" y="419.173" width="2558.47" height="73.545" style="fill:#f4f6f9;fill-rule:nonzero;"/><path d="M4.639,479.296l0,-29.891l-2.299,0l0,-3.852l7.861,0l0,6.742c1.387,-2.9 2.527,-4.826 3.417,-5.779c1.077,-1.139 2.403,-1.709 3.977,-1.709c2.072,0 3.584,0.963 4.537,2.89c0.497,1.035 0.859,2.568 1.087,4.598c0.87,-2.361 1.792,-4.081 2.766,-5.158c1.367,-1.553 2.982,-2.33 4.847,-2.33c3.873,0 5.81,2.827 5.81,8.482l0,22.185l2.175,0l0,3.822l-7.737,0l0,-23.366c0,-4.35 -0.673,-6.525 -2.019,-6.525c-0.995,0 -2.103,0.912 -3.325,2.735c-0.642,1.015 -1.139,1.957 -1.491,2.827c-0.539,1.347 -0.808,2.299 -0.808,2.859l0,17.648l2.175,0l0,3.822l-7.737,0l0,-24.795c0,-3.397 -0.684,-5.096 -2.051,-5.096c-1.802,0 -3.676,2.807 -5.623,8.421l0,17.648l2.175,0l0,3.822l-7.737,0Z" style="fill:#262626;fill-rule:nonzero;"/><path d="M58.795,444.807c4.868,0 8.69,1.564 11.466,4.692c2.796,3.127 4.194,7.426 4.194,12.894c0,5.551 -1.398,9.881 -4.194,12.988c-2.797,3.127 -6.701,4.691 -11.714,4.691c-4.247,0 -7.706,-1.294 -10.378,-3.884c-3.335,-3.21 -5.002,-7.798 -5.002,-13.764c0,-5.489 1.398,-9.798 4.194,-12.925c2.797,-3.128 6.608,-4.692 11.434,-4.692Zm0,3.822c-6.007,0 -9.01,4.577 -9.01,13.733c0,9.259 3.003,13.889 9.01,13.889c6.028,0 9.042,-4.63 9.042,-13.889c0,-9.156 -3.014,-13.733 -9.042,-13.733Z" style="fill:#262626;fill-rule:nonzero;"/><path d="M104.19,434.056l-7.644,0l0,-3.821l13.796,0l0,45.239l3.822,0l0,3.822l-9.974,0l0,-6.898c-1.554,2.299 -3.055,4.029 -4.505,5.189c-2.113,1.657 -4.402,2.485 -6.867,2.485c-3.418,0 -6.183,-1.491 -8.296,-4.474c-2.113,-2.962 -3.169,-6.887 -3.169,-11.776c0,-5.903 1.398,-10.543 4.194,-13.919c2.776,-3.398 6.629,-5.096 11.559,-5.096c1.802,0 4.163,0.248 7.084,0.746l0,-11.497Zm0,15.505c-2.817,-0.456 -5.023,-0.684 -6.618,-0.684c-3.418,0 -5.893,1.108 -7.426,3.325c-1.512,2.195 -2.268,6.007 -2.268,11.434c0,7.892 2.216,11.838 6.649,11.838c3.397,0 6.618,-2.424 9.663,-7.271l0,-18.642Z" style="fill:#262626;fill-rule:nonzero;"/><path d="M150.423,463.574l-23.955,0c0.29,2.796 0.714,4.816 1.274,6.059c1.885,4.246 5.53,6.369 10.937,6.369c3.335,0 6.949,-1.087 10.843,-3.262l0,4.629c-3.625,1.802 -7.508,2.703 -11.651,2.703c-5.365,0 -9.705,-1.646 -13.019,-4.94c-3.293,-3.293 -4.94,-7.612 -4.94,-12.956c0,-5.2 1.533,-9.394 4.598,-12.584c3.045,-3.19 7.074,-4.785 12.087,-4.785c9.218,0 13.826,5.624 13.826,16.871l0,1.896Zm-23.893,-3.822l17.368,0l0,-1.429c0,-6.463 -2.578,-9.694 -7.736,-9.694c-3.19,0 -5.655,1.274 -7.395,3.821c-1.222,1.782 -1.968,4.216 -2.237,7.302Z" style="fill:#262626;fill-rule:nonzero;"/><path d="M188.92,477.4c-3.438,1.782 -6.918,2.672 -10.44,2.672c-1.905,0 -3.495,-0.222 -4.769,-0.668c-1.274,-0.445 -2.289,-1.149 -3.045,-2.112c-0.756,-0.964 -1.295,-2.201 -1.616,-3.713c-0.321,-1.513 -0.481,-3.325 -0.481,-5.438l0,-34.085l-11.496,0l0,-3.821l17.617,0l0,35.855c0,1.927 0.072,3.501 0.217,4.723c0.145,1.222 0.43,2.175 0.855,2.859c0.424,0.683 1.03,1.149 1.817,1.398c0.787,0.249 1.833,0.373 3.138,0.373c2.569,0 5.303,-0.798 8.203,-2.393l0,4.35Z" style="fill:#262626;fill-rule:nonzero;"/><path d="M224.9,449.374l0,25.106c0,1.45 -0.026,2.894 -0.077,4.334c-0.052,1.44 -0.223,2.822 -0.513,4.148c-0.29,1.326 -0.735,2.558 -1.336,3.697c-0.601,1.14 -1.445,2.129 -2.532,2.968c-1.088,0.839 -2.46,1.501 -4.117,1.988c-1.657,0.487 -3.687,0.73 -6.09,0.73c-1.782,0 -3.724,-0.139 -5.826,-0.419c-2.102,-0.28 -4.21,-0.834 -6.323,-1.662l0,-7.675l3.822,0l0.808,4.226c0.435,0.207 0.947,0.414 1.538,0.621c0.59,0.207 1.217,0.389 1.879,0.544c0.663,0.155 1.347,0.28 2.051,0.373c0.704,0.093 1.409,0.14 2.113,0.14c1.388,0 2.563,-0.161 3.526,-0.482c0.964,-0.321 1.756,-0.766 2.377,-1.336c0.622,-0.57 1.103,-1.248 1.445,-2.035c0.342,-0.787 0.596,-1.652 0.761,-2.595c0.166,-0.942 0.265,-1.942 0.296,-2.998c0.031,-1.056 0.046,-2.144 0.046,-3.262l0,-6.184c-1.574,2.341 -3.076,4.071 -4.505,5.189c-2.134,1.657 -4.422,2.486 -6.867,2.486c-3.418,0 -6.183,-1.491 -8.296,-4.474c-2.112,-2.942 -3.169,-6.453 -3.169,-10.533c0,-2.548 0.347,-4.821 1.041,-6.82c0.694,-1.999 1.745,-3.848 3.154,-5.546c2.775,-3.398 6.638,-5.096 11.589,-5.096c1.388,0 2.631,0.072 3.729,0.217c1.097,0.145 2.206,0.321 3.324,0.529l9.85,0l0,3.821l-3.698,0Zm-6.152,0.746c-1.429,-0.228 -2.693,-0.404 -3.79,-0.528c-1.098,-0.124 -2.041,-0.187 -2.828,-0.187c-3.418,0 -5.893,1.109 -7.426,3.325c-0.766,1.119 -1.336,2.413 -1.709,3.884c-0.373,1.471 -0.559,3.242 -0.559,5.313c0,6.898 2.216,10.347 6.649,10.347c3.397,0 6.618,-2.424 9.663,-7.271l0,-14.883Z" style="fill:#262626;fill-rule:nonzero;"/><path d="M264.982,463.574l-23.956,0c0.29,2.796 0.715,4.816 1.274,6.059c1.885,4.246 5.531,6.369 10.937,6.369c3.335,0 6.949,-1.087 10.844,-3.262l0,4.629c-3.625,1.802 -7.509,2.703 -11.652,2.703c-5.365,0 -9.704,-1.646 -13.019,-4.94c-3.293,-3.293 -4.94,-7.612 -4.94,-12.956c0,-5.2 1.533,-9.394 4.599,-12.584c3.044,-3.19 7.073,-4.785 12.086,-4.785c9.218,0 13.827,5.624 13.827,16.871l0,1.896Zm-23.894,-3.822l17.369,0l0,-1.429c0,-6.463 -2.579,-9.694 -7.737,-9.694c-3.19,0 -5.655,1.274 -7.395,3.821c-1.222,1.782 -1.968,4.216 -2.237,7.302Z" style="fill:#262626;fill-rule:nonzero;"/><path d="M271.382,479.296l0,-3.822l3.418,0l0,-26.069l-3.728,0l0,-3.852l9.88,0l0,6.525c1.429,-2.175 2.848,-3.812 4.257,-4.91c1.988,-1.574 4.215,-2.361 6.68,-2.361c6.235,0 9.352,4.018 9.352,12.055l0,18.612l3.729,0l0,3.822l-9.85,0l0,-21.905c0,-5.324 -1.688,-7.986 -5.064,-7.986c-3.107,0 -6.142,2.673 -9.104,8.017l0,18.052l3.107,0l0,3.822l-12.677,0Z" style="fill:#262626;fill-rule:nonzero;"/><path d="M348.314,479.296l0,-29.891l-2.3,0l0,-3.852l7.861,0l0,6.742c1.388,-2.9 2.527,-4.826 3.418,-5.779c1.077,-1.139 2.403,-1.709 3.977,-1.709c2.072,0 3.584,0.963 4.537,2.89c0.497,1.035 0.859,2.568 1.087,4.598c0.87,-2.361 1.792,-4.081 2.765,-5.158c1.368,-1.553 2.983,-2.33 4.847,-2.33c3.874,0 5.811,2.827 5.811,8.482l0,22.185l2.175,0l0,3.822l-7.737,0l0,-23.366c0,-4.35 -0.673,-6.525 -2.02,-6.525c-0.994,0 -2.102,0.912 -3.324,2.735c-0.642,1.015 -1.139,1.957 -1.492,2.827c-0.538,1.347 -0.807,2.299 -0.807,2.859l0,17.648l2.175,0l0,3.822l-7.737,0l0,-24.795c0,-3.397 -0.684,-5.096 -2.051,-5.096c-1.802,0 -3.677,2.807 -5.624,8.421l0,17.648l2.175,0l0,3.822l-7.736,0Z" style="fill:#ff00e3;fill-rule:nonzero;"/><path d="M387.991,479.296l0,-3.822l12.118,0l0,-26.069l-12.118,0l0,-3.852l18.239,0l0,29.921l11.496,0l0,3.822l-29.735,0Zm11.186,-41.387l0,-7.674l7.519,0l0,7.674l-7.519,0Z" style="fill:#ff00e3;fill-rule:nonzero;"/><path d="M454.017,449.374l0,25.106c0,1.45 -0.026,2.894 -0.078,4.334c-0.052,1.44 -0.223,2.822 -0.513,4.148c-0.29,1.326 -0.735,2.558 -1.336,3.697c-0.6,1.14 -1.444,2.129 -2.532,2.968c-1.087,0.839 -2.46,1.501 -4.117,1.988c-1.657,0.487 -3.687,0.73 -6.09,0.73c-1.781,0 -3.723,-0.139 -5.825,-0.419c-2.103,-0.28 -4.211,-0.834 -6.323,-1.662l0,-7.675l3.821,0l0.808,4.226c0.435,0.207 0.948,0.414 1.538,0.621c0.591,0.207 1.217,0.389 1.88,0.544c0.663,0.155 1.346,0.28 2.051,0.373c0.704,0.093 1.408,0.14 2.112,0.14c1.388,0 2.564,-0.161 3.527,-0.482c0.963,-0.321 1.756,-0.766 2.377,-1.336c0.621,-0.57 1.103,-1.248 1.445,-2.035c0.342,-0.787 0.595,-1.652 0.761,-2.595c0.166,-0.942 0.264,-1.942 0.295,-2.998c0.031,-1.056 0.047,-2.144 0.047,-3.262l0,-6.184c-1.575,2.341 -3.076,4.071 -4.506,5.189c-2.133,1.657 -4.422,2.486 -6.866,2.486c-3.418,0 -6.183,-1.491 -8.296,-4.474c-2.113,-2.942 -3.169,-6.453 -3.169,-10.533c0,-2.548 0.347,-4.821 1.041,-6.82c0.693,-1.999 1.745,-3.848 3.153,-5.546c2.776,-3.398 6.639,-5.096 11.59,-5.096c1.387,0 2.63,0.072 3.728,0.217c1.098,0.145 2.206,0.321 3.325,0.529l9.849,0l0,3.821l-3.697,0Zm-6.152,0.746c-1.43,-0.228 -2.693,-0.404 -3.791,-0.528c-1.098,-0.124 -2.04,-0.187 -2.827,-0.187c-3.418,0 -5.893,1.109 -7.426,3.325c-0.767,1.119 -1.336,2.413 -1.709,3.884c-0.373,1.471 -0.559,3.242 -0.559,5.313c0,6.898 2.216,10.347 6.649,10.347c3.397,0 6.618,-2.424 9.663,-7.271l0,-14.883Z" style="fill:#ff00e3;fill-rule:nonzero;"/><path d="M476.232,457.484l0,17.99l11.186,0l0,3.822l-25.074,0l0,-3.822l7.767,0l0,-26.069l-8.047,0l0,-3.852l14.168,0l0,6.556c1.533,-2.196 2.994,-3.843 4.381,-4.941c1.989,-1.574 4.133,-2.361 6.432,-2.361c2.444,0 4.806,0.704 7.084,2.113l0,9.197l-3.853,0l-0.621,-4.847c-1.16,-0.746 -2.382,-1.119 -3.666,-1.119c-3.812,0 -7.064,2.444 -9.757,7.333Z" style="fill:#ff00e3;fill-rule:nonzero;"/><path d="M523.864,475.598c-3.583,2.983 -7.219,4.474 -10.906,4.474c-3.169,0 -5.696,-0.89 -7.581,-2.672c-1.885,-1.76 -2.828,-4.163 -2.828,-7.208c0,-3.936 1.471,-6.794 4.413,-8.576c2.941,-1.76 7.695,-2.641 14.261,-2.641l2.641,0l0,-5.22c0,-3.417 -2.113,-5.126 -6.338,-5.126c-2.134,0 -4.796,0.6 -7.986,1.802l-0.776,3.946l-3.822,0l0,-6.712c4.743,-1.926 9.58,-2.889 14.51,-2.889c3.915,0 6.649,0.673 8.203,2.019c1.553,1.368 2.33,3.719 2.33,7.054l0,21.625l4.226,0l0,3.822l-9.725,0l-0.622,-3.698Zm0,-4.66l0,-8.141l-1.647,0c-4.764,0 -8.151,0.539 -10.16,1.616c-1.988,1.077 -2.983,3.107 -2.983,6.09c0,3.666 1.927,5.499 5.78,5.499c3.044,0 6.048,-1.688 9.01,-5.064Z" style="fill:#ff00e3;fill-rule:nonzero;"/><path d="M568.202,477.4c-3.418,1.782 -6.898,2.672 -10.44,2.672c-3.335,0 -5.717,-0.776 -7.146,-2.33c-1.429,-1.533 -2.144,-4.112 -2.144,-7.737l0,-19.45l-8.637,0l0,-4.226l8.637,0l0,-8.731l6.121,0l0,8.731l13.236,0l0,4.226l-13.236,0l0,16.685c0,3.314 0.332,5.51 0.994,6.587c0.663,1.098 1.979,1.647 3.946,1.647c2.196,0 5.086,-0.798 8.669,-2.393l0,4.319Z" style="fill:#ff00e3;fill-rule:nonzero;"/><path d="M608.656,463.574l-23.955,0c0.29,2.796 0.714,4.816 1.274,6.059c1.885,4.246 5.53,6.369 10.937,6.369c3.335,0 6.949,-1.087 10.843,-3.262l0,4.629c-3.625,1.802 -7.508,2.703 -11.651,2.703c-5.365,0 -9.705,-1.646 -13.019,-4.94c-3.293,-3.293 -4.94,-7.612 -4.94,-12.956c0,-5.2 1.533,-9.394 4.598,-12.584c3.045,-3.19 7.074,-4.785 12.087,-4.785c9.218,0 13.826,5.624 13.826,16.871l0,1.896Zm-23.893,-3.822l17.369,0l0,-1.429c0,-6.463 -2.579,-9.694 -7.737,-9.694c-3.19,0 -5.655,1.274 -7.395,3.821c-1.222,1.782 -1.968,4.216 -2.237,7.302Z" style="fill:#ff00e3;fill-rule:nonzero;"/><rect x="653.771" y="457.826" width="32.034" height="4.598" style="fill:#ff1d00;fill-rule:nonzero;"/><path d="M723.37,477.866c-3.356,1.471 -7.436,2.206 -12.242,2.206c-5.862,0 -10.471,-1.636 -13.826,-4.909c-3.335,-3.273 -5.003,-7.643 -5.003,-13.112c0,-5.385 1.637,-9.601 4.909,-12.646c3.253,-3.065 7.851,-4.598 13.796,-4.598c4.412,0 8.399,0.559 11.962,1.678l0,9.632l-3.853,0l-1.087,-6.121c-2.506,-0.912 -4.961,-1.367 -7.364,-1.367c-3.646,0 -6.545,1.222 -8.7,3.666c-1.988,2.444 -2.983,5.727 -2.983,9.849c0,4.558 1.119,8.006 3.356,10.347c2.403,2.341 5.738,3.511 10.005,3.511c3.48,0 7.157,-0.839 11.03,-2.517l0,4.381Z" style="fill:#ff1d00;fill-rule:nonzero;"/><path d="M788.06,445.553l9.601,0l0,29.921l3.821,0l0,3.822l-9.973,0l0,-6.494c-1.43,2.175 -2.849,3.811 -4.257,4.909c-1.989,1.574 -4.215,2.361 -6.68,2.361c-6.256,0 -9.384,-4.018 -9.384,-12.055l0,-18.612l-3.822,0l0,-3.852l9.974,0l0,21.936c0,5.282 1.688,7.923 5.065,7.923c3.086,0 6.121,-2.662 9.104,-7.985l0,-18.022l-3.449,0l0,-3.852Z" style="fill:#262626;fill-rule:nonzero;"/><path d="M808.815,477.4l0,-9.228l3.822,0l0.776,5.686c4.06,1.574 7.509,2.362 10.347,2.362c4.93,0 7.395,-1.74 7.395,-5.22c0,-1.367 -0.414,-2.424 -1.243,-3.17c-0.828,-0.766 -2.309,-1.429 -4.443,-1.988l-6.338,-1.678c-3.543,-0.932 -6.121,-2.154 -7.737,-3.666c-1.595,-1.471 -2.393,-3.428 -2.393,-5.873c0,-6.566 4.475,-9.849 13.423,-9.849c4.578,0 8.741,0.746 12.491,2.237l0,8.886l-3.822,0l-0.777,-5.624c-2.258,-1.097 -4.899,-1.646 -7.923,-1.646c-2.279,0 -4.05,0.362 -5.313,1.087c-1.492,0.849 -2.237,2.154 -2.237,3.915c0,2.32 2.133,4.039 6.4,5.158l6.277,1.647c3.48,0.911 5.976,2.071 7.488,3.48c1.491,1.387 2.237,3.272 2.237,5.654c0,3.252 -1.274,5.811 -3.822,7.675c-2.548,1.885 -6.1,2.827 -10.657,2.827c-4.682,0 -9.332,-0.89 -13.951,-2.672Z" style="fill:#262626;fill-rule:nonzero;"/><path d="M875.959,463.574l-23.956,0c0.29,2.796 0.715,4.816 1.274,6.059c1.885,4.246 5.531,6.369 10.937,6.369c3.335,0 6.95,-1.087 10.844,-3.262l0,4.629c-3.625,1.802 -7.509,2.703 -11.652,2.703c-5.364,0 -9.704,-1.646 -13.018,-4.94c-3.294,-3.293 -4.94,-7.612 -4.94,-12.956c0,-5.2 1.532,-9.394 4.598,-12.584c3.045,-3.19 7.074,-4.785 12.087,-4.785c9.217,0 13.826,5.624 13.826,16.871l0,1.896Zm-23.893,-3.822l17.368,0l0,-1.429c0,-6.463 -2.579,-9.694 -7.736,-9.694c-3.19,0 -5.655,1.274 -7.395,3.821c-1.222,1.782 -1.968,4.216 -2.237,7.302Z" style="fill:#262626;fill-rule:nonzero;"/><path d="M896.279,457.484l0,17.99l11.186,0l0,3.822l-25.074,0l0,-3.822l7.768,0l0,-26.069l-8.048,0l0,-3.852l14.168,0l0,6.556c1.533,-2.196 2.994,-3.843 4.381,-4.941c1.989,-1.574 4.133,-2.361 6.432,-2.361c2.444,0 4.806,0.704 7.084,2.113l0,9.197l-3.852,0l-0.622,-4.847c-1.16,-0.746 -2.382,-1.119 -3.666,-1.119c-3.812,0 -7.064,2.444 -9.757,7.333Z" style="fill:#262626;fill-rule:nonzero;"/><path d="M933.533,455.247l0,-10.44l10.44,0l0,10.44l-10.44,0Zm0,24.049l0,-10.44l10.44,0l0,10.44l-10.44,0Z" style="fill:#262626;fill-rule:nonzero;"/><path d="M968.084,487.747l7.675,0l0,3.822l-17.649,0l0,-3.822l3.822,0l0,-38.342l-3.822,0l0,-3.852l9.974,0l0,6.897c1.554,-2.299 3.066,-4.018 4.537,-5.157c2.112,-1.658 4.391,-2.486 6.835,-2.486c3.418,0 6.183,1.481 8.296,4.443c2.113,2.983 3.169,6.908 3.169,11.776c0,5.924 -1.398,10.574 -4.194,13.951c-2.776,3.397 -6.598,5.095 -11.465,5.095c-1.823,0 -4.216,-0.259 -7.178,-0.776l0,8.451Zm0,-12.988c2.817,0.477 5.013,0.715 6.587,0.715c3.459,0 5.945,-1.108 7.457,-3.325c1.512,-2.216 2.268,-5.934 2.268,-11.154c0,-7.726 -2.216,-11.59 -6.649,-11.59c-3.397,0 -6.618,2.548 -9.663,7.644l0,17.71Z" style="fill:#262626;fill-rule:nonzero;"/><path d="M1020.28,475.598c-3.583,2.983 -7.219,4.474 -10.906,4.474c-3.169,0 -5.696,-0.89 -7.581,-2.672c-1.885,-1.76 -2.827,-4.163 -2.827,-7.208c0,-3.936 1.47,-6.794 4.412,-8.576c2.941,-1.76 7.695,-2.641 14.261,-2.641l2.641,0l0,-5.22c0,-3.417 -2.113,-5.126 -6.338,-5.126c-2.134,0 -4.795,0.6 -7.985,1.802l-0.777,3.946l-3.822,0l0,-6.712c4.744,-1.926 9.58,-2.889 14.51,-2.889c3.915,0 6.649,0.673 8.203,2.019c1.553,1.368 2.33,3.719 2.33,7.054l0,21.625l4.226,0l0,3.822l-9.725,0l-0.622,-3.698Zm0,-4.66l0,-8.141l-1.646,0c-4.765,0 -8.151,0.539 -10.161,1.616c-1.988,1.077 -2.982,3.107 -2.982,6.09c0,3.666 1.926,5.499 5.779,5.499c3.045,0 6.048,-1.688 9.01,-5.064Z" style="fill:#262626;fill-rule:nonzero;"/><path d="M1037.93,477.4l0,-9.228l3.821,0l0.777,5.686c4.06,1.574 7.509,2.362 10.347,2.362c4.93,0 7.394,-1.74 7.394,-5.22c0,-1.367 -0.414,-2.424 -1.242,-3.17c-0.829,-0.766 -2.31,-1.429 -4.443,-1.988l-6.339,-1.678c-3.542,-0.932 -6.121,-2.154 -7.737,-3.666c-1.595,-1.471 -2.392,-3.428 -2.392,-5.873c0,-6.566 4.474,-9.849 13.423,-9.849c4.577,0 8.741,0.746 12.49,2.237l0,8.886l-3.822,0l-0.776,-5.624c-2.258,-1.097 -4.899,-1.646 -7.923,-1.646c-2.279,0 -4.05,0.362 -5.314,1.087c-1.491,0.849 -2.237,2.154 -2.237,3.915c0,2.32 2.134,4.039 6.401,5.158l6.276,1.647c3.48,0.911 5.976,2.071 7.488,3.48c1.492,1.387 2.237,3.272 2.237,5.654c0,3.252 -1.274,5.811 -3.821,7.675c-2.548,1.885 -6.101,2.827 -10.658,2.827c-4.681,0 -9.331,-0.89 -13.95,-2.672Z" style="fill:#262626;fill-rule:nonzero;"/><path d="M1076.12,477.4l0,-9.228l3.821,0l0.777,5.686c4.06,1.574 7.509,2.362 10.347,2.362c4.93,0 7.395,-1.74 7.395,-5.22c0,-1.367 -0.415,-2.424 -1.243,-3.17c-0.829,-0.766 -2.31,-1.429 -4.443,-1.988l-6.339,-1.678c-3.542,-0.932 -6.121,-2.154 -7.736,-3.666c-1.595,-1.471 -2.393,-3.428 -2.393,-5.873c0,-6.566 4.474,-9.849 13.423,-9.849c4.577,0 8.741,0.746 12.49,2.237l0,8.886l-3.822,0l-0.776,-5.624c-2.258,-1.097 -4.899,-1.646 -7.923,-1.646c-2.279,0 -4.05,0.362 -5.314,1.087c-1.491,0.849 -2.237,2.154 -2.237,3.915c0,2.32 2.134,4.039 6.401,5.158l6.276,1.647c3.48,0.911 5.976,2.071 7.488,3.48c1.492,1.387 2.237,3.272 2.237,5.654c0,3.252 -1.273,5.811 -3.821,7.675c-2.548,1.885 -6.1,2.827 -10.658,2.827c-4.681,0 -9.331,-0.89 -13.95,-2.672Z" style="fill:#262626;fill-rule:nonzero;"/><path d="M1138.29,478.923c-3.127,1.015 -5.758,1.522 -7.892,1.522c-5.717,0 -10.274,-2.102 -13.671,-6.307c-3.397,-4.205 -5.095,-9.932 -5.095,-17.182c0,-7.354 1.677,-13.33 5.033,-17.928c3.356,-4.578 7.768,-6.867 13.236,-6.867c8.141,0 12.211,4.92 12.211,14.759l0,19.512l3.667,0l0,3.822l-7.489,0l0,-11.403l-0.776,0c-0.787,3.293 -1.865,5.903 -3.232,7.83c-1.781,2.527 -3.801,3.79 -6.059,3.79c-2.154,0 -3.914,-1.077 -5.282,-3.231c-1.387,-2.154 -2.081,-4.909 -2.081,-8.265c0,-4.536 1.18,-8.379 3.542,-11.527c2.361,-3.169 5.24,-4.754 8.637,-4.754c1.326,0 2.983,0.269 4.972,0.808c-0.601,-2.796 -1.668,-4.775 -3.2,-5.935c-1.368,-1.056 -3.128,-1.584 -5.283,-1.584c-4.225,0 -7.622,1.885 -10.191,5.655c-2.589,3.79 -3.884,8.751 -3.884,14.883c0,6.152 1.378,11.04 4.133,14.665c2.734,3.625 6.369,5.437 10.906,5.437c2.423,0 5.023,-0.662 7.798,-1.988l0,4.288Zm0,-28.43l0,-3.449c-1.719,-0.994 -3.283,-1.491 -4.691,-1.491c-2.507,0 -4.485,1.16 -5.935,3.48c-1.47,2.32 -2.206,5.427 -2.206,9.321c0,2.258 0.321,4.112 0.963,5.562c0.622,1.429 1.409,2.143 2.362,2.143c1.45,0 2.941,-1.294 4.474,-3.883c1.491,-2.507 3.169,-6.401 5.033,-11.683Z" style="fill-rule:nonzero;"/><path d="M1181.76,477.4c-3.439,1.782 -6.919,2.672 -10.44,2.672c-1.906,0 -3.496,-0.222 -4.77,-0.668c-1.274,-0.445 -2.288,-1.149 -3.045,-2.112c-0.756,-0.964 -1.294,-2.201 -1.615,-3.713c-0.321,-1.513 -0.482,-3.325 -0.482,-5.438l0,-34.085l-11.496,0l0,-3.821l17.617,0l0,35.855c0,1.927 0.073,3.501 0.218,4.723c0.145,1.222 0.429,2.175 0.854,2.859c0.425,0.683 1.031,1.149 1.818,1.398c0.787,0.249 1.833,0.373 3.138,0.373c2.568,0 5.303,-0.798 8.203,-2.393l0,4.35Z" style="fill-rule:nonzero;"/><path d="M1204.38,444.807c4.868,0 8.69,1.564 11.465,4.692c2.797,3.127 4.195,7.426 4.195,12.894c0,5.551 -1.398,9.881 -4.195,12.988c-2.796,3.127 -6.701,4.691 -11.713,4.691c-4.247,0 -7.706,-1.294 -10.378,-3.884c-3.335,-3.21 -5.002,-7.798 -5.002,-13.764c0,-5.489 1.398,-9.798 4.194,-12.925c2.796,-3.128 6.608,-4.692 11.434,-4.692Zm0,3.822c-6.007,0 -9.01,4.577 -9.01,13.733c0,9.259 3.003,13.889 9.01,13.889c6.028,0 9.042,-4.63 9.042,-13.889c0,-9.156 -3.014,-13.733 -9.042,-13.733Z" style="fill-rule:nonzero;"/><path d="M1257.98,477.866c-3.355,1.471 -7.436,2.206 -12.242,2.206c-5.862,0 -10.47,-1.636 -13.826,-4.909c-3.335,-3.273 -5.002,-7.643 -5.002,-13.112c0,-5.385 1.636,-9.601 4.909,-12.646c3.252,-3.065 7.85,-4.598 13.795,-4.598c4.412,0 8.4,0.559 11.962,1.678l0,9.632l-3.852,0l-1.088,-6.121c-2.506,-0.912 -4.961,-1.367 -7.364,-1.367c-3.645,0 -6.545,1.222 -8.699,3.666c-1.989,2.444 -2.983,5.727 -2.983,9.849c0,4.558 1.118,8.006 3.355,10.347c2.403,2.341 5.738,3.511 10.005,3.511c3.48,0 7.157,-0.839 11.03,-2.517l0,4.381Z" style="fill-rule:nonzero;"/><path d="M1287.59,475.598c-3.584,2.983 -7.219,4.474 -10.906,4.474c-3.169,0 -5.696,-0.89 -7.581,-2.672c-1.885,-1.76 -2.828,-4.163 -2.828,-7.208c0,-3.936 1.471,-6.794 4.412,-8.576c2.942,-1.76 7.696,-2.641 14.262,-2.641l2.641,0l0,-5.22c0,-3.417 -2.113,-5.126 -6.339,-5.126c-2.133,0 -4.795,0.6 -7.985,1.802l-0.776,3.946l-3.822,0l0,-6.712c4.743,-1.926 9.58,-2.889 14.51,-2.889c3.915,0 6.649,0.673 8.203,2.019c1.553,1.368 2.33,3.719 2.33,7.054l0,21.625l4.226,0l0,3.822l-9.726,0l-0.621,-3.698Zm0,-4.66l0,-8.141l-1.647,0c-4.764,0 -8.151,0.539 -10.16,1.616c-1.989,1.077 -2.983,3.107 -2.983,6.09c0,3.666 1.927,5.499 5.779,5.499c3.045,0 6.049,-1.688 9.011,-5.064Z" style="fill-rule:nonzero;"/><path d="M1334.5,477.4c-3.439,1.782 -6.918,2.672 -10.44,2.672c-1.906,0 -3.495,-0.222 -4.769,-0.668c-1.274,-0.445 -2.289,-1.149 -3.045,-2.112c-0.756,-0.964 -1.295,-2.201 -1.616,-3.713c-0.321,-1.513 -0.481,-3.325 -0.481,-5.438l0,-34.085l-11.497,0l0,-3.821l17.617,0l0,35.855c0,1.927 0.073,3.501 0.218,4.723c0.145,1.222 0.43,2.175 0.854,2.859c0.425,0.683 1.031,1.149 1.818,1.398c0.787,0.249 1.833,0.373 3.138,0.373c2.569,0 5.303,-0.798 8.203,-2.393l0,4.35Z" style="fill-rule:nonzero;"/><path d="M1340.59,479.296l0,-3.822l3.418,0l0,-41.418l-3.822,0l0,-3.821l9.974,0l0,21.843c1.429,-2.175 2.848,-3.812 4.256,-4.91c1.989,-1.574 4.216,-2.361 6.681,-2.361c6.234,0 9.352,4.018 9.352,12.055l0,18.612l3.853,0l0,3.822l-9.974,0l0,-21.905c0,-5.324 -1.688,-7.986 -5.065,-7.986c-3.107,0 -6.141,2.673 -9.103,8.017l0,18.052l3.449,0l0,3.822l-13.019,0Z" style="fill-rule:nonzero;"/><path d="M1395.31,444.807c4.867,0 8.689,1.564 11.465,4.692c2.796,3.127 4.194,7.426 4.194,12.894c0,5.551 -1.398,9.881 -4.194,12.988c-2.797,3.127 -6.701,4.691 -11.714,4.691c-4.246,0 -7.706,-1.294 -10.378,-3.884c-3.335,-3.21 -5.002,-7.798 -5.002,-13.764c0,-5.489 1.398,-9.798 4.195,-12.925c2.796,-3.128 6.607,-4.692 11.434,-4.692Zm0,3.822c-6.007,0 -9.011,4.577 -9.011,13.733c0,9.259 3.004,13.889 9.011,13.889c6.027,0 9.041,-4.63 9.041,-13.889c0,-9.156 -3.014,-13.733 -9.041,-13.733Z" style="fill-rule:nonzero;"/><path d="M1419.79,477.4l0,-9.228l3.822,0l0.777,5.686c4.06,1.574 7.509,2.362 10.347,2.362c4.929,0 7.394,-1.74 7.394,-5.22c0,-1.367 -0.414,-2.424 -1.242,-3.17c-0.829,-0.766 -2.31,-1.429 -4.444,-1.988l-6.338,-1.678c-3.542,-0.932 -6.121,-2.154 -7.737,-3.666c-1.595,-1.471 -2.392,-3.428 -2.392,-5.873c0,-6.566 4.474,-9.849 13.423,-9.849c4.577,0 8.741,0.746 12.49,2.237l0,8.886l-3.822,0l-0.776,-5.624c-2.258,-1.097 -4.899,-1.646 -7.924,-1.646c-2.278,0 -4.049,0.362 -5.313,1.087c-1.491,0.849 -2.237,2.154 -2.237,3.915c0,2.32 2.134,4.039 6.401,5.158l6.276,1.647c3.48,0.911 5.976,2.071 7.488,3.48c1.492,1.387 2.237,3.272 2.237,5.654c0,3.252 -1.274,5.811 -3.821,7.675c-2.548,1.885 -6.101,2.827 -10.658,2.827c-4.681,0 -9.331,-0.89 -13.951,-2.672Z" style="fill-rule:nonzero;"/><path d="M1484.67,477.4c-3.417,1.782 -6.897,2.672 -10.439,2.672c-3.335,0 -5.717,-0.776 -7.147,-2.33c-1.429,-1.533 -2.144,-4.112 -2.144,-7.737l0,-19.45l-8.637,0l0,-4.226l8.637,0l0,-8.731l6.121,0l0,8.731l13.237,0l0,4.226l-13.237,0l0,16.685c0,3.314 0.332,5.51 0.995,6.587c0.663,1.098 1.978,1.647 3.946,1.647c2.195,0 5.085,-0.798 8.668,-2.393l0,4.319Z" style="fill-rule:nonzero;"/><path d="M1506.33,455.247l0,-10.44l10.44,0l0,10.44l-10.44,0Zm0,24.049l0,-10.44l10.44,0l0,10.44l-10.44,0Z" style="fill-rule:nonzero;"/><path d="M1534.72,478.985l0,-11.621l3.821,0l0.777,7.644c1.781,1.077 3.905,1.615 6.37,1.615c3.169,0 5.686,-0.901 7.55,-2.703c1.864,-1.802 2.796,-4.246 2.796,-7.332c0,-6.608 -4.308,-9.912 -12.925,-9.912l-4.195,0l0,-3.822l3.542,0c8.182,0 12.273,-3.065 12.273,-9.197c0,-2.361 -0.756,-4.225 -2.268,-5.592c-1.491,-1.388 -3.552,-2.082 -6.183,-2.082c-2.444,0 -4.536,0.404 -6.276,1.212l-0.373,6.493l-3.853,0l0,-9.88c3.998,-1.098 7.706,-1.647 11.123,-1.647c9.384,0 14.075,3.656 14.075,10.968c0,3.376 -1.087,6.1 -3.262,8.172c-1.326,1.222 -3.221,2.289 -5.686,3.2c2.175,0.642 3.832,1.315 4.971,2.02c3.708,2.299 5.562,5.758 5.562,10.377c0,4.019 -1.429,7.281 -4.288,9.788c-2.858,2.506 -6.659,3.759 -11.403,3.759c-3.21,0 -6.38,-0.311 -9.507,-0.932l-2.641,-0.528Z" style="fill-rule:nonzero;"/><path d="M1572.91,478.985l0,-11.621l3.821,0l0.777,7.644c1.782,1.077 3.905,1.615 6.37,1.615c3.169,0 5.686,-0.901 7.55,-2.703c1.864,-1.802 2.796,-4.246 2.796,-7.332c0,-6.608 -4.308,-9.912 -12.925,-9.912l-4.195,0l0,-3.822l3.542,0c8.182,0 12.273,-3.065 12.273,-9.197c0,-2.361 -0.756,-4.225 -2.268,-5.592c-1.491,-1.388 -3.552,-2.082 -6.183,-2.082c-2.444,0 -4.536,0.404 -6.276,1.212l-0.373,6.493l-3.853,0l0,-9.88c3.998,-1.098 7.706,-1.647 11.123,-1.647c9.384,0 14.076,3.656 14.076,10.968c0,3.376 -1.088,6.1 -3.263,8.172c-1.326,1.222 -3.221,2.289 -5.686,3.2c2.175,0.642 3.832,1.315 4.972,2.02c3.707,2.299 5.561,5.758 5.561,10.377c0,4.019 -1.429,7.281 -4.288,9.788c-2.858,2.506 -6.659,3.759 -11.403,3.759c-3.21,0 -6.379,-0.311 -9.507,-0.932l-2.641,-0.528Z" style="fill-rule:nonzero;"/><path d="M1624.42,432.161c4.972,0 8.897,2.154 11.776,6.463c2.879,4.288 4.319,10.16 4.319,17.617c0,7.581 -1.44,13.505 -4.319,17.773c-2.879,4.287 -6.887,6.431 -12.024,6.431c-4.371,0 -7.923,-1.75 -10.658,-5.251c-3.459,-4.433 -5.189,-10.74 -5.189,-18.922c0,-7.478 1.44,-13.36 4.319,-17.648c2.88,-4.309 6.805,-6.463 11.776,-6.463Zm-7.022,39.118c1.616,3.563 3.946,5.344 6.991,5.344c6.359,0 9.539,-6.773 9.539,-20.32c0,-2.796 -0.155,-5.292 -0.466,-7.488l-17.338,18.798c0.352,1.367 0.777,2.589 1.274,3.666Zm7.022,-35.296c-3.045,0 -5.385,1.76 -7.022,5.282c-1.636,3.542 -2.454,8.534 -2.454,14.976c0,2.796 0.145,5.313 0.435,7.55l17.368,-18.829c-0.352,-1.388 -0.777,-2.63 -1.274,-3.728c-1.657,-3.501 -4.008,-5.251 -7.053,-5.251Z" style="fill-rule:nonzero;"/><path d="M1653.94,455.278c1.325,-1.823 2.713,-3.19 4.163,-4.102c2.134,-1.325 4.588,-1.988 7.364,-1.988c3.935,0 7.125,1.388 9.57,4.163c2.444,2.755 3.666,6.37 3.666,10.844c0,4.785 -1.419,8.69 -4.257,11.714c-2.838,3.024 -6.494,4.536 -10.968,4.536c-5.054,0 -9.01,-2.05 -11.869,-6.152c-2.858,-4.122 -4.288,-9.808 -4.288,-17.058c0,-7.975 1.689,-14.147 5.065,-18.518c3.376,-4.371 8.068,-6.556 14.075,-6.556c2.651,0 6.028,0.735 10.129,2.206l0,9.85l-3.853,0l-0.714,-6.525c-1.802,-1.14 -3.646,-1.709 -5.531,-1.709c-4.453,0 -7.809,2.237 -10.067,6.711c-1.595,3.128 -2.423,7.322 -2.485,12.584Zm10.377,-2.051c-2.796,0 -5.147,1.067 -7.053,3.2c-1.906,2.113 -2.858,4.765 -2.858,7.955c0,3.314 0.963,6.183 2.889,8.606c1.927,2.424 4.247,3.635 6.96,3.635c2.299,0 4.153,-0.818 5.562,-2.454c1.781,-2.071 2.672,-5.158 2.672,-9.259c0,-7.789 -2.724,-11.683 -8.172,-11.683Z" style="fill-rule:nonzero;"/><rect x="1722.98" y="457.826" width="32.034" height="4.598" style="fill:#ff0400;fill-rule:nonzero;"/><path d="M1784.38,434.056l-7.643,0l0,-3.821l13.795,0l0,45.239l3.822,0l0,3.822l-9.974,0l0,-6.898c-1.554,2.299 -3.055,4.029 -4.505,5.189c-2.113,1.657 -4.402,2.485 -6.867,2.485c-3.418,0 -6.183,-1.491 -8.296,-4.474c-2.113,-2.962 -3.169,-6.887 -3.169,-11.776c0,-5.903 1.398,-10.543 4.194,-13.919c2.776,-3.398 6.629,-5.096 11.559,-5.096c1.802,0 4.163,0.248 7.084,0.746l0,-11.497Zm0,15.505c-2.817,-0.456 -5.023,-0.684 -6.618,-0.684c-3.418,0 -5.893,1.108 -7.426,3.325c-1.512,2.195 -2.268,6.007 -2.268,11.434c0,7.892 2.216,11.838 6.649,11.838c3.397,0 6.618,-2.424 9.663,-7.271l0,-18.642Z" style="fill:#ff0400;fill-rule:nonzero;"/><path d="M1837.57,479.296l0,-29.891l-2.299,0l0,-3.852l7.861,0l0,6.742c1.388,-2.9 2.527,-4.826 3.418,-5.779c1.077,-1.139 2.403,-1.709 3.977,-1.709c2.071,0 3.583,0.963 4.536,2.89c0.497,1.035 0.86,2.568 1.088,4.598c0.87,-2.361 1.791,-4.081 2.765,-5.158c1.367,-1.553 2.983,-2.33 4.847,-2.33c3.874,0 5.81,2.827 5.81,8.482l0,22.185l2.175,0l0,3.822l-7.736,0l0,-23.366c0,-4.35 -0.674,-6.525 -2.02,-6.525c-0.994,0 -2.102,0.912 -3.325,2.735c-0.642,1.015 -1.139,1.957 -1.491,2.827c-0.539,1.347 -0.808,2.299 -0.808,2.859l0,17.648l2.175,0l0,3.822l-7.736,0l0,-24.795c0,-3.397 -0.684,-5.096 -2.051,-5.096c-1.802,0 -3.677,2.807 -5.624,8.421l0,17.648l2.175,0l0,3.822l-7.737,0Z" style="fill:#262626;fill-rule:nonzero;"/><path d="M1888.62,479.296l-11.963,-29.891l-2.299,0l0,-3.852l13.889,0l0,3.852l-4.971,0l9.663,24.174l0.062,0l9.663,-24.174l-4.972,0l0,-3.852l11.403,0l0,3.852l-2.299,0l-11.962,29.891l-3.356,8.42l4.599,0l0,3.853l-14.883,0l0,-3.853l6.152,0l3.356,-8.42l-2.082,0Z" style="fill:#262626;fill-rule:nonzero;"/><rect x="1913.91" y="457.826" width="32.034" height="4.598" style="fill:#262626;fill-rule:nonzero;"/><path d="M1975.31,434.056l-7.643,0l0,-3.821l13.795,0l0,45.239l3.822,0l0,3.822l-9.974,0l0,-6.898c-1.553,2.299 -3.055,4.029 -4.505,5.189c-2.113,1.657 -4.402,2.485 -6.866,2.485c-3.418,0 -6.184,-1.491 -8.296,-4.474c-2.113,-2.962 -3.17,-6.887 -3.17,-11.776c0,-5.903 1.399,-10.543 4.195,-13.919c2.776,-3.398 6.628,-5.096 11.558,-5.096c1.802,0 4.164,0.248 7.084,0.746l0,-11.497Zm0,15.505c-2.817,-0.456 -5.023,-0.684 -6.618,-0.684c-3.417,0 -5.893,1.108 -7.426,3.325c-1.512,2.195 -2.268,6.007 -2.268,11.434c0,7.892 2.217,11.838 6.649,11.838c3.398,0 6.619,-2.424 9.663,-7.271l0,-18.642Z" style="fill:#262626;fill-rule:nonzero;"/><path d="M1999.11,479.296l-6.152,0l0,-45.24l-3.822,0l0,-3.821l9.974,0l0,22.215c1.553,-2.299 3.065,-4.018 4.536,-5.157c2.113,-1.658 4.391,-2.486 6.836,-2.486c3.417,0 6.183,1.481 8.296,4.443c2.112,2.983 3.169,6.908 3.169,11.776c0,5.924 -1.398,10.574 -4.195,13.951c-2.775,3.397 -6.597,5.095 -11.465,5.095c-1.823,0 -4.215,-0.259 -7.177,-0.776Zm0,-4.009c2.817,0.477 5.013,0.715 6.587,0.715c3.459,0 5.945,-1.108 7.457,-3.325c1.512,-2.216 2.268,-5.996 2.268,-11.34c0,-7.706 -2.216,-11.559 -6.649,-11.559c-3.397,0 -6.618,2.424 -9.663,7.271l0,18.238Z" style="fill:#262626;fill-rule:nonzero;"/><rect x="2066.66" y="457.826" width="32.034" height="4.598" style="fill:#ff0002;fill-rule:nonzero;"/><path d="M2120.84,444.807c4.868,0 8.69,1.564 11.466,4.692c2.796,3.127 4.194,7.426 4.194,12.894c0,5.551 -1.398,9.881 -4.194,12.988c-2.797,3.127 -6.701,4.691 -11.714,4.691c-4.247,0 -7.706,-1.294 -10.378,-3.884c-3.335,-3.21 -5.002,-7.798 -5.002,-13.764c0,-5.489 1.398,-9.798 4.194,-12.925c2.797,-3.128 6.608,-4.692 11.434,-4.692Zm0,3.822c-6.007,0 -9.01,4.577 -9.01,13.733c0,9.259 3.003,13.889 9.01,13.889c6.028,0 9.042,-4.63 9.042,-13.889c0,-9.156 -3.014,-13.733 -9.042,-13.733Z" style="fill:#ff0002;fill-rule:nonzero;"/><path d="M2181.25,479.296l0,-29.891l-2.299,0l0,-3.852l7.861,0l0,6.742c1.388,-2.9 2.527,-4.826 3.418,-5.779c1.077,-1.139 2.402,-1.709 3.977,-1.709c2.071,0 3.583,0.963 4.536,2.89c0.497,1.035 0.86,2.568 1.088,4.598c0.87,-2.361 1.791,-4.081 2.765,-5.158c1.367,-1.553 2.983,-2.33 4.847,-2.33c3.873,0 5.81,2.827 5.81,8.482l0,22.185l2.175,0l0,3.822l-7.737,0l0,-23.366c0,-4.35 -0.673,-6.525 -2.019,-6.525c-0.994,0 -2.103,0.912 -3.325,2.735c-0.642,1.015 -1.139,1.957 -1.491,2.827c-0.539,1.347 -0.808,2.299 -0.808,2.859l0,17.648l2.175,0l0,3.822l-7.737,0l0,-24.795c0,-3.397 -0.683,-5.096 -2.05,-5.096c-1.802,0 -3.677,2.807 -5.624,8.421l0,17.648l2.175,0l0,3.822l-7.737,0Z" style="fill:#262626;fill-rule:nonzero;"/><path d="M2220.92,479.296l0,-3.822l12.117,0l0,-26.069l-12.117,0l0,-3.852l18.238,0l0,29.921l11.496,0l0,3.822l-29.734,0Zm11.185,-41.387l0,-7.674l7.519,0l0,7.674l-7.519,0Z" style="fill:#262626;fill-rule:nonzero;"/><path d="M2286.95,449.374l0,25.106c0,1.45 -0.026,2.894 -0.077,4.334c-0.052,1.44 -0.223,2.822 -0.513,4.148c-0.29,1.326 -0.735,2.558 -1.336,3.697c-0.601,1.14 -1.445,2.129 -2.532,2.968c-1.088,0.839 -2.46,1.501 -4.117,1.988c-1.657,0.487 -3.687,0.73 -6.09,0.73c-1.782,0 -3.724,-0.139 -5.826,-0.419c-2.102,-0.28 -4.21,-0.834 -6.323,-1.662l0,-7.675l3.822,0l0.808,4.226c0.435,0.207 0.947,0.414 1.538,0.621c0.59,0.207 1.217,0.389 1.879,0.544c0.663,0.155 1.347,0.28 2.051,0.373c0.704,0.093 1.409,0.14 2.113,0.14c1.388,0 2.563,-0.161 3.526,-0.482c0.964,-0.321 1.756,-0.766 2.377,-1.336c0.622,-0.57 1.103,-1.248 1.445,-2.035c0.342,-0.787 0.596,-1.652 0.761,-2.595c0.166,-0.942 0.265,-1.942 0.296,-2.998c0.031,-1.056 0.046,-2.144 0.046,-3.262l0,-6.184c-1.574,2.341 -3.076,4.071 -4.505,5.189c-2.134,1.657 -4.422,2.486 -6.867,2.486c-3.418,0 -6.183,-1.491 -8.296,-4.474c-2.112,-2.942 -3.169,-6.453 -3.169,-10.533c0,-2.548 0.347,-4.821 1.041,-6.82c0.694,-1.999 1.745,-3.848 3.154,-5.546c2.775,-3.398 6.638,-5.096 11.589,-5.096c1.388,0 2.631,0.072 3.729,0.217c1.097,0.145 2.206,0.321 3.324,0.529l9.85,0l0,3.821l-3.698,0Zm-6.152,0.746c-1.429,-0.228 -2.693,-0.404 -3.79,-0.528c-1.098,-0.124 -2.041,-0.187 -2.828,-0.187c-3.418,0 -5.893,1.109 -7.426,3.325c-0.766,1.119 -1.336,2.413 -1.709,3.884c-0.373,1.471 -0.559,3.242 -0.559,5.313c0,6.898 2.216,10.347 6.649,10.347c3.397,0 6.618,-2.424 9.663,-7.271l0,-14.883Z" style="fill:#262626;fill-rule:nonzero;"/><path d="M2309.16,457.484l0,17.99l11.185,0l0,3.822l-25.074,0l0,-3.822l7.768,0l0,-26.069l-8.047,0l0,-3.852l14.168,0l0,6.556c1.533,-2.196 2.993,-3.843 4.381,-4.941c1.988,-1.574 4.132,-2.361 6.432,-2.361c2.444,0 4.805,0.704 7.084,2.113l0,9.197l-3.853,0l-0.621,-4.847c-1.16,-0.746 -2.383,-1.119 -3.667,-1.119c-3.811,0 -7.063,2.444 -9.756,7.333Z" style="fill:#262626;fill-rule:nonzero;"/><path d="M2356.8,475.598c-3.584,2.983 -7.219,4.474 -10.906,4.474c-3.17,0 -5.697,-0.89 -7.582,-2.672c-1.885,-1.76 -2.827,-4.163 -2.827,-7.208c0,-3.936 1.471,-6.794 4.412,-8.576c2.941,-1.76 7.695,-2.641 14.262,-2.641l2.641,0l0,-5.22c0,-3.417 -2.113,-5.126 -6.339,-5.126c-2.133,0 -4.795,0.6 -7.985,1.802l-0.777,3.946l-3.822,0l0,-6.712c4.744,-1.926 9.581,-2.889 14.51,-2.889c3.915,0 6.65,0.673 8.203,2.019c1.554,1.368 2.331,3.719 2.331,7.054l0,21.625l4.225,0l0,3.822l-9.725,0l-0.621,-3.698Zm0,-4.66l0,-8.141l-1.647,0c-4.764,0 -8.151,0.539 -10.16,1.616c-1.989,1.077 -2.983,3.107 -2.983,6.09c0,3.666 1.926,5.499 5.779,5.499c3.045,0 6.048,-1.688 9.011,-5.064Z" style="fill:#262626;fill-rule:nonzero;"/><path d="M2401.14,477.4c-3.418,1.782 -6.898,2.672 -10.44,2.672c-3.335,0 -5.717,-0.776 -7.146,-2.33c-1.43,-1.533 -2.144,-4.112 -2.144,-7.737l0,-19.45l-8.638,0l0,-4.226l8.638,0l0,-8.731l6.121,0l0,8.731l13.236,0l0,4.226l-13.236,0l0,16.685c0,3.314 0.331,5.51 0.994,6.587c0.663,1.098 1.978,1.647 3.946,1.647c2.196,0 5.085,-0.798 8.669,-2.393l0,4.319Z" style="fill:#262626;fill-rule:nonzero;"/><path d="M2411.85,479.296l0,-3.822l12.118,0l0,-26.069l-12.118,0l0,-3.852l18.239,0l0,29.921l11.496,0l0,3.822l-29.735,0Zm11.186,-41.387l0,-7.674l7.519,0l0,7.674l-7.519,0Z" style="fill:#262626;fill-rule:nonzero;"/><path d="M2464.52,444.807c4.868,0 8.69,1.564 11.465,4.692c2.797,3.127 4.195,7.426 4.195,12.894c0,5.551 -1.398,9.881 -4.195,12.988c-2.796,3.127 -6.701,4.691 -11.713,4.691c-4.247,0 -7.706,-1.294 -10.378,-3.884c-3.335,-3.21 -5.002,-7.798 -5.002,-13.764c0,-5.489 1.398,-9.798 4.194,-12.925c2.797,-3.128 6.608,-4.692 11.434,-4.692Zm0,3.822c-6.007,0 -9.01,4.577 -9.01,13.733c0,9.259 3.003,13.889 9.01,13.889c6.028,0 9.042,-4.63 9.042,-13.889c0,-9.156 -3.014,-13.733 -9.042,-13.733Z" style="fill:#262626;fill-rule:nonzero;"/><path d="M2486.18,479.296l0,-3.822l3.417,0l0,-26.069l-3.728,0l0,-3.852l9.88,0l0,6.525c1.43,-2.175 2.849,-3.812 4.257,-4.91c1.989,-1.574 4.215,-2.361 6.68,-2.361c6.235,0 9.353,4.018 9.353,12.055l0,18.612l3.728,0l0,3.822l-9.849,0l0,-21.905c0,-5.324 -1.688,-7.986 -5.065,-7.986c-3.107,0 -6.141,2.673 -9.104,8.017l0,18.052l3.108,0l0,3.822l-12.677,0Z" style="fill:#262626;fill-rule:nonzero;"/><path d="M2527.19,477.4l0,-9.228l3.822,0l0.777,5.686c4.06,1.574 7.508,2.362 10.346,2.362c4.93,0 7.395,-1.74 7.395,-5.22c0,-1.367 -0.414,-2.424 -1.243,-3.17c-0.828,-0.766 -2.309,-1.429 -4.443,-1.988l-6.338,-1.678c-3.542,-0.932 -6.121,-2.154 -7.737,-3.666c-1.595,-1.471 -2.392,-3.428 -2.392,-5.873c0,-6.566 4.474,-9.849 13.422,-9.849c4.578,0 8.741,0.746 12.491,2.237l0,8.886l-3.822,0l-0.777,-5.624c-2.258,-1.097 -4.899,-1.646 -7.923,-1.646c-2.278,0 -4.049,0.362 -5.313,1.087c-1.491,0.849 -2.237,2.154 -2.237,3.915c0,2.32 2.133,4.039 6.401,5.158l6.276,1.647c3.48,0.911 5.976,2.071 7.488,3.48c1.491,1.387 2.237,3.272 2.237,5.654c0,3.252 -1.274,5.811 -3.822,7.675c-2.548,1.885 -6.1,2.827 -10.657,2.827c-4.681,0 -9.332,-0.89 -13.951,-2.672Z" style="fill:#262626;fill-rule:nonzero;"/></g><g><rect x="1.532" y="120.685" width="2560.68" height="77.059" style="fill:#f4f6f9;fill-rule:nonzero;"/><path d="M4.787,183.68l0,-31.319l-2.409,0l0,-4.036l8.237,0l0,7.064c1.454,-3.038 2.648,-5.057 3.581,-6.055c1.128,-1.194 2.517,-1.791 4.167,-1.791c2.17,0 3.755,1.009 4.753,3.028c0.521,1.085 0.901,2.691 1.139,4.818c0.912,-2.474 1.878,-4.276 2.898,-5.404c1.432,-1.628 3.125,-2.442 5.079,-2.442c4.058,0 6.087,2.963 6.087,8.888l0,23.244l2.279,0l0,4.005l-8.106,0l0,-24.482c0,-4.558 -0.705,-6.837 -2.116,-6.837c-1.042,0 -2.203,0.955 -3.484,2.865c-0.672,1.064 -1.193,2.051 -1.562,2.963c-0.564,1.411 -0.847,2.409 -0.847,2.995l0,18.491l2.279,0l0,4.005l-8.106,0l0,-25.98c0,-3.559 -0.716,-5.339 -2.149,-5.339c-1.888,0 -3.852,2.941 -5.892,8.823l0,18.491l2.279,0l0,4.005l-8.107,0Z" style="fill:#262626;fill-rule:nonzero;"/><path d="M61.531,147.543c5.101,0 9.105,1.639 12.013,4.916c2.93,3.277 4.395,7.781 4.395,13.511c0,5.816 -1.465,10.352 -4.395,13.608c-2.93,3.277 -7.021,4.916 -12.273,4.916c-4.449,0 -8.074,-1.357 -10.874,-4.07c-3.494,-3.364 -5.241,-8.171 -5.241,-14.422c0,-5.751 1.465,-10.266 4.395,-13.543c2.93,-3.277 6.924,-4.916 11.98,-4.916Zm0,4.004c-6.294,0 -9.441,4.797 -9.441,14.39c0,9.702 3.147,14.552 9.441,14.552c6.316,0 9.474,-4.85 9.474,-14.552c0,-9.593 -3.158,-14.39 -9.474,-14.39Z" style="fill:#262626;fill-rule:nonzero;"/><path d="M109.095,136.279l-8.009,0l0,-4.004l14.455,0l0,47.4l4.004,0l0,4.005l-10.45,0l0,-7.228c-1.628,2.41 -3.201,4.222 -4.721,5.437c-2.213,1.736 -4.612,2.605 -7.194,2.605c-3.581,0 -6.479,-1.563 -8.693,-4.688c-2.213,-3.104 -3.32,-7.217 -3.32,-12.339c0,-6.185 1.465,-11.047 4.395,-14.585c2.908,-3.559 6.945,-5.339 12.11,-5.339c1.889,0 4.363,0.261 7.423,0.782l0,-12.046Zm0,16.245c-2.952,-0.477 -5.263,-0.716 -6.934,-0.716c-3.581,0 -6.175,1.161 -7.781,3.483c-1.584,2.301 -2.377,6.294 -2.377,11.981c0,8.269 2.323,12.403 6.967,12.403c3.56,0 6.935,-2.539 10.125,-7.618l0,-19.533Z" style="fill:#262626;fill-rule:nonzero;"/><path d="M157.537,167.207l-25.1,0c0.304,2.93 0.749,5.046 1.335,6.348c1.975,4.449 5.795,6.674 11.459,6.674c3.495,0 7.282,-1.14 11.362,-3.418l0,4.85c-3.798,1.888 -7.867,2.833 -12.208,2.833c-5.621,0 -10.168,-1.726 -13.641,-5.177c-3.451,-3.451 -5.176,-7.976 -5.176,-13.575c0,-5.448 1.606,-9.843 4.818,-13.185c3.191,-3.343 7.412,-5.014 12.664,-5.014c9.658,0 14.487,5.893 14.487,17.678l0,1.986Zm-25.035,-4.005l18.199,0l0,-1.497c0,-6.772 -2.702,-10.158 -8.107,-10.158c-3.342,0 -5.925,1.335 -7.748,4.005c-1.28,1.866 -2.062,4.416 -2.344,7.65Z" style="fill:#262626;fill-rule:nonzero;"/><path d="M197.874,181.694c-3.603,1.866 -7.249,2.8 -10.939,2.8c-1.997,0 -3.663,-0.234 -4.997,-0.7c-1.335,-0.467 -2.399,-1.205 -3.191,-2.214c-0.792,-1.009 -1.356,-2.306 -1.693,-3.89c-0.336,-1.585 -0.504,-3.484 -0.504,-5.698l0,-35.713l-12.046,0l0,-4.004l18.459,0l0,37.569c0,2.018 0.076,3.668 0.228,4.948c0.152,1.281 0.45,2.279 0.895,2.995c0.445,0.716 1.08,1.205 1.905,1.465c0.825,0.261 1.921,0.391 3.288,0.391c2.691,0 5.556,-0.836 8.595,-2.507l0,4.558Z" style="fill:#262626;fill-rule:nonzero;"/><path d="M235.573,152.329l0,26.305c0,1.519 -0.027,3.033 -0.082,4.541c-0.054,1.508 -0.233,2.957 -0.537,4.346c-0.304,1.389 -0.77,2.681 -1.4,3.874c-0.629,1.194 -1.513,2.23 -2.653,3.109c-1.139,0.879 -2.577,1.574 -4.313,2.084c-1.737,0.51 -3.864,0.765 -6.381,0.765c-1.867,0 -3.902,-0.147 -6.105,-0.44c-2.202,-0.293 -4.411,-0.873 -6.625,-1.741l0,-8.041l4.005,0l0.846,4.427c0.456,0.217 0.993,0.434 1.612,0.651c0.618,0.217 1.275,0.407 1.969,0.57c0.695,0.163 1.411,0.293 2.149,0.391c0.738,0.097 1.476,0.146 2.214,0.146c1.454,0 2.686,-0.168 3.695,-0.504c1.009,-0.337 1.839,-0.804 2.49,-1.4c0.651,-0.597 1.156,-1.308 1.514,-2.133c0.358,-0.824 0.624,-1.731 0.798,-2.718c0.173,-0.988 0.276,-2.035 0.309,-3.142c0.033,-1.107 0.049,-2.246 0.049,-3.418l0,-6.479c-1.65,2.453 -3.223,4.265 -4.721,5.437c-2.235,1.736 -4.633,2.605 -7.194,2.605c-3.582,0 -6.479,-1.563 -8.693,-4.688c-2.214,-3.082 -3.32,-6.761 -3.32,-11.037c0,-2.669 0.363,-5.051 1.09,-7.146c0.727,-2.094 1.829,-4.031 3.305,-5.811c2.908,-3.559 6.956,-5.339 12.143,-5.339c1.454,0 2.756,0.076 3.906,0.228c1.151,0.152 2.312,0.336 3.484,0.554l10.32,0l0,4.004l-3.874,0Zm-6.446,0.781c-1.498,-0.239 -2.822,-0.423 -3.972,-0.553c-1.15,-0.131 -2.138,-0.196 -2.962,-0.196c-3.582,0 -6.175,1.162 -7.781,3.484c-0.803,1.172 -1.4,2.528 -1.791,4.069c-0.39,1.541 -0.586,3.397 -0.586,5.567c0,7.228 2.323,10.841 6.967,10.841c3.559,0 6.934,-2.539 10.125,-7.618l0,-15.594Z" style="fill:#262626;fill-rule:nonzero;"/><path d="M277.569,167.207l-25.1,0c0.304,2.93 0.749,5.046 1.335,6.348c1.975,4.449 5.795,6.674 11.459,6.674c3.495,0 7.282,-1.14 11.362,-3.418l0,4.85c-3.798,1.888 -7.867,2.833 -12.208,2.833c-5.621,0 -10.168,-1.726 -13.641,-5.177c-3.451,-3.451 -5.176,-7.976 -5.176,-13.575c0,-5.448 1.606,-9.843 4.818,-13.185c3.191,-3.343 7.412,-5.014 12.664,-5.014c9.658,0 14.487,5.893 14.487,17.678l0,1.986Zm-25.035,-4.005l18.199,0l0,-1.497c0,-6.772 -2.702,-10.158 -8.107,-10.158c-3.342,0 -5.925,1.335 -7.748,4.005c-1.28,1.866 -2.062,4.416 -2.344,7.65Z" style="fill:#262626;fill-rule:nonzero;"/><path d="M284.276,183.68l0,-4.005l3.581,0l0,-27.314l-3.907,0l0,-4.036l10.353,0l0,6.836c1.497,-2.279 2.984,-3.993 4.46,-5.144c2.083,-1.649 4.417,-2.474 6.999,-2.474c6.533,0 9.8,4.211 9.8,12.632l0,19.5l3.906,0l0,4.005l-10.32,0l0,-22.952c0,-5.578 -1.769,-8.367 -5.306,-8.367c-3.256,0 -6.436,2.8 -9.539,8.4l0,18.914l3.255,0l0,4.005l-13.282,0Z" style="fill:#262626;fill-rule:nonzero;"/><path d="M395.615,152.329l0,26.305c0,1.519 -0.027,3.033 -0.081,4.541c-0.054,1.508 -0.233,2.957 -0.537,4.346c-0.304,1.389 -0.771,2.681 -1.4,3.874c-0.63,1.194 -1.514,2.23 -2.653,3.109c-1.14,0.879 -2.578,1.574 -4.314,2.084c-1.736,0.51 -3.863,0.765 -6.381,0.765c-1.866,0 -3.901,-0.147 -6.104,-0.44c-2.203,-0.293 -4.411,-0.873 -6.625,-1.741l0,-8.041l4.004,0l0.847,4.427c0.456,0.217 0.993,0.434 1.611,0.651c0.619,0.217 1.275,0.407 1.97,0.57c0.694,0.163 1.411,0.293 2.149,0.391c0.737,0.097 1.475,0.146 2.213,0.146c1.454,0 2.686,-0.168 3.695,-0.504c1.01,-0.337 1.84,-0.804 2.491,-1.4c0.651,-0.597 1.156,-1.308 1.514,-2.133c0.358,-0.824 0.624,-1.731 0.797,-2.718c0.174,-0.988 0.277,-2.035 0.31,-3.142c0.032,-1.107 0.048,-2.246 0.048,-3.418l0,-6.479c-1.649,2.453 -3.223,4.265 -4.72,5.437c-2.236,1.736 -4.634,2.605 -7.195,2.605c-3.581,0 -6.478,-1.563 -8.692,-4.688c-2.214,-3.082 -3.321,-6.761 -3.321,-11.037c0,-2.669 0.364,-5.051 1.091,-7.146c0.727,-2.094 1.828,-4.031 3.304,-5.811c2.908,-3.559 6.956,-5.339 12.143,-5.339c1.454,0 2.757,0.076 3.907,0.228c1.15,0.152 2.311,0.336 3.483,0.554l10.32,0l0,4.004l-3.874,0Zm-6.446,0.781c-1.497,-0.239 -2.821,-0.423 -3.971,-0.553c-1.151,-0.131 -2.138,-0.196 -2.963,-0.196c-3.581,0 -6.175,1.162 -7.781,3.484c-0.803,1.172 -1.4,2.528 -1.79,4.069c-0.391,1.541 -0.586,3.397 -0.586,5.567c0,7.228 2.322,10.841 6.967,10.841c3.559,0 6.934,-2.539 10.124,-7.618l0,-15.594Z" style="fill:#ff00f6;fill-rule:nonzero;"/><path d="M437.612,167.207l-25.1,0c0.303,2.93 0.748,5.046 1.334,6.348c1.975,4.449 5.795,6.674 11.46,6.674c3.494,0 7.281,-1.14 11.362,-3.418l0,4.85c-3.798,1.888 -7.868,2.833 -12.209,2.833c-5.621,0 -10.168,-1.726 -13.64,-5.177c-3.451,-3.451 -5.177,-7.976 -5.177,-13.575c0,-5.448 1.606,-9.843 4.819,-13.185c3.19,-3.343 7.411,-5.014 12.664,-5.014c9.658,0 14.487,5.893 14.487,17.678l0,1.986Zm-25.035,-4.005l18.198,0l0,-1.497c0,-6.772 -2.702,-10.158 -8.106,-10.158c-3.342,0 -5.925,1.335 -7.748,4.005c-1.281,1.866 -2.062,4.416 -2.344,7.65Z" style="fill:#ff00f6;fill-rule:nonzero;"/><path d="M444.318,183.68l0,-4.005l3.581,0l0,-27.314l-3.906,0l0,-4.036l10.352,0l0,6.836c1.498,-2.279 2.985,-3.993 4.46,-5.144c2.084,-1.649 4.417,-2.474 7,-2.474c6.533,0 9.799,4.211 9.799,12.632l0,19.5l3.907,0l0,4.005l-10.32,0l0,-22.952c0,-5.578 -1.769,-8.367 -5.307,-8.367c-3.255,0 -6.435,2.8 -9.539,8.4l0,18.914l3.256,0l0,4.005l-13.283,0Z" style="fill:#ff00f6;fill-rule:nonzero;"/><path d="M517.633,167.207l-25.1,0c0.304,2.93 0.749,5.046 1.335,6.348c1.975,4.449 5.794,6.674 11.459,6.674c3.494,0 7.282,-1.14 11.362,-3.418l0,4.85c-3.798,1.888 -7.868,2.833 -12.208,2.833c-5.622,0 -10.168,-1.726 -13.641,-5.177c-3.451,-3.451 -5.176,-7.976 -5.176,-13.575c0,-5.448 1.606,-9.843 4.818,-13.185c3.19,-3.343 7.412,-5.014 12.664,-5.014c9.658,0 14.487,5.893 14.487,17.678l0,1.986Zm-25.035,-4.005l18.198,0l0,-1.497c0,-6.772 -2.702,-10.158 -8.106,-10.158c-3.342,0 -5.925,1.335 -7.748,4.005c-1.281,1.866 -2.062,4.416 -2.344,7.65Z" style="fill:#ff00f6;fill-rule:nonzero;"/><path d="M538.924,160.826l0,18.849l11.72,0l0,4.005l-26.272,0l0,-4.005l8.139,0l0,-27.314l-8.432,0l0,-4.036l14.845,0l0,6.869c1.606,-2.301 3.137,-4.026 4.591,-5.177c2.083,-1.649 4.33,-2.474 6.739,-2.474c2.561,0 5.035,0.738 7.422,2.214l0,9.636l-4.037,0l-0.651,-5.078c-1.215,-0.782 -2.496,-1.172 -3.841,-1.172c-3.994,0 -7.401,2.561 -10.223,7.683Z" style="fill:#ff00f6;fill-rule:nonzero;"/><path d="M588.832,179.806c-3.755,3.125 -7.564,4.688 -11.427,4.688c-3.321,0 -5.969,-0.934 -7.944,-2.8c-1.975,-1.845 -2.962,-4.363 -2.962,-7.553c0,-4.124 1.541,-7.119 4.623,-8.985c3.082,-1.845 8.063,-2.768 14.943,-2.768l2.767,0l0,-5.469c0,-3.581 -2.214,-5.372 -6.641,-5.372c-2.236,0 -5.025,0.63 -8.367,1.889l-0.814,4.134l-4.004,0l0,-7.032c4.97,-2.018 10.037,-3.027 15.203,-3.027c4.102,0 6.967,0.705 8.595,2.116c1.627,1.432 2.441,3.896 2.441,7.39l0,22.658l4.428,0l0,4.005l-10.19,0l-0.651,-3.874Zm0,-4.884l0,-8.529l-1.726,0c-4.991,0 -8.54,0.564 -10.645,1.693c-2.084,1.128 -3.126,3.255 -3.126,6.381c0,3.841 2.019,5.762 6.056,5.762c3.19,0 6.337,-1.769 9.441,-5.307Z" style="fill:#ff00f6;fill-rule:nonzero;"/><path d="M635.288,181.694c-3.581,1.866 -7.227,2.8 -10.938,2.8c-3.494,0 -5.99,-0.814 -7.488,-2.442c-1.497,-1.606 -2.246,-4.308 -2.246,-8.106l0,-20.38l-9.051,0l0,-4.428l9.051,0l0,-9.148l6.413,0l0,9.148l13.869,0l0,4.428l-13.869,0l0,17.482c0,3.473 0.347,5.773 1.042,6.902c0.694,1.15 2.073,1.725 4.134,1.725c2.301,0 5.329,-0.835 9.083,-2.506l0,4.525Z" style="fill:#ff00f6;fill-rule:nonzero;"/><path d="M677.676,167.207l-25.101,0c0.304,2.93 0.749,5.046 1.335,6.348c1.975,4.449 5.795,6.674 11.46,6.674c3.494,0 7.281,-1.14 11.362,-3.418l0,4.85c-3.799,1.888 -7.868,2.833 -12.209,2.833c-5.621,0 -10.168,-1.726 -13.641,-5.177c-3.45,-3.451 -5.176,-7.976 -5.176,-13.575c0,-5.448 1.606,-9.843 4.818,-13.185c3.191,-3.343 7.412,-5.014 12.664,-5.014c9.659,0 14.488,5.893 14.488,17.678l0,1.986Zm-25.036,-4.005l18.199,0l0,-1.497c0,-6.772 -2.702,-10.158 -8.106,-10.158c-3.343,0 -5.925,1.335 -7.749,4.005c-1.28,1.866 -2.061,4.416 -2.344,7.65Z" style="fill:#ff00f6;fill-rule:nonzero;"/><rect x="724.946" y="161.184" width="33.565" height="4.818" style="fill:#ff1d00;fill-rule:nonzero;"/><path d="M797.87,182.182c-3.516,1.541 -7.791,2.312 -12.827,2.312c-6.142,0 -10.971,-1.715 -14.487,-5.144c-3.494,-3.429 -5.241,-8.009 -5.241,-13.739c0,-5.643 1.714,-10.059 5.144,-13.25c3.407,-3.212 8.225,-4.818 14.454,-4.818c4.623,0 8.801,0.586 12.534,1.758l0,10.092l-4.037,0l-1.139,-6.413c-2.626,-0.955 -5.198,-1.433 -7.716,-1.433c-3.82,0 -6.858,1.281 -9.115,3.842c-2.084,2.561 -3.126,6.001 -3.126,10.32c0,4.775 1.172,8.389 3.516,10.841c2.518,2.453 6.012,3.679 10.483,3.679c3.646,0 7.499,-0.879 11.557,-2.637l0,4.59Z" style="fill:#ff1d00;fill-rule:nonzero;"/><path d="M865.651,148.325l10.059,0l0,31.35l4.005,0l0,4.005l-10.451,0l0,-6.804c-1.497,2.278 -2.984,3.993 -4.46,5.143c-2.083,1.65 -4.416,2.475 -6.999,2.475c-6.555,0 -9.832,-4.211 -9.832,-12.632l0,-19.501l-4.004,0l0,-4.036l10.45,0l0,22.984c0,5.534 1.769,8.301 5.307,8.301c3.233,0 6.413,-2.789 9.538,-8.366l0,-18.883l-3.613,0l0,-4.036Z" style="fill:#262626;fill-rule:nonzero;"/><path d="M887.398,181.694l0,-9.669l4.004,0l0.814,5.958c4.254,1.649 7.867,2.474 10.841,2.474c5.165,0 7.748,-1.823 7.748,-5.47c0,-1.432 -0.434,-2.539 -1.302,-3.32c-0.868,-0.803 -2.42,-1.498 -4.656,-2.084l-6.641,-1.758c-3.711,-0.976 -6.413,-2.257 -8.106,-3.841c-1.671,-1.541 -2.507,-3.592 -2.507,-6.153c0,-6.88 4.688,-10.32 14.064,-10.32c4.797,0 9.159,0.781 13.087,2.344l0,9.31l-4.004,0l-0.814,-5.892c-2.366,-1.15 -5.133,-1.726 -8.302,-1.726c-2.387,0 -4.243,0.38 -5.567,1.14c-1.562,0.89 -2.344,2.257 -2.344,4.102c0,2.431 2.236,4.232 6.707,5.404l6.576,1.726c3.646,0.955 6.262,2.17 7.846,3.646c1.563,1.454 2.344,3.429 2.344,5.925c0,3.407 -1.335,6.088 -4.004,8.041c-2.67,1.975 -6.392,2.963 -11.167,2.963c-4.905,0 -9.777,-0.934 -14.617,-2.8Z" style="fill:#262626;fill-rule:nonzero;"/><path d="M957.75,167.207l-25.1,0c0.304,2.93 0.749,5.046 1.335,6.348c1.975,4.449 5.794,6.674 11.459,6.674c3.494,0 7.282,-1.14 11.362,-3.418l0,4.85c-3.798,1.888 -7.868,2.833 -12.208,2.833c-5.622,0 -10.169,-1.726 -13.641,-5.177c-3.451,-3.451 -5.176,-7.976 -5.176,-13.575c0,-5.448 1.606,-9.843 4.818,-13.185c3.19,-3.343 7.412,-5.014 12.664,-5.014c9.658,0 14.487,5.893 14.487,17.678l0,1.986Zm-25.035,-4.005l18.198,0l0,-1.497c0,-6.772 -2.702,-10.158 -8.106,-10.158c-3.342,0 -5.925,1.335 -7.748,4.005c-1.281,1.866 -2.062,4.416 -2.344,7.65Z" style="fill:#262626;fill-rule:nonzero;"/><path d="M979.041,160.826l0,18.849l11.72,0l0,4.005l-26.272,0l0,-4.005l8.139,0l0,-27.314l-8.432,0l0,-4.036l14.845,0l0,6.869c1.606,-2.301 3.136,-4.026 4.591,-5.177c2.083,-1.649 4.329,-2.474 6.739,-2.474c2.561,0 5.035,0.738 7.422,2.214l0,9.636l-4.037,0l-0.651,-5.078c-1.215,-0.782 -2.496,-1.172 -3.841,-1.172c-3.994,0 -7.401,2.561 -10.223,7.683Z" style="fill:#262626;fill-rule:nonzero;"/><path d="M1018.08,158.482l0,-10.939l10.939,0l0,10.939l-10.939,0Zm0,25.198l0,-10.939l10.939,0l0,10.939l-10.939,0Z" style="fill:#262626;fill-rule:nonzero;"/><path d="M1054.28,192.535l8.041,0l0,4.004l-18.491,0l0,-4.004l4.004,0l0,-40.174l-4.004,0l0,-4.036l10.45,0l0,7.227c1.628,-2.409 3.212,-4.211 4.753,-5.404c2.214,-1.737 4.601,-2.605 7.162,-2.605c3.581,0 6.479,1.552 8.692,4.656c2.214,3.125 3.321,7.238 3.321,12.338c0,6.207 -1.465,11.08 -4.395,14.617c-2.908,3.56 -6.912,5.34 -12.013,5.34c-1.91,0 -4.416,-0.272 -7.52,-0.814l0,8.855Zm0,-13.608c2.952,0.499 5.252,0.748 6.902,0.748c3.624,0 6.229,-1.161 7.813,-3.483c1.584,-2.322 2.376,-6.218 2.376,-11.687c0,-8.096 -2.322,-12.144 -6.966,-12.144c-3.56,0 -6.935,2.67 -10.125,8.009l0,18.557Z" style="fill:#262626;fill-rule:nonzero;"/><path d="M1108.97,179.806c-3.755,3.125 -7.564,4.688 -11.427,4.688c-3.321,0 -5.968,-0.934 -7.943,-2.8c-1.975,-1.845 -2.963,-4.363 -2.963,-7.553c0,-4.124 1.541,-7.119 4.623,-8.985c3.082,-1.845 8.063,-2.768 14.943,-2.768l2.767,0l0,-5.469c0,-3.581 -2.214,-5.372 -6.641,-5.372c-2.236,0 -5.025,0.63 -8.367,1.889l-0.814,4.134l-4.004,0l0,-7.032c4.97,-2.018 10.038,-3.027 15.203,-3.027c4.102,0 6.967,0.705 8.595,2.116c1.628,1.432 2.441,3.896 2.441,7.39l0,22.658l4.428,0l0,4.005l-10.19,0l-0.651,-3.874Zm0,-4.884l0,-8.529l-1.725,0c-4.992,0 -8.541,0.564 -10.646,1.693c-2.084,1.128 -3.125,3.255 -3.125,6.381c0,3.841 2.018,5.762 6.055,5.762c3.19,0 6.337,-1.769 9.441,-5.307Z" style="fill:#262626;fill-rule:nonzero;"/><path d="M1127.46,181.694l0,-9.669l4.004,0l0.814,5.958c4.254,1.649 7.867,2.474 10.841,2.474c5.165,0 7.748,-1.823 7.748,-5.47c0,-1.432 -0.434,-2.539 -1.302,-3.32c-0.868,-0.803 -2.42,-1.498 -4.656,-2.084l-6.641,-1.758c-3.711,-0.976 -6.414,-2.257 -8.106,-3.841c-1.672,-1.541 -2.507,-3.592 -2.507,-6.153c0,-6.88 4.688,-10.32 14.064,-10.32c4.796,0 9.159,0.781 13.087,2.344l0,9.31l-4.004,0l-0.814,-5.892c-2.366,-1.15 -5.133,-1.726 -8.302,-1.726c-2.387,0 -4.243,0.38 -5.567,1.14c-1.562,0.89 -2.344,2.257 -2.344,4.102c0,2.431 2.236,4.232 6.707,5.404l6.576,1.726c3.646,0.955 6.261,2.17 7.846,3.646c1.562,1.454 2.344,3.429 2.344,5.925c0,3.407 -1.335,6.088 -4.005,8.041c-2.669,1.975 -6.391,2.963 -11.166,2.963c-4.905,0 -9.778,-0.934 -14.617,-2.8Z" style="fill:#262626;fill-rule:nonzero;"/><path d="M1167.47,181.694l0,-9.669l4.004,0l0.814,5.958c4.254,1.649 7.868,2.474 10.841,2.474c5.166,0 7.748,-1.823 7.748,-5.47c0,-1.432 -0.434,-2.539 -1.302,-3.32c-0.868,-0.803 -2.42,-1.498 -4.655,-2.084l-6.641,-1.758c-3.712,-0.976 -6.414,-2.257 -8.107,-3.841c-1.671,-1.541 -2.507,-3.592 -2.507,-6.153c0,-6.88 4.688,-10.32 14.064,-10.32c4.797,0 9.159,0.781 13.088,2.344l0,9.31l-4.005,0l-0.814,-5.892c-2.365,-1.15 -5.132,-1.726 -8.301,-1.726c-2.388,0 -4.243,0.38 -5.567,1.14c-1.563,0.89 -2.344,2.257 -2.344,4.102c0,2.431 2.235,4.232 6.706,5.404l6.577,1.726c3.646,0.955 6.261,2.17 7.845,3.646c1.563,1.454 2.344,3.429 2.344,5.925c0,3.407 -1.334,6.088 -4.004,8.041c-2.67,1.975 -6.392,2.963 -11.166,2.963c-4.905,0 -9.778,-0.934 -14.618,-2.8Z" style="fill:#262626;fill-rule:nonzero;"/><path d="M1232.62,183.289c-3.278,1.064 -6.034,1.595 -8.27,1.595c-5.99,0 -10.765,-2.203 -14.324,-6.608c-3.559,-4.406 -5.339,-10.407 -5.339,-18.004c0,-7.704 1.758,-13.966 5.274,-18.784c3.516,-4.797 8.139,-7.195 13.869,-7.195c8.529,0 12.794,5.155 12.794,15.464l0,20.445l3.841,0l0,4.004l-7.845,0l0,-11.948l-0.814,0c-0.825,3.451 -1.954,6.186 -3.386,8.204c-1.867,2.648 -3.983,3.972 -6.348,3.972c-2.258,0 -4.102,-1.129 -5.535,-3.386c-1.454,-2.257 -2.181,-5.144 -2.181,-8.66c0,-4.753 1.237,-8.779 3.711,-12.078c2.474,-3.32 5.491,-4.981 9.051,-4.981c1.389,0 3.125,0.283 5.209,0.847c-0.63,-2.93 -1.748,-5.003 -3.354,-6.218c-1.432,-1.107 -3.277,-1.661 -5.534,-1.661c-4.428,0 -7.987,1.975 -10.678,5.926c-2.713,3.971 -4.07,9.169 -4.07,15.594c0,6.446 1.444,11.568 4.33,15.366c2.865,3.798 6.674,5.697 11.427,5.697c2.539,0 5.263,-0.695 8.172,-2.084l0,4.493Zm0,-29.788l0,-3.614c-1.802,-1.042 -3.44,-1.562 -4.916,-1.562c-2.626,0 -4.699,1.215 -6.218,3.646c-1.541,2.431 -2.312,5.686 -2.312,9.766c0,2.366 0.337,4.309 1.009,5.828c0.651,1.497 1.476,2.246 2.475,2.246c1.519,0 3.082,-1.356 4.688,-4.069c1.562,-2.626 3.32,-6.707 5.274,-12.241Z" style="fill-rule:nonzero;"/><path d="M1278.16,181.694c-3.603,1.866 -7.249,2.8 -10.939,2.8c-1.997,0 -3.662,-0.234 -4.997,-0.7c-1.335,-0.467 -2.399,-1.205 -3.191,-2.214c-0.792,-1.009 -1.356,-2.306 -1.693,-3.89c-0.336,-1.585 -0.504,-3.484 -0.504,-5.698l0,-35.713l-12.046,0l0,-4.004l18.459,0l0,37.569c0,2.018 0.076,3.668 0.228,4.948c0.152,1.281 0.45,2.279 0.895,2.995c0.445,0.716 1.08,1.205 1.905,1.465c0.825,0.261 1.921,0.391 3.288,0.391c2.691,0 5.556,-0.836 8.595,-2.507l0,4.558Z" style="fill-rule:nonzero;"/><path d="M1301.86,147.543c5.1,0 9.105,1.639 12.013,4.916c2.93,3.277 4.395,7.781 4.395,13.511c0,5.816 -1.465,10.352 -4.395,13.608c-2.93,3.277 -7.021,4.916 -12.273,4.916c-4.45,0 -8.074,-1.357 -10.874,-4.07c-3.494,-3.364 -5.241,-8.171 -5.241,-14.422c0,-5.751 1.465,-10.266 4.395,-13.543c2.93,-3.277 6.923,-4.916 11.98,-4.916Zm0,4.004c-6.294,0 -9.441,4.797 -9.441,14.39c0,9.702 3.147,14.552 9.441,14.552c6.316,0 9.474,-4.85 9.474,-14.552c0,-9.593 -3.158,-14.39 -9.474,-14.39Z" style="fill-rule:nonzero;"/><path d="M1358.02,182.182c-3.516,1.541 -7.792,2.312 -12.827,2.312c-6.142,0 -10.971,-1.715 -14.487,-5.144c-3.494,-3.429 -5.241,-8.009 -5.241,-13.739c0,-5.643 1.714,-10.059 5.143,-13.25c3.408,-3.212 8.226,-4.818 14.455,-4.818c4.623,0 8.801,0.586 12.534,1.758l0,10.092l-4.037,0l-1.139,-6.413c-2.627,-0.955 -5.198,-1.433 -7.716,-1.433c-3.82,0 -6.858,1.281 -9.116,3.842c-2.083,2.561 -3.125,6.001 -3.125,10.32c0,4.775 1.172,8.389 3.516,10.841c2.518,2.453 6.012,3.679 10.483,3.679c3.646,0 7.499,-0.879 11.557,-2.637l0,4.59Z" style="fill-rule:nonzero;"/><path d="M1389.04,179.806c-3.754,3.125 -7.563,4.688 -11.427,4.688c-3.32,0 -5.968,-0.934 -7.943,-2.8c-1.975,-1.845 -2.963,-4.363 -2.963,-7.553c0,-4.124 1.541,-7.119 4.623,-8.985c3.082,-1.845 8.063,-2.768 14.943,-2.768l2.767,0l0,-5.469c0,-3.581 -2.213,-5.372 -6.641,-5.372c-2.235,0 -5.024,0.63 -8.367,1.889l-0.814,4.134l-4.004,0l0,-7.032c4.97,-2.018 10.038,-3.027 15.204,-3.027c4.102,0 6.966,0.705 8.594,2.116c1.628,1.432 2.442,3.896 2.442,7.39l0,22.658l4.427,0l0,4.005l-10.189,0l-0.652,-3.874Zm0,-4.884l0,-8.529l-1.725,0c-4.992,0 -8.54,0.564 -10.646,1.693c-2.083,1.128 -3.125,3.255 -3.125,6.381c0,3.841 2.018,5.762 6.055,5.762c3.191,0 6.338,-1.769 9.441,-5.307Z" style="fill-rule:nonzero;"/><path d="M1438.2,181.694c-3.603,1.866 -7.249,2.8 -10.938,2.8c-1.997,0 -3.663,-0.234 -4.998,-0.7c-1.335,-0.467 -2.398,-1.205 -3.19,-2.214c-0.792,-1.009 -1.357,-2.306 -1.693,-3.89c-0.336,-1.585 -0.505,-3.484 -0.505,-5.698l0,-35.713l-12.045,0l0,-4.004l18.459,0l0,37.569c0,2.018 0.076,3.668 0.228,4.948c0.152,1.281 0.45,2.279 0.895,2.995c0.445,0.716 1.08,1.205 1.904,1.465c0.825,0.261 1.921,0.391 3.289,0.391c2.691,0 5.556,-0.836 8.594,-2.507l0,4.558Z" style="fill-rule:nonzero;"/><path d="M1444.58,183.68l0,-4.005l3.581,0l0,-43.396l-4.004,0l0,-4.004l10.45,0l0,22.886c1.498,-2.279 2.984,-3.993 4.46,-5.144c2.084,-1.649 4.417,-2.474 7,-2.474c6.532,0 9.799,4.211 9.799,12.632l0,19.5l4.037,0l0,4.005l-10.451,0l0,-22.952c0,-5.578 -1.768,-8.367 -5.306,-8.367c-3.256,0 -6.435,2.8 -9.539,8.4l0,18.914l3.614,0l0,4.005l-13.641,0Z" style="fill-rule:nonzero;"/><path d="M1501.91,147.543c5.1,0 9.105,1.639 12.013,4.916c2.93,3.277 4.395,7.781 4.395,13.511c0,5.816 -1.465,10.352 -4.395,13.608c-2.93,3.277 -7.021,4.916 -12.273,4.916c-4.45,0 -8.074,-1.357 -10.874,-4.07c-3.494,-3.364 -5.241,-8.171 -5.241,-14.422c0,-5.751 1.465,-10.266 4.395,-13.543c2.93,-3.277 6.923,-4.916 11.98,-4.916Zm0,4.004c-6.294,0 -9.441,4.797 -9.441,14.39c0,9.702 3.147,14.552 9.441,14.552c6.316,0 9.474,-4.85 9.474,-14.552c0,-9.593 -3.158,-14.39 -9.474,-14.39Z" style="fill-rule:nonzero;"/><path d="M1527.57,181.694l0,-9.669l4.004,0l0.814,5.958c4.254,1.649 7.868,2.474 10.841,2.474c5.165,0 7.748,-1.823 7.748,-5.47c0,-1.432 -0.434,-2.539 -1.302,-3.32c-0.868,-0.803 -2.42,-1.498 -4.655,-2.084l-6.642,-1.758c-3.711,-0.976 -6.413,-2.257 -8.106,-3.841c-1.671,-1.541 -2.507,-3.592 -2.507,-6.153c0,-6.88 4.688,-10.32 14.064,-10.32c4.797,0 9.159,0.781 13.087,2.344l0,9.31l-4.004,0l-0.814,-5.892c-2.366,-1.15 -5.133,-1.726 -8.301,-1.726c-2.388,0 -4.244,0.38 -5.567,1.14c-1.563,0.89 -2.344,2.257 -2.344,4.102c0,2.431 2.235,4.232 6.706,5.404l6.576,1.726c3.646,0.955 6.262,2.17 7.846,3.646c1.563,1.454 2.344,3.429 2.344,5.925c0,3.407 -1.335,6.088 -4.004,8.041c-2.67,1.975 -6.392,2.963 -11.167,2.963c-4.905,0 -9.777,-0.934 -14.617,-2.8Z" style="fill-rule:nonzero;"/><path d="M1595.54,181.694c-3.582,1.866 -7.228,2.8 -10.939,2.8c-3.494,0 -5.99,-0.814 -7.488,-2.442c-1.497,-1.606 -2.246,-4.308 -2.246,-8.106l0,-20.38l-9.051,0l0,-4.428l9.051,0l0,-9.148l6.413,0l0,9.148l13.869,0l0,4.428l-13.869,0l0,17.482c0,3.473 0.348,5.773 1.042,6.902c0.695,1.15 2.073,1.725 4.135,1.725c2.3,0 5.328,-0.835 9.083,-2.506l0,4.525Z" style="fill-rule:nonzero;"/><path d="M1618.24,158.482l0,-10.939l10.938,0l0,10.939l-10.938,0Zm0,25.198l0,-10.939l10.938,0l0,10.939l-10.938,0Z" style="fill-rule:nonzero;"/><path d="M1647.99,183.354l0,-12.176l4.005,0l0.814,8.009c1.866,1.129 4.091,1.693 6.673,1.693c3.321,0 5.958,-0.944 7.911,-2.832c1.954,-1.889 2.93,-4.45 2.93,-7.683c0,-6.924 -4.514,-10.386 -13.543,-10.386l-4.395,0l0,-4.004l3.712,0c8.573,0 12.859,-3.212 12.859,-9.636c0,-2.475 -0.792,-4.428 -2.376,-5.86c-1.563,-1.455 -3.723,-2.182 -6.479,-2.182c-2.561,0 -4.753,0.424 -6.576,1.27l-0.391,6.804l-4.037,0l0,-10.352c4.189,-1.151 8.074,-1.726 11.655,-1.726c9.832,0 14.748,3.831 14.748,11.492c0,3.538 -1.14,6.392 -3.419,8.562c-1.389,1.281 -3.375,2.399 -5.957,3.353c2.279,0.673 4.015,1.379 5.209,2.117c3.885,2.409 5.827,6.033 5.827,10.873c0,4.211 -1.498,7.629 -4.493,10.255c-2.995,2.626 -6.977,3.939 -11.947,3.939c-3.365,0 -6.685,-0.325 -9.962,-0.976l-2.768,-0.554Z" style="fill-rule:nonzero;"/><path d="M1688,183.354l0,-12.176l4.004,0l0.814,8.009c1.867,1.129 4.091,1.693 6.674,1.693c3.321,0 5.958,-0.944 7.911,-2.832c1.953,-1.889 2.93,-4.45 2.93,-7.683c0,-6.924 -4.514,-10.386 -13.543,-10.386l-4.395,0l0,-4.004l3.711,0c8.573,0 12.86,-3.212 12.86,-9.636c0,-2.475 -0.792,-4.428 -2.377,-5.86c-1.563,-1.455 -3.722,-2.182 -6.478,-2.182c-2.561,0 -4.753,0.424 -6.577,1.27l-0.39,6.804l-4.037,0l0,-10.352c4.189,-1.151 8.074,-1.726 11.655,-1.726c9.831,0 14.747,3.831 14.747,11.492c0,3.538 -1.139,6.392 -3.418,8.562c-1.389,1.281 -3.375,2.399 -5.958,3.353c2.279,0.673 4.016,1.379 5.209,2.117c3.885,2.409 5.828,6.033 5.828,10.873c0,4.211 -1.498,7.629 -4.493,10.255c-2.995,2.626 -6.978,3.939 -11.948,3.939c-3.364,0 -6.685,-0.325 -9.962,-0.976l-2.767,-0.554Z" style="fill-rule:nonzero;"/><path d="M1741.98,134.293c5.209,0 9.322,2.257 12.338,6.772c3.017,4.492 4.526,10.645 4.526,18.459c0,7.943 -1.509,14.15 -4.526,18.621c-3.016,4.493 -7.216,6.739 -12.599,6.739c-4.579,0 -8.301,-1.834 -11.166,-5.502c-3.625,-4.644 -5.437,-11.253 -5.437,-19.826c0,-7.835 1.509,-13.999 4.525,-18.491c3.017,-4.515 7.13,-6.772 12.339,-6.772Zm-7.358,40.987c1.693,3.733 4.135,5.6 7.325,5.6c6.663,0 9.995,-7.097 9.995,-21.291c0,-2.93 -0.163,-5.546 -0.488,-7.846l-18.166,19.696c0.369,1.432 0.813,2.713 1.334,3.841Zm7.358,-36.983c-3.191,0 -5.643,1.845 -7.358,5.535c-1.714,3.711 -2.572,8.942 -2.572,15.692c0,2.93 0.152,5.567 0.456,7.911l18.199,-19.729c-0.369,-1.454 -0.814,-2.756 -1.335,-3.907c-1.736,-3.668 -4.2,-5.502 -7.39,-5.502Z" style="fill-rule:nonzero;"/><path d="M1772.91,158.514c1.389,-1.91 2.843,-3.342 4.362,-4.297c2.235,-1.389 4.807,-2.084 7.716,-2.084c4.123,0 7.466,1.455 10.027,4.363c2.561,2.886 3.841,6.674 3.841,11.362c0,5.013 -1.486,9.104 -4.46,12.273c-2.973,3.169 -6.804,4.753 -11.492,4.753c-5.296,0 -9.441,-2.148 -12.436,-6.446c-2.995,-4.319 -4.493,-10.276 -4.493,-17.873c0,-8.356 1.769,-14.823 5.307,-19.403c3.537,-4.579 8.453,-6.869 14.747,-6.869c2.778,0 6.316,0.771 10.613,2.312l0,10.32l-4.036,0l-0.749,-6.837c-1.888,-1.194 -3.82,-1.791 -5.795,-1.791c-4.666,0 -8.182,2.344 -10.548,7.032c-1.671,3.278 -2.539,7.673 -2.604,13.185Zm10.873,-2.148c-2.93,0 -5.393,1.117 -7.39,3.353c-1.997,2.214 -2.995,4.992 -2.995,8.334c0,3.473 1.009,6.479 3.028,9.018c2.018,2.539 4.449,3.809 7.292,3.809c2.409,0 4.352,-0.857 5.827,-2.572c1.867,-2.17 2.8,-5.404 2.8,-9.701c0,-8.161 -2.854,-12.241 -8.562,-12.241Z" style="fill-rule:nonzero;"/><rect x="1845.24" y="161.184" width="33.565" height="4.818" style="fill:#ff0400;fill-rule:nonzero;"/><path d="M1909.57,136.279l-8.008,0l0,-4.004l14.454,0l0,47.4l4.005,0l0,4.005l-10.451,0l0,-7.228c-1.627,2.41 -3.201,4.222 -4.72,5.437c-2.214,1.736 -4.612,2.605 -7.195,2.605c-3.581,0 -6.479,-1.563 -8.692,-4.688c-2.214,-3.104 -3.321,-7.217 -3.321,-12.339c0,-6.185 1.465,-11.047 4.395,-14.585c2.908,-3.559 6.945,-5.339 12.111,-5.339c1.888,0 4.362,0.261 7.422,0.782l0,-12.046Zm0,16.245c-2.951,-0.477 -5.263,-0.716 -6.934,-0.716c-3.581,0 -6.175,1.161 -7.781,3.483c-1.584,2.301 -2.376,6.294 -2.376,11.981c0,8.269 2.322,12.403 6.967,12.403c3.559,0 6.934,-2.539 10.124,-7.618l0,-19.533Z" style="fill:#ff0400;fill-rule:nonzero;"/><path d="M1965.31,183.68l0,-31.319l-2.409,0l0,-4.036l8.237,0l0,7.064c1.454,-3.038 2.647,-5.057 3.581,-6.055c1.128,-1.194 2.517,-1.791 4.167,-1.791c2.17,0 3.755,1.009 4.753,3.028c0.521,1.085 0.901,2.691 1.139,4.818c0.912,-2.474 1.878,-4.276 2.898,-5.404c1.432,-1.628 3.125,-2.442 5.078,-2.442c4.059,0 6.088,2.963 6.088,8.888l0,23.244l2.279,0l0,4.005l-8.106,0l0,-24.482c0,-4.558 -0.706,-6.837 -2.116,-6.837c-1.042,0 -2.203,0.955 -3.484,2.865c-0.672,1.064 -1.193,2.051 -1.562,2.963c-0.565,1.411 -0.847,2.409 -0.847,2.995l0,18.491l2.279,0l0,4.005l-8.106,0l0,-25.98c0,-3.559 -0.716,-5.339 -2.149,-5.339c-1.888,0 -3.852,2.941 -5.892,8.823l0,18.491l2.278,0l0,4.005l-8.106,0Z" style="fill:#262626;fill-rule:nonzero;"/><path d="M2018.8,183.68l-12.534,-31.319l-2.409,0l0,-4.036l14.552,0l0,4.036l-5.209,0l10.125,25.329l0.065,0l10.125,-25.329l-5.209,0l0,-4.036l11.948,0l0,4.036l-2.409,0l-12.534,31.319l-3.516,8.822l4.818,0l0,4.037l-15.594,0l0,-4.037l6.446,0l3.516,-8.822l-2.181,0Z" style="fill:#262626;fill-rule:nonzero;"/><rect x="2045.3" y="161.184" width="33.565" height="4.818" style="fill:#262626;fill-rule:nonzero;"/><path d="M2109.63,136.279l-8.008,0l0,-4.004l14.454,0l0,47.4l4.005,0l0,4.005l-10.451,0l0,-7.228c-1.627,2.41 -3.201,4.222 -4.72,5.437c-2.214,1.736 -4.612,2.605 -7.195,2.605c-3.581,0 -6.478,-1.563 -8.692,-4.688c-2.214,-3.104 -3.321,-7.217 -3.321,-12.339c0,-6.185 1.465,-11.047 4.395,-14.585c2.908,-3.559 6.945,-5.339 12.111,-5.339c1.888,0 4.362,0.261 7.422,0.782l0,-12.046Zm0,16.245c-2.951,-0.477 -5.263,-0.716 -6.934,-0.716c-3.581,0 -6.175,1.161 -7.781,3.483c-1.584,2.301 -2.376,6.294 -2.376,11.981c0,8.269 2.322,12.403 6.967,12.403c3.559,0 6.934,-2.539 10.124,-7.618l0,-19.533Z" style="fill:#262626;fill-rule:nonzero;"/><path d="M2134.56,183.68l-6.446,0l0,-47.401l-4.004,0l0,-4.004l10.45,0l0,23.277c1.628,-2.409 3.212,-4.211 4.753,-5.404c2.214,-1.737 4.601,-2.605 7.162,-2.605c3.581,0 6.479,1.552 8.692,4.656c2.214,3.125 3.321,7.238 3.321,12.338c0,6.207 -1.465,11.08 -4.395,14.617c-2.908,3.56 -6.912,5.34 -12.013,5.34c-1.91,0 -4.416,-0.272 -7.52,-0.814Zm0,-4.2c2.952,0.499 5.252,0.749 6.902,0.749c3.624,0 6.229,-1.161 7.813,-3.484c1.584,-2.322 2.377,-6.283 2.377,-11.882c0,-8.074 -2.323,-12.111 -6.967,-12.111c-3.56,0 -6.935,2.539 -10.125,7.618l0,19.11Z" style="fill:#262626;fill-rule:nonzero;"/><rect x="2205.34" y="161.184" width="33.565" height="4.818" style="fill:#ff0002;fill-rule:nonzero;"/><path d="M2262.12,147.543c5.1,0 9.105,1.639 12.013,4.916c2.93,3.277 4.395,7.781 4.395,13.511c0,5.816 -1.465,10.352 -4.395,13.608c-2.93,3.277 -7.021,4.916 -12.273,4.916c-4.45,0 -8.074,-1.357 -10.874,-4.07c-3.494,-3.364 -5.241,-8.171 -5.241,-14.422c0,-5.751 1.465,-10.266 4.395,-13.543c2.93,-3.277 6.923,-4.916 11.98,-4.916Zm0,4.004c-6.294,0 -9.441,4.797 -9.441,14.39c0,9.702 3.147,14.552 9.441,14.552c6.316,0 9.474,-4.85 9.474,-14.552c0,-9.593 -3.158,-14.39 -9.474,-14.39Z" style="fill:#ff0002;fill-rule:nonzero;"/><path d="M2325.4,183.68l0,-31.319l-2.409,0l0,-4.036l8.236,0l0,7.064c1.454,-3.038 2.648,-5.057 3.581,-6.055c1.129,-1.194 2.518,-1.791 4.167,-1.791c2.171,0 3.755,1.009 4.754,3.028c0.52,1.085 0.9,2.691 1.139,4.818c0.912,-2.474 1.877,-4.276 2.897,-5.404c1.433,-1.628 3.126,-2.442 5.079,-2.442c4.059,0 6.088,2.963 6.088,8.888l0,23.244l2.279,0l0,4.005l-8.106,0l0,-24.482c0,-4.558 -0.706,-6.837 -2.117,-6.837c-1.041,0 -2.202,0.955 -3.483,2.865c-0.673,1.064 -1.194,2.051 -1.563,2.963c-0.564,1.411 -0.846,2.409 -0.846,2.995l0,18.491l2.279,0l0,4.005l-8.107,0l0,-25.98c0,-3.559 -0.716,-5.339 -2.148,-5.339c-1.888,0 -3.853,2.941 -5.893,8.823l0,18.491l2.279,0l0,4.005l-8.106,0Z" style="fill:#262626;fill-rule:nonzero;"/><path d="M2382.15,147.543c5.1,0 9.105,1.639 12.013,4.916c2.93,3.277 4.395,7.781 4.395,13.511c0,5.816 -1.465,10.352 -4.395,13.608c-2.93,3.277 -7.021,4.916 -12.273,4.916c-4.45,0 -8.074,-1.357 -10.874,-4.07c-3.494,-3.364 -5.241,-8.171 -5.241,-14.422c0,-5.751 1.465,-10.266 4.395,-13.543c2.93,-3.277 6.923,-4.916 11.98,-4.916Zm0,4.004c-6.294,0 -9.441,4.797 -9.441,14.39c0,9.702 3.147,14.552 9.441,14.552c6.316,0 9.474,-4.85 9.474,-14.552c0,-9.593 -3.158,-14.39 -9.474,-14.39Z" style="fill:#262626;fill-rule:nonzero;"/><path d="M2429.71,136.279l-8.008,0l0,-4.004l14.454,0l0,47.4l4.005,0l0,4.005l-10.451,0l0,-7.228c-1.627,2.41 -3.201,4.222 -4.72,5.437c-2.214,1.736 -4.612,2.605 -7.195,2.605c-3.581,0 -6.478,-1.563 -8.692,-4.688c-2.214,-3.104 -3.321,-7.217 -3.321,-12.339c0,-6.185 1.465,-11.047 4.395,-14.585c2.908,-3.559 6.945,-5.339 12.111,-5.339c1.888,0 4.362,0.261 7.422,0.782l0,-12.046Zm0,16.245c-2.951,-0.477 -5.263,-0.716 -6.934,-0.716c-3.581,0 -6.175,1.161 -7.781,3.483c-1.584,2.301 -2.376,6.294 -2.376,11.981c0,8.269 2.322,12.403 6.967,12.403c3.559,0 6.934,-2.539 10.124,-7.618l0,-19.533Z" style="fill:#262626;fill-rule:nonzero;"/><path d="M2478.15,167.207l-25.1,0c0.304,2.93 0.748,5.046 1.334,6.348c1.976,4.449 5.795,6.674 11.46,6.674c3.494,0 7.282,-1.14 11.362,-3.418l0,4.85c-3.798,1.888 -7.868,2.833 -12.208,2.833c-5.622,0 -10.169,-1.726 -13.641,-5.177c-3.451,-3.451 -5.176,-7.976 -5.176,-13.575c0,-5.448 1.606,-9.843 4.818,-13.185c3.19,-3.343 7.412,-5.014 12.664,-5.014c9.658,0 14.487,5.893 14.487,17.678l0,1.986Zm-25.035,-4.005l18.198,0l0,-1.497c0,-6.772 -2.702,-10.158 -8.106,-10.158c-3.342,0 -5.925,1.335 -7.748,4.005c-1.281,1.866 -2.062,4.416 -2.344,7.65Z" style="fill:#262626;fill-rule:nonzero;"/><path d="M2518.49,181.694c-3.603,1.866 -7.249,2.8 -10.938,2.8c-1.997,0 -3.663,-0.234 -4.998,-0.7c-1.335,-0.467 -2.398,-1.205 -3.19,-2.214c-0.792,-1.009 -1.357,-2.306 -1.693,-3.89c-0.336,-1.585 -0.505,-3.484 -0.505,-5.698l0,-35.713l-12.045,0l0,-4.004l18.459,0l0,37.569c0,2.018 0.076,3.668 0.228,4.948c0.152,1.281 0.45,2.279 0.895,2.995c0.445,0.716 1.08,1.205 1.904,1.465c0.825,0.261 1.921,0.391 3.289,0.391c2.691,0 5.556,-0.836 8.594,-2.507l0,4.558Z" style="fill:#262626;fill-rule:nonzero;"/><path d="M2527.83,181.694l0,-9.669l4.004,0l0.814,5.958c4.254,1.649 7.867,2.474 10.841,2.474c5.165,0 7.748,-1.823 7.748,-5.47c0,-1.432 -0.434,-2.539 -1.302,-3.32c-0.868,-0.803 -2.42,-1.498 -4.656,-2.084l-6.641,-1.758c-3.711,-0.976 -6.413,-2.257 -8.106,-3.841c-1.672,-1.541 -2.507,-3.592 -2.507,-6.153c0,-6.88 4.688,-10.32 14.064,-10.32c4.796,0 9.159,0.781 13.087,2.344l0,9.31l-4.004,0l-0.814,-5.892c-2.366,-1.15 -5.133,-1.726 -8.302,-1.726c-2.387,0 -4.243,0.38 -5.567,1.14c-1.562,0.89 -2.344,2.257 -2.344,4.102c0,2.431 2.236,4.232 6.707,5.404l6.576,1.726c3.646,0.955 6.261,2.17 7.846,3.646c1.562,1.454 2.344,3.429 2.344,5.925c0,3.407 -1.335,6.088 -4.005,8.041c-2.669,1.975 -6.391,2.963 -11.166,2.963c-4.905,0 -9.778,-0.934 -14.617,-2.8Z" style="fill:#262626;fill-rule:nonzero;"/></g><g><path d="M76.706,71.273l-5.619,28.055c-8.067,1.969 -15.272,2.953 -21.616,2.953c-6.808,0 -12.099,-0.642 -15.873,-1.927c-3.773,-1.286 -6.822,-3.487 -9.146,-6.604c-4.321,-5.797 -5.496,-13.604 -3.528,-23.42c1.887,-9.406 5.948,-16.967 12.182,-22.682c3.609,-3.308 7.581,-5.653 11.915,-7.034c4.334,-1.381 9.81,-2.071 16.427,-2.071c7.93,0 15.025,0.779 21.287,2.338l-1.969,9.885c-7.793,-2.598 -14.738,-3.897 -20.836,-3.897c-6.836,0 -12.427,2.003 -16.775,6.009c-4.348,4.006 -7.301,9.864 -8.859,17.575c-1.504,7.492 -0.746,13.248 2.276,17.268c3.021,4.019 8.087,6.029 15.196,6.029c1.942,0 4.58,-0.191 7.916,-0.574l2.748,-13.576l-10.254,0l1.641,-8.327l22.887,0Z" style="fill-rule:nonzero;"/><path d="M121.167,90.715l-1.682,8.531c-5.332,1.695 -10.514,2.543 -15.545,2.543c-7.519,0 -13.009,-2.153 -16.468,-6.46c-3.459,-4.307 -4.436,-10.206 -2.932,-17.698c1.394,-6.945 4.388,-12.503 8.982,-16.673c4.594,-4.17 10.008,-6.255 16.242,-6.255c6.453,0 10.753,2.071 12.9,6.214c2.146,4.143 2.317,10.726 0.512,19.749l-26.455,0c-0.847,8.586 2.803,12.879 10.952,12.879c3.855,0 8.353,-0.943 13.494,-2.83Zm-23.174,-16.899l14.642,0c1.532,-7.683 0.123,-11.525 -4.224,-11.525c-4.594,0 -8.067,3.842 -10.418,11.525Z" style="fill-rule:nonzero;"/><path d="M129.698,100.764l8.982,-45.035l12.141,0l-1.477,7.464c5.743,-5.66 11.403,-8.49 16.981,-8.49c8.176,0 11.32,4.744 9.433,14.233l-6.357,31.828l-12.141,0l5.743,-28.834c0.574,-2.926 0.622,-4.936 0.143,-6.03c-0.478,-1.093 -1.647,-1.64 -3.507,-1.64c-3.281,0 -7.259,2.379 -11.935,7.136l-5.865,29.368l-12.141,0Z" style="fill-rule:nonzero;"/><path d="M219.194,90.715l-1.682,8.531c-5.332,1.695 -10.513,2.543 -15.545,2.543c-7.519,0 -13.008,-2.153 -16.467,-6.46c-3.459,-4.307 -4.437,-10.206 -2.933,-17.698c1.395,-6.945 4.389,-12.503 8.982,-16.673c4.594,-4.17 10.008,-6.255 16.243,-6.255c6.453,0 10.753,2.071 12.899,6.214c2.147,4.143 2.317,10.726 0.513,19.749l-26.455,0c-0.848,8.586 2.802,12.879 10.951,12.879c3.855,0 8.353,-0.943 13.494,-2.83Zm-23.174,-16.899l14.643,0c1.531,-7.683 0.123,-11.525 -4.225,-11.525c-4.594,0 -8.066,3.842 -10.418,11.525Z" style="fill-rule:nonzero;"/><path d="M228.751,100.764l8.982,-45.035l12.141,0l-1.477,7.464c3.391,-5.66 7.315,-8.49 11.772,-8.49c0.629,0 1.298,0.082 2.009,0.246l-2.173,10.828c-1.395,-0.629 -2.612,-0.943 -3.651,-0.943c-3.254,0 -6.439,2.105 -9.556,6.316l-5.907,29.614l-12.14,0Z" style="fill-rule:nonzero;"/><path d="M288.921,93.299c-5.387,5.66 -10.651,8.49 -15.791,8.49c-4.704,0 -8.094,-2.044 -10.172,-6.132c-2.078,-4.088 -2.448,-9.481 -1.108,-16.18c1.559,-7.766 4.642,-13.836 9.249,-18.211c4.608,-4.375 10.234,-6.563 16.878,-6.563c2.215,0 5.031,0.342 8.449,1.026l12.141,0l-8.982,45.035l-12.141,0l1.477,-7.465Zm6.07,-30.352c-2.926,-0.519 -5.141,-0.779 -6.645,-0.779c-6.726,0 -11.142,5.209 -13.248,15.627c-1.914,9.652 -0.424,14.478 4.471,14.478c3.281,0 6.945,-2.392 10.992,-7.177l4.43,-22.149Z" style="fill-rule:nonzero;"/><path d="M334.448,93.135l-1.518,7.588c-3.254,0.711 -5.92,1.066 -7.998,1.066c-8.558,0 -11.867,-4.922 -9.926,-14.766l4.758,-23.707l-4.922,0l1.518,-7.587l4.922,0l1.764,-8.819l12.427,-1.394l-2.05,10.213l8.613,0l-1.518,7.587l-8.613,0l-4.43,22.108c-0.683,3.39 -0.841,5.612 -0.471,6.665c0.369,1.053 1.456,1.579 3.26,1.579c1.094,0 2.489,-0.178 4.184,-0.533Z" style="fill-rule:nonzero;"/><path d="M377.883,90.715l-1.681,8.531c-5.332,1.695 -10.514,2.543 -15.545,2.543c-7.52,0 -13.009,-2.153 -16.468,-6.46c-3.459,-4.307 -4.436,-10.206 -2.933,-17.698c1.395,-6.945 4.389,-12.503 8.983,-16.673c4.594,-4.17 10.008,-6.255 16.242,-6.255c6.453,0 10.753,2.071 12.9,6.214c2.146,4.143 2.317,10.726 0.512,19.749l-26.455,0c-0.848,8.586 2.803,12.879 10.951,12.879c3.856,0 8.354,-0.943 13.494,-2.83Zm-23.173,-16.899l14.642,0c1.531,-7.683 0.123,-11.525 -4.224,-11.525c-4.594,0 -8.067,3.842 -10.418,11.525Z" style="fill-rule:nonzero;"/><path d="M409.753,100.764l8.982,-45.035l12.141,0l-1.477,7.464c4.785,-5.66 9.953,-8.49 15.504,-8.49c5.988,0 9.297,2.871 9.926,8.613c4.484,-5.742 9.666,-8.613 15.545,-8.613c7.738,0 10.664,4.744 8.777,14.233l-6.357,31.828l-12.141,0l5.742,-28.834c0.602,-3.008 0.725,-5.038 0.369,-6.091c-0.355,-1.053 -1.353,-1.579 -2.994,-1.579c-3.472,0 -6.986,2.379 -10.541,7.136l-5.865,29.368l-12.141,0l5.742,-28.834c0.602,-3.008 0.718,-5.038 0.349,-6.091c-0.369,-1.053 -1.36,-1.579 -2.974,-1.579c-3.472,0 -7,2.379 -10.582,7.136l-5.865,29.368l-12.14,0Z" style="fill-rule:nonzero;"/><path d="M503.555,101.789c-6.726,0 -11.71,-2.153 -14.95,-6.46c-3.24,-4.307 -4.149,-10.001 -2.727,-17.083c1.449,-7.164 4.648,-12.879 9.597,-17.144c4.949,-4.266 10.856,-6.399 17.719,-6.399c6.863,0 11.929,2.133 15.196,6.399c3.268,4.265 4.191,9.953 2.769,17.062c-1.449,7.246 -4.655,12.995 -9.618,17.247c-4.963,4.252 -10.958,6.378 -17.986,6.378Zm1.641,-7.588c3.062,0 5.756,-1.429 8.08,-4.286c2.324,-2.857 3.992,-6.774 5.004,-11.751c0.957,-4.84 0.841,-8.695 -0.349,-11.566c-1.189,-2.871 -3.274,-4.307 -6.255,-4.307c-2.98,0 -5.632,1.436 -7.957,4.307c-2.324,2.871 -3.978,6.754 -4.963,11.648c-0.957,4.84 -0.854,8.709 0.308,11.608c1.162,2.898 3.206,4.347 6.132,4.347Z" style="fill-rule:nonzero;"/><path d="M564.258,93.299c-5.386,5.66 -10.65,8.49 -15.791,8.49c-4.703,0 -8.093,-2.044 -10.171,-6.132c-2.079,-4.088 -2.448,-9.481 -1.108,-16.18c1.559,-7.766 4.642,-13.836 9.249,-18.211c4.608,-4.375 10.234,-6.563 16.878,-6.563c2.215,0 5.031,0.342 8.449,1.026l3.938,-19.729l12.14,0l-12.919,64.764l-12.141,0l1.476,-7.465Zm6.071,-30.352c-2.926,-0.519 -5.141,-0.779 -6.645,-0.779c-6.726,0 -11.142,5.209 -13.248,15.627c-1.914,9.652 -0.424,14.478 4.471,14.478c3.281,0 6.945,-2.392 10.992,-7.177l4.43,-22.149Z" style="fill-rule:nonzero;"/><path d="M625.249,90.715l-1.682,8.531c-5.332,1.695 -10.514,2.543 -15.545,2.543c-7.519,0 -13.009,-2.153 -16.468,-6.46c-3.459,-4.307 -4.436,-10.206 -2.932,-17.698c1.394,-6.945 4.388,-12.503 8.982,-16.673c4.594,-4.17 10.008,-6.255 16.242,-6.255c6.453,0 10.753,2.071 12.9,6.214c2.146,4.143 2.317,10.726 0.512,19.749l-26.455,0c-0.847,8.586 2.803,12.879 10.952,12.879c3.855,0 8.353,-0.943 13.494,-2.83Zm-23.174,-16.899l14.642,0c1.532,-7.683 0.123,-11.525 -4.224,-11.525c-4.594,0 -8.067,3.842 -10.418,11.525Z" style="fill-rule:nonzero;"/><path d="M653.426,93.299l-1.476,7.465c-1.969,0.683 -3.992,1.025 -6.07,1.025c-8.559,0 -11.868,-4.922 -9.926,-14.766l10.213,-51.023l12.14,0l-9.884,49.424c-0.684,3.39 -0.841,5.612 -0.472,6.665c0.369,1.053 1.456,1.579 3.261,1.579c0.738,0 1.476,-0.123 2.214,-0.369Z" style="fill-rule:nonzero;"/><path d="M658.102,99.287l1.764,-8.859c5.769,2.515 10.801,3.773 15.094,3.773c6.043,0 9.392,-1.64 10.048,-4.922c0.411,-1.996 -1.585,-3.965 -5.988,-5.906l-3.773,-1.641c-5.141,-2.269 -8.388,-4.238 -9.741,-5.906c-1.354,-1.668 -1.689,-4.17 -1.005,-7.506c1.804,-9.078 9.037,-13.617 21.697,-13.617c4.32,0 9.105,0.533 14.355,1.6l-1.64,8.326c-5.715,-1.559 -9.967,-2.338 -12.756,-2.338c-5.66,0 -8.791,1.531 -9.393,4.594c-0.383,1.859 1.463,3.623 5.537,5.291l3.241,1.353c5.578,2.27 9.187,4.368 10.828,6.296c1.64,1.928 2.133,4.587 1.476,7.978c-0.875,4.265 -3.438,7.663 -7.69,10.192c-4.252,2.529 -9.55,3.794 -15.894,3.794c-5.578,0 -10.964,-0.834 -16.16,-2.502Z" style="fill-rule:nonzero;"/></g><g><path d="M76.706,366.299l-5.619,28.055c-8.067,1.968 -15.272,2.953 -21.616,2.953c-6.808,0 -12.099,-0.643 -15.873,-1.928c-3.773,-1.285 -6.822,-3.486 -9.146,-6.604c-4.321,-5.796 -5.496,-13.603 -3.528,-23.42c1.887,-9.406 5.948,-16.966 12.182,-22.681c3.609,-3.309 7.581,-5.653 11.915,-7.034c4.334,-1.381 9.81,-2.072 16.427,-2.072c7.93,0 15.025,0.78 21.287,2.338l-1.969,9.885c-7.793,-2.598 -14.738,-3.896 -20.836,-3.896c-6.836,0 -12.427,2.002 -16.775,6.008c-4.348,4.006 -7.301,9.865 -8.859,17.576c-1.504,7.492 -0.746,13.248 2.276,17.267c3.021,4.02 8.087,6.029 15.196,6.029c1.942,0 4.58,-0.191 7.916,-0.574l2.748,-13.576l-10.254,0l1.641,-8.326l22.887,0Z" style="fill-rule:nonzero;"/><path d="M121.167,385.74l-1.682,8.531c-5.332,1.696 -10.514,2.543 -15.545,2.543c-7.519,0 -13.009,-2.153 -16.468,-6.46c-3.459,-4.306 -4.436,-10.206 -2.932,-17.698c1.394,-6.945 4.388,-12.503 8.982,-16.673c4.594,-4.17 10.008,-6.254 16.242,-6.254c6.453,0 10.753,2.071 12.9,6.213c2.146,4.143 2.317,10.726 0.512,19.749l-26.455,0c-0.847,8.586 2.803,12.879 10.952,12.879c3.855,0 8.353,-0.943 13.494,-2.83Zm-23.174,-16.898l14.642,0c1.532,-7.684 0.123,-11.526 -4.224,-11.526c-4.594,0 -8.067,3.842 -10.418,11.526Z" style="fill-rule:nonzero;"/><path d="M129.698,395.789l8.982,-45.035l12.141,0l-1.477,7.465c5.743,-5.66 11.403,-8.49 16.981,-8.49c8.176,0 11.32,4.744 9.433,14.232l-6.357,31.828l-12.141,0l5.743,-28.834c0.574,-2.926 0.622,-4.935 0.143,-6.029c-0.478,-1.094 -1.647,-1.641 -3.507,-1.641c-3.281,0 -7.259,2.379 -11.935,7.137l-5.865,29.367l-12.141,0Z" style="fill-rule:nonzero;"/><path d="M219.194,385.74l-1.682,8.531c-5.332,1.696 -10.513,2.543 -15.545,2.543c-7.519,0 -13.008,-2.153 -16.467,-6.46c-3.459,-4.306 -4.437,-10.206 -2.933,-17.698c1.395,-6.945 4.389,-12.503 8.982,-16.673c4.594,-4.17 10.008,-6.254 16.243,-6.254c6.453,0 10.753,2.071 12.899,6.213c2.147,4.143 2.317,10.726 0.513,19.749l-26.455,0c-0.848,8.586 2.802,12.879 10.951,12.879c3.855,0 8.353,-0.943 13.494,-2.83Zm-23.174,-16.898l14.643,0c1.531,-7.684 0.123,-11.526 -4.225,-11.526c-4.594,0 -8.066,3.842 -10.418,11.526Z" style="fill-rule:nonzero;"/><path d="M228.751,395.789l8.982,-45.035l12.141,0l-1.477,7.465c3.391,-5.66 7.315,-8.49 11.772,-8.49c0.629,0 1.298,0.082 2.009,0.246l-2.173,10.828c-1.395,-0.629 -2.612,-0.944 -3.651,-0.944c-3.254,0 -6.439,2.106 -9.556,6.317l-5.907,29.613l-12.14,0Z" style="fill-rule:nonzero;"/><path d="M288.921,388.324c-5.387,5.66 -10.651,8.49 -15.791,8.49c-4.704,0 -8.094,-2.043 -10.172,-6.131c-2.078,-4.088 -2.448,-9.482 -1.108,-16.181c1.559,-7.766 4.642,-13.836 9.249,-18.211c4.608,-4.375 10.234,-6.562 16.878,-6.562c2.215,0 5.031,0.341 8.449,1.025l12.141,0l-8.982,45.035l-12.141,0l1.477,-7.465Zm6.07,-30.351c-2.926,-0.52 -5.141,-0.78 -6.645,-0.78c-6.726,0 -11.142,5.209 -13.248,15.627c-1.914,9.653 -0.424,14.479 4.471,14.479c3.281,0 6.945,-2.393 10.992,-7.178l4.43,-22.148Z" style="fill-rule:nonzero;"/><path d="M334.448,388.16l-1.518,7.588c-3.254,0.711 -5.92,1.066 -7.998,1.066c-8.558,0 -11.867,-4.921 -9.926,-14.765l4.758,-23.707l-4.922,0l1.518,-7.588l4.922,0l1.764,-8.818l12.427,-1.395l-2.05,10.213l8.613,0l-1.518,7.588l-8.613,0l-4.43,22.107c-0.683,3.391 -0.841,5.613 -0.471,6.665c0.369,1.053 1.456,1.579 3.26,1.579c1.094,0 2.489,-0.177 4.184,-0.533Z" style="fill-rule:nonzero;"/><path d="M377.883,385.74l-1.681,8.531c-5.332,1.696 -10.514,2.543 -15.545,2.543c-7.52,0 -13.009,-2.153 -16.468,-6.46c-3.459,-4.306 -4.436,-10.206 -2.933,-17.698c1.395,-6.945 4.389,-12.503 8.983,-16.673c4.594,-4.17 10.008,-6.254 16.242,-6.254c6.453,0 10.753,2.071 12.9,6.213c2.146,4.143 2.317,10.726 0.512,19.749l-26.455,0c-0.848,8.586 2.803,12.879 10.951,12.879c3.856,0 8.354,-0.943 13.494,-2.83Zm-23.173,-16.898l14.642,0c1.531,-7.684 0.123,-11.526 -4.224,-11.526c-4.594,0 -8.067,3.842 -10.418,11.526Z" style="fill-rule:nonzero;"/><path d="M407.948,395.256l2.051,-10.336c7.246,2.707 14.136,4.06 20.672,4.06c9.296,0 14.478,-2.693 15.544,-8.08c0.711,-3.5 -0.546,-6.002 -3.773,-7.505l-5.209,-2.133l-6.193,-2.543c-6.59,-2.707 -10.842,-5.291 -12.756,-7.752c-1.914,-2.461 -2.42,-5.961 -1.518,-10.5c2.27,-11.266 11.662,-16.899 28.178,-16.899c6.945,0 13.398,0.698 19.359,2.092l-1.886,9.598c-6.071,-2.242 -12.155,-3.363 -18.252,-3.363c-4.95,0 -8.484,0.519 -10.603,1.558c-2.119,1.039 -3.452,2.899 -3.999,5.578c-0.328,1.696 -0.123,3.022 0.615,3.979c0.739,0.957 2.338,1.928 4.799,2.912l4.307,1.805l6.439,2.584c6.262,2.515 10.418,5.113 12.469,7.793c2.051,2.679 2.625,6.289 1.723,10.828c-1.285,6.343 -4.58,10.999 -9.885,13.965c-5.305,2.967 -13.029,4.451 -23.174,4.451c-3.801,0 -8.012,-0.369 -12.633,-1.108l-6.275,-0.984Z" style="fill-rule:nonzero;"/><path d="M507.206,394.395c7.355,2.734 15.066,4.539 23.133,5.414l-9.844,8.121c-10.309,-2.871 -18.444,-6.481 -24.405,-10.828c-2.269,0.136 -3.951,0.205 -5.044,0.205c-8.641,0 -14.957,-2.885 -18.95,-8.655c-3.992,-5.769 -5.017,-13.507 -3.076,-23.214c1.996,-9.981 6.166,-17.788 12.51,-23.42c6.344,-5.633 14.109,-8.45 23.297,-8.45c9.16,0 15.777,2.817 19.851,8.45c4.075,5.632 5.127,13.412 3.159,23.337c-2.653,13.235 -9.53,22.915 -20.631,29.04Zm-24.692,-29.327c-1.531,7.629 -1.319,13.515 0.636,17.658c1.955,4.142 5.489,6.213 10.603,6.213c5.058,0 9.392,-2.057 13.002,-6.172c3.609,-4.116 6.152,-9.892 7.628,-17.329c1.504,-7.438 1.265,-13.221 -0.717,-17.35c-1.983,-4.129 -5.49,-6.193 -10.521,-6.193c-5.031,0 -9.365,2.05 -13.002,6.152c-3.637,4.101 -6.179,9.775 -7.629,17.021Z" style="fill-rule:nonzero;"/><path d="M532.143,395.789l12.1,-60.703l12.633,0l-10.418,52.09l30.843,0l-1.681,8.613l-43.477,0Z" style="fill-rule:nonzero;"/><path d="M605.766,395.789l8.983,-45.035l12.14,0l-1.476,7.465c4.785,-5.66 9.953,-8.49 15.504,-8.49c5.988,0 9.297,2.871 9.925,8.613c4.485,-5.742 9.666,-8.613 15.545,-8.613c7.739,0 10.664,4.744 8.778,14.232l-6.358,31.828l-12.14,0l5.742,-28.834c0.601,-3.008 0.724,-5.038 0.369,-6.091c-0.355,-1.052 -1.354,-1.579 -2.994,-1.579c-3.473,0 -6.986,2.379 -10.541,7.137l-5.865,29.367l-12.141,0l5.742,-28.834c0.602,-3.008 0.718,-5.038 0.349,-6.091c-0.369,-1.052 -1.361,-1.579 -2.974,-1.579c-3.473,0 -7,2.379 -10.582,7.137l-5.865,29.367l-12.141,0Z" style="fill-rule:nonzero;"/><path d="M680.456,395.789l8.982,-45.035l12.141,0l-8.983,45.035l-12.14,0Zm10.213,-53.238l2.296,-11.526l12.961,0l-2.296,11.526l-12.961,0Z" style="fill-rule:nonzero;"/><path d="M739.313,357.973c-2.926,-0.52 -5.14,-0.78 -6.644,-0.78c-6.727,0 -11.102,5.059 -13.125,15.176c-1.86,9.297 -0.342,13.945 4.552,13.945c3.282,0 6.946,-2.406 10.993,-7.218l4.224,-21.123Zm-5.865,29.326c-5.387,5.66 -10.65,8.49 -15.791,8.49c-4.649,0 -8.026,-2.023 -10.131,-6.07c-2.105,-4.047 -2.516,-9.297 -1.23,-15.75c1.503,-7.492 4.573,-13.406 9.208,-17.74c4.634,-4.333 10.233,-6.5 16.795,-6.5c2.215,0 5.032,0.341 8.45,1.025l12.14,0l-6.89,34.371c-1.368,6.863 -2.762,11.813 -4.184,14.848c-1.422,3.035 -3.568,5.619 -6.439,7.752c-4.731,3.527 -10.76,5.291 -18.088,5.291c-5.278,0 -10.733,-1.08 -16.365,-3.241l1.804,-8.941c5.469,2.379 10.35,3.568 14.643,3.568c4.457,0 7.875,-0.957 10.254,-2.871c2.379,-1.914 3.992,-5.017 4.84,-9.31l0.984,-4.922Z" style="fill-rule:nonzero;"/><path d="M757.073,395.789l8.982,-45.035l12.141,0l-1.477,7.465c3.391,-5.66 7.315,-8.49 11.772,-8.49c0.629,0 1.299,0.082 2.01,0.246l-2.174,10.828c-1.395,-0.629 -2.612,-0.944 -3.651,-0.944c-3.253,0 -6.439,2.106 -9.556,6.317l-5.906,29.613l-12.141,0Z" style="fill-rule:nonzero;"/><path d="M817.243,388.324c-5.387,5.66 -10.651,8.49 -15.791,8.49c-4.703,0 -8.094,-2.043 -10.172,-6.131c-2.078,-4.088 -2.447,-9.482 -1.107,-16.181c1.558,-7.766 4.641,-13.836 9.249,-18.211c4.607,-4.375 10.233,-6.562 16.877,-6.562c2.215,0 5.032,0.341 8.45,1.025l12.14,0l-8.982,45.035l-12.141,0l1.477,-7.465Zm6.07,-30.351c-2.926,-0.52 -5.14,-0.78 -6.644,-0.78c-6.727,0 -11.143,5.209 -13.248,15.627c-1.915,9.653 -0.424,14.479 4.47,14.479c3.282,0 6.946,-2.393 10.992,-7.178l4.43,-22.148Z" style="fill-rule:nonzero;"/><path d="M862.77,388.16l-1.517,7.588c-3.254,0.711 -5.92,1.066 -7.998,1.066c-8.559,0 -11.868,-4.921 -9.926,-14.765l4.758,-23.707l-4.922,0l1.517,-7.588l4.922,0l1.764,-8.818l12.428,-1.395l-2.051,10.213l8.613,0l-1.518,7.588l-8.613,0l-4.429,22.107c-0.684,3.391 -0.841,5.613 -0.472,6.665c0.369,1.053 1.456,1.579 3.261,1.579c1.093,0 2.488,-0.177 4.183,-0.533Z" style="fill-rule:nonzero;"/><path d="M868.02,395.789l8.983,-45.035l12.14,0l-8.982,45.035l-12.141,0Zm10.213,-53.238l2.297,-11.526l12.961,0l-2.297,11.526l-12.961,0Z" style="fill-rule:nonzero;"/><path d="M911.415,396.814c-6.727,0 -11.71,-2.153 -14.951,-6.46c-3.24,-4.306 -4.149,-10 -2.727,-17.083c1.449,-7.164 4.648,-12.878 9.598,-17.144c4.949,-4.266 10.855,-6.398 17.718,-6.398c6.864,0 11.929,2.132 15.197,6.398c3.267,4.266 4.19,9.953 2.768,17.062c-1.449,7.247 -4.655,12.996 -9.618,17.248c-4.963,4.251 -10.958,6.377 -17.985,6.377Zm1.64,-7.587c3.063,0 5.756,-1.429 8.08,-4.287c2.325,-2.857 3.993,-6.774 5.004,-11.751c0.957,-4.839 0.841,-8.695 -0.348,-11.566c-1.19,-2.871 -3.275,-4.307 -6.255,-4.307c-2.981,0 -5.633,1.436 -7.957,4.307c-2.324,2.871 -3.979,6.754 -4.963,11.648c-0.957,4.84 -0.855,8.709 0.307,11.608c1.163,2.898 3.207,4.348 6.132,4.348Z" style="fill-rule:nonzero;"/><path d="M943.612,395.789l8.982,-45.035l12.141,0l-1.477,7.465c5.743,-5.66 11.403,-8.49 16.981,-8.49c8.176,0 11.32,4.744 9.434,14.232l-6.358,31.828l-12.141,0l5.743,-28.834c0.574,-2.926 0.622,-4.935 0.143,-6.029c-0.478,-1.094 -1.647,-1.641 -3.507,-1.641c-3.281,0 -7.259,2.379 -11.935,7.137l-5.865,29.367l-12.141,0Z" style="fill-rule:nonzero;"/><path d="M1019,395.789l7.465,-37.447l-4.676,0l1.517,-7.588l4.676,0l0.615,-3.117c1.121,-5.66 3.336,-10.015 6.645,-13.064c3.308,-3.049 7.451,-4.573 12.428,-4.573c3.062,0 6.097,0.424 9.105,1.271l-1.559,7.793c-2.953,-0.902 -5.236,-1.353 -6.849,-1.353c-3.774,0 -6.344,3.418 -7.711,10.254l-0.533,2.789l26.742,0l-8.983,45.035l-12.14,0l7.465,-37.447l-14.602,0l-7.465,37.447l-12.14,0Zm39.293,-52.623l2.009,-10.131l10.09,0l-2.01,10.131l-10.089,0Z" style="fill-rule:nonzero;"/><path d="M1089.67,388.324l-1.477,7.465c-1.969,0.684 -3.992,1.025 -6.07,1.025c-8.559,0 -11.867,-4.921 -9.926,-14.765l10.213,-51.024l12.14,0l-9.884,49.424c-0.684,3.391 -0.841,5.613 -0.472,6.665c0.369,1.053 1.456,1.579 3.261,1.579c0.738,0 1.476,-0.123 2.215,-0.369Z" style="fill-rule:nonzero;"/><path d="M1133.27,385.74l-1.681,8.531c-5.332,1.696 -10.514,2.543 -15.545,2.543c-7.52,0 -13.009,-2.153 -16.468,-6.46c-3.459,-4.306 -4.437,-10.206 -2.933,-17.698c1.395,-6.945 4.389,-12.503 8.983,-16.673c4.593,-4.17 10.007,-6.254 16.242,-6.254c6.453,0 10.753,2.071 12.899,6.213c2.147,4.143 2.318,10.726 0.513,19.749l-26.455,0c-0.848,8.586 2.803,12.879 10.951,12.879c3.856,0 8.354,-0.943 13.494,-2.83Zm-23.174,-16.898l14.643,0c1.531,-7.684 0.123,-11.526 -4.225,-11.526c-4.593,0 -8.066,3.842 -10.418,11.526Z" style="fill-rule:nonzero;"/><path d="M1141.06,394.313l1.764,-8.86c5.769,2.516 10.801,3.774 15.094,3.774c6.043,0 9.392,-1.641 10.048,-4.922c0.411,-1.996 -1.586,-3.965 -5.988,-5.907l-3.773,-1.64c-5.141,-2.27 -8.388,-4.238 -9.742,-5.906c-1.353,-1.668 -1.688,-4.17 -1.004,-7.506c1.804,-9.078 9.037,-13.617 21.697,-13.617c4.32,0 9.105,0.533 14.355,1.599l-1.64,8.326c-5.715,-1.558 -9.967,-2.338 -12.756,-2.338c-5.66,0 -8.791,1.532 -9.393,4.594c-0.383,1.86 1.463,3.623 5.537,5.291l3.241,1.354c5.578,2.269 9.187,4.368 10.828,6.296c1.64,1.927 2.133,4.587 1.476,7.977c-0.875,4.266 -3.438,7.663 -7.69,10.193c-4.252,2.529 -9.55,3.793 -15.894,3.793c-5.578,0 -10.965,-0.834 -16.16,-2.501Z" style="fill-rule:nonzero;"/></g></svg>